<svg xmlns="http://www.w3.org/2000/svg">
<defs>
<font id="HandOfSean" horiz-adv-x="1292" >
  <font-face 
    font-family="Hand Of Sean"
    font-weight="400"
    font-stretch="normal"
    units-per-em="2048"
    panose-1="2 0 5 0 0 0 0 0 0 0"
    ascent="1638"
    descent="-410"
    x-height="795"
    cap-height="2005"
    bbox="-545.001 -1010 3052 2652"
    underline-thickness="150"
    underline-position="-142"
    unicode-range="U+0020-U+FB06"
  />
<missing-glyph horiz-adv-x="2074" 
d="M589 1985c151.333 0 247.333 -61.668 288 -185.001l7 -45v-35c0 -118.667 -81.333 -212 -244 -280c-70 -23.333 -139.667 -35 -209 -35c-154 0 -258.333 54 -313 162c-11.333 32.667 -17 65.334 -17 98.001v18c0 164 128.333 262.333 385 295
c12.667 4.66699 38.667 7 78 7h25zM1850 1735c6.66699 -27.333 10 -48.666 10 -63.999v-29c0 -84 -53.667 -141.333 -161 -172l-86 -10c-124.667 0 -228 44.333 -310 133c-28.667 41.333 -43 85.666 -43 132.999c0 98.667 62.333 154.667 187 168
c38 7.33301 68.667 11 92 11c151.333 0 255 -56.667 311 -170zM490 1483l84.001 -0.000976562l-12 94c0 50.667 22 80 66 88c13.333 -5.33301 20 -19 20 -41l-2 -68c0 -16 6 -27.333 18 -34h2c79.333 66.667 121.666 105.334 126.999 116.001c12.667 20.667 19 46.667 19 78
v6c0 76.667 -42.333 128.667 -127 156c-20.667 5.33301 -44.667 8 -72 8h-24c-109.333 0 -205 -42.333 -287 -127c-23.333 -34 -35 -70.667 -35 -110c0 -110.667 74.333 -166 223 -166zM1320 1702c0 -38 35.334 -79.667 106.001 -125l2 2c0 68 18 108.333 54 121
c24 -18 36 -52.333 36 -103v-79l52 -2c77.333 0 132.666 27 165.999 81l2 48c0 81.333 -48 137 -144 167l-78 7c-92.667 0 -156.667 -31 -192 -93zM2024 1227c-8 -93.333 -58.333 -246.999 -151 -460.999c-57.333 -116 -133.333 -233.333 -228 -352
c-237.333 -269.333 -502 -404 -794 -404h-19c-320.667 0 -535.667 171.333 -645 514c-40.667 114.667 -76.667 263.667 -108 447l-29 186l6 2c340 19.333 996 42.666 1968 69.999v-2zM230.002 1085c16.667 -86 40 -247.668 70 -485.001c30 -156.667 82 -274 156 -352

<glyph glyph-name=".notdef" horiz-adv-x="2074" 
d="M589 1985c151.333 0 247.333 -61.668 288 -185.001l7 -45v-35c0 -118.667 -81.333 -212 -244 -280c-70 -23.333 -139.667 -35 -209 -35c-154 0 -258.333 54 -313 162c-11.333 32.667 -17 65.334 -17 98.001v18c0 164 128.333 262.333 385 295
c12.667 4.66699 38.667 7 78 7h25zM1850 1735c6.66699 -27.333 10 -48.666 10 -63.999v-29c0 -84 -53.667 -141.333 -161 -172l-86 -10c-124.667 0 -228 44.333 -310 133c-28.667 41.333 -43 85.666 -43 132.999c0 98.667 62.333 154.667 187 168
c38 7.33301 68.667 11 92 11c151.333 0 255 -56.667 311 -170zM490 1483l84.001 -0.000976562l-12 94c0 50.667 22 80 66 88c13.333 -5.33301 20 -19 20 -41l-2 -68c0 -16 6 -27.333 18 -34h2c79.333 66.667 121.666 105.334 126.999 116.001c12.667 20.667 19 46.667 19 78
v6c0 76.667 -42.333 128.667 -127 156c-20.667 5.33301 -44.667 8 -72 8h-24c-109.333 0 -205 -42.333 -287 -127c-23.333 -34 -35 -70.667 -35 -110c0 -110.667 74.333 -166 223 -166zM1320 1702c0 -38 35.334 -79.667 106.001 -125l2 2c0 68 18 108.333 54 121
c24 -18 36 -52.333 36 -103v-79l52 -2c77.333 0 132.666 27 165.999 81l2 48c0 81.333 -48 137 -144 167l-78 7c-92.667 0 -156.667 -31 -192 -93zM2024 1227c-8 -93.333 -58.333 -246.999 -151 -460.999c-57.333 -116 -133.333 -233.333 -228 -352
c-237.333 -269.333 -502 -404 -794 -404h-19c-320.667 0 -535.667 171.333 -645 514c-40.667 114.667 -76.667 263.667 -108 447l-29 186l6 2c340 19.333 996 42.666 1968 69.999v-2zM230.002 1085c16.667 -86 40 -247.668 70 -485.001c30 -156.667 82 -274 156 -352
c96.667 -101.333 215.334 -152 356.001 -152h18c206.667 0 430 91 670 273c135.333 114.667 218.666 213.667 249.999 297c14.667 32.667 22 61.334 22 86.001v8c0 23.333 -16.333 60 -49 110l-6 37c0 20.667 15 58.334 45 113.001c6.66699 10.667 10.667 25.667 12 45
c0 39.333 -15.667 59 -47 59c-78.667 7.33301 -185 11.666 -319 12.999c-116 0 -482.667 -16.667 -1100 -50zM326.002 683.998c72.667 -42 184 -63 334 -63c127.333 0 297.333 16.333 510 49v-6c-208.667 -93.333 -386.667 -140 -534 -140c-157.333 0 -262 53.333 -314 160
h4z" />
    <glyph glyph-name="space" unicode=" " horiz-adv-x="624" 
 />
    <glyph glyph-name="space" unicode="&#xa0;" horiz-adv-x="624" 
 />
    <glyph glyph-name="exclam" unicode="!" horiz-adv-x="434" 
d="M384 1925v-191.999c0 -126 -17.667 -471.667 -53 -1037c-6 -220.667 -20.333 -331 -43 -331c-32 -32 -67.667 -51.333 -107 -58h-22c-63.333 12.667 -95 68 -95 166v66c0 56 18 258 54 606c14.667 203.333 22 356.333 22 459v92l-6 209
c44 43.333 83.667 67.666 119 72.999l53 15zM181 59.001c46.667 0 80.667 -19 102 -57c7.33301 -16.667 11 -31.667 11 -45c0 -64 -47.333 -106.333 -142 -127h-51c-34 26 -51 57.333 -51 94v23c0 62.667 22.667 96.667 68 102z" />
    <glyph glyph-name="quotedbl" unicode="&#x22;" horiz-adv-x="704" 
d="M224 1985c44 -54.667 66 -149.667 66 -285l-15 -418c-34 -69.333 -73.667 -104 -119 -104h-24c-54.667 13.333 -82 59 -82 137c20.667 100.667 31 162 31 184v2c0 36.667 -10.333 139.667 -31 309v33c0 94.667 56 142 168 142h6zM646 1950
c5.33301 -94.667 8.00098 -190.333 8.00098 -287v-35c-4 -236 -14.333 -354 -31 -354c-46 -34 -76.667 -51 -92 -51c-53.333 0 -87.333 145.333 -102 436v35c0 147.333 23.333 234 70 260c21.333 13.333 45.666 20 72.999 20c44 -1.33301 68.667 -9.33301 74 -24z" />
    <glyph glyph-name="numbersign" unicode="#" horiz-adv-x="1491" 
d="M537 1761c40 0 83 -32.668 129 -98.001l-4 -225l265 -13l18 310c22 17.333 44 26 66 26h18c46.667 0 89.667 -34 129 -102v-121l-4 -129l260 -10c18 -23.333 27 -45.333 27 -66v-30c0 -37.333 -34.333 -77.666 -103 -120.999h-96l-100 4l-13 -268
c195.333 -8.66699 293 -16.334 293 -23.001l19 -49v-33c0 -36.667 -31.667 -77.667 -95 -123h-213l9 -192c-4.66699 -84.667 -26 -127 -64 -127h-24c-48 0 -93.333 39.333 -136 118c-13.333 60.667 -20 131.667 -20 213l-260 13l12 -201c-5.33301 -95.333 -27 -143 -65 -143
h-23c-50.667 0 -97.667 41 -141 123c-10 52.667 -15 115.334 -15 188.001v29l-4 4v4l-20 -4l-213 -8c-76.667 6.66699 -115 25 -115 55l-4 12v17c0 47.333 39.667 93.666 119 138.999c68 13.333 148.333 20 241 20l7 260l-228 -12c-92.667 4 -139 26.667 -139 68v16
c0 42.667 33.333 86.334 100 131.001c36 19.333 114.667 29 236 29h47l16 293c26 17.333 48.667 26 68 26h20zM638 945.999l16 -4l248 -8l12 260l-4 4l-260 12z" />
    <glyph glyph-name="dollar" unicode="$" horiz-adv-x="1988" 
d="M957 1839c37.333 0 71.0039 -25.332 101.004 -75.999l-31 -407l-4 -4c117.333 -20.667 191.666 -48.667 222.999 -84l16 -25v-4c-66.667 -90 -109.667 -135 -129 -135l-18 -4l-49 8c-19.333 -6.66699 -29 -23.667 -29 -51l17 -209c110 -40 284.667 -93.333 524 -160
c138 -40.667 258 -110.334 360 -209.001v-4c-34 -124 -92.667 -218 -176 -282c-122.667 -78 -209.334 -117 -260.001 -117c-62.667 -22 -188.334 -40.667 -377.001 -56l-4 -24c0 -42.667 16.333 -130.667 49 -264c-42 -75.333 -91 -113 -147 -113h-12
c-45.333 0 -94 22 -146 66c-14.667 57.333 -34.334 172 -59.001 344l-21 -4h-92c-196.667 0 -355 54.333 -475 163c-34 42.667 -51 85 -51 127c0 52 23.667 112.333 71 181h52c5.33301 0 16 13.667 32 41c0 -6 20 -13 60 -21v-33c0 -102 84 -171 252 -207
c40.667 -10.667 87.667 -16 141 -16h2l4 21v34c0 120.667 -11.667 246.334 -35 377.001c-38 0 -167.667 37.667 -389 113c-198 86 -300.333 145.333 -307 178v37l8 76v28c118.667 98.667 277 159 475 181l201 16l55 358c22 67.333 50 114.666 84 141.999
c19.333 12 33 18 41 18h43zM511.004 1032c17.333 0 79.333 -19.667 186 -59l41 -4l-12 110c-140.667 -12 -211 -26.333 -211 -43h-4v-4zM1078 524.001l20.999 -268h4c182.667 0 346.334 43.667 491.001 131v4c-54.667 18 -181.667 66.667 -381 146l-131 34z" />
    <glyph glyph-name="percent" unicode="%" horiz-adv-x="2097" 
d="M617 1819c72.667 0 163.667 -45.999 273 -137.999c10.667 -28.667 18.667 -73.667 24 -135c0 -156.667 -71 -286.334 -213 -389.001h-8c-42 8 -80.333 12 -115 12h-104c-56 0 -89.333 12.333 -100 37c-48 93.333 -72 194.333 -72 303c8 148 33.333 222 76 222
c35.333 12 57.666 18 66.999 18h13l28 -6c28.667 50.667 68.334 76 119.001 76h12zM2039 1579c5.33301 0 7.99902 -9.66797 7.99902 -29.001c-604.667 -604.667 -1007.67 -995 -1209 -1171l-575 -490c-30 -12 -53.333 -18 -70 -18c-64 0 -111.667 32.667 -143 98v33
c0 42.667 84 115.667 252 219c88.667 62.667 276.334 236 563.001 520l541 529c166.667 188 286.667 308 360 360c72.667 50.667 151.334 90.334 236.001 119.001c13.333 0 25.666 -56.667 36.999 -170zM549.999 1403c83.333 12 124.999 38.667 124.999 80l4 43
c0 30 -12.333 45 -37 45c-35.333 0 -77.666 -33.667 -126.999 -101c9.33301 -12 21 -34.333 35 -67zM1566 565c125.333 -133.333 188 -223.333 188 -270v-49c0 -93.333 -33.333 -185.666 -100 -276.999c-52 -39.333 -115 -59 -189 -59c-138 0 -233.667 57.333 -287 172
c-8 27.333 -12 52.666 -12 75.999l39 227v45c94 90 187.667 135 281 135h80zM1381 283c0 -48 29.333 -79 88 -93h8c16.667 11.333 25 24.333 25 39v17c0 66.667 -8.33301 100 -25 100h-30c-37.333 0 -59.333 -19.667 -66 -59v-4z" />
    <glyph glyph-name="ampersand" unicode="&#x26;" horiz-adv-x="1484" 
d="M759 1755c44.667 0 71.0029 -35.3398 79.0029 -106.007l5 -33c-7.33301 -83.333 -18.333 -160.666 -33 -231.999c43.333 -13.333 143.666 -39.666 300.999 -78.999c58.667 -26 88 -51.333 88 -76v-41c0 -53.333 -36.333 -84 -109 -92h-45c-34 0 -109.667 12.333 -227 37
c-16.667 -28.667 -25 -52.667 -25 -72l5 -121c47.333 0 100.333 -28 159 -84l-8 -92l8 -37c-26 0 -56.667 -19.667 -92 -59c-9.33301 -8.66699 -21 -13 -35 -13h-20c-8 -26 -12 -54 -12 -84v-30c0 -44 4 -84.333 12 -121h12c83.333 0 205 29.333 365 88
c61.333 8 92 23 92 45c6.66699 0 11.334 19.667 14.001 59v29l8 6h13l63 -14l16 4c27.333 -31.333 41 -67.666 41 -108.999v-16c0 -146 -160.333 -252.333 -481 -319l-119 -13v-4c0 -32.667 13 -133 39 -301v-18c0 -52 -25 -83 -75 -93c-8.66699 0 -20.334 -8 -35.001 -24
h-17l-45 41c-2.66699 -19.333 -6 -29 -10 -29c-45.333 56 -74 134.667 -86 236c-13.333 128 -33 192 -59 192c-128.667 12.667 -231.334 35.334 -308.001 68.001c-70.667 32.667 -133.334 78.334 -188.001 137.001c0 165.333 108 289 324 371v4
c-48 6.66699 -133.333 65.334 -256 176.001v16c0 180.667 104.333 302.334 313 365.001l151 35c24.667 268.667 74 403 148 403h29zM558.003 986.993v78c0 20.667 -5.33301 31 -16 31c-54.667 0 -100 -20 -136 -60c57.333 -32.667 108 -49 152 -49zM537.003 443.993
l32.999 0.000976562v56c-1.33301 42 -6.66602 63 -15.999 63c-102.667 -18.667 -167 -45.334 -193 -80.001l-4 -4v-4z" />
    <glyph glyph-name="quotesingle" unicode="'" horiz-adv-x="364" 
d="M228 1972c54.667 0 82 -20.334 82 -61.001l4 -242c0 -222.667 -46.333 -364 -139 -424c-36.667 -14.667 -66.667 -22 -90 -22c-10 14.667 -17 95 -21 241l4 107c-1.33301 122.667 -7.33301 222.334 -18 299.001c35.333 68 90 102 164 102h14z" />
    <glyph glyph-name="parenleft" unicode="(" horiz-adv-x="848" 
d="M759 1696c26 0 39.001 -25.332 39.001 -75.999c0 -109.333 -84 -218.666 -252 -327.999c-104 -82 -156 -160.333 -156 -235c-64 -172 -96 -286.667 -96 -344v-29c0 -244.667 159 -491 477 -739v-13c0 -96.667 -39 -159.334 -117 -188.001l-45 -4
c-96.667 0 -217.334 121.333 -362.001 364c-131.333 175.333 -197 355 -197 539v41c0 221.333 78.667 457.666 236 708.999c144.667 202 290 303 436 303h37z" />
    <glyph glyph-name="parenright" unicode=")" horiz-adv-x="843" 
d="M210 1636c100.667 0 243.332 -145.332 427.999 -435.999c103.333 -140.667 155 -304.334 155 -491.001v-17c0 -211.333 -58.667 -425 -176 -641c-156.667 -246.667 -324.667 -370 -504 -370h-12c-17.333 9.33301 -26 35.666 -26 78.999c9.33301 112 26.333 168 51 168
c106.667 63.333 217.334 176.666 332.001 339.999c0 31.333 26.333 131 79 299l13 92v29c0 248.667 -162.667 492.334 -488 731.001l-12 17v28c0 76.667 34.667 131.334 104 164.001l31 8h25z" />
    <glyph glyph-name="asterisk" unicode="*" horiz-adv-x="960" 
d="M474 1982c26 -30 50 -81.667 72 -155c30 -118.667 45 -188.334 45 -209.001l252 37c12 0 22 -16.333 30 -49v-9c0 -64 -10 -96 -30 -96c-28.667 -18.667 -86 -39.667 -172 -63c18.667 -42.667 78.667 -97.334 180 -164.001l59 -60c-22 -69.333 -40.333 -104 -55 -104h-25
c-86 0 -170 43.667 -252 131l-71 62c-31.333 -14 -94.333 -55.667 -189 -125c-43.333 -23.333 -89.666 -35 -138.999 -35c-24.667 24.667 -37 51.334 -37 80.001c0 42 40.333 95 121 159c-20.667 11.333 -79.334 31.333 -176.001 60c-24.667 20.667 -37 34.334 -37 41.001
c0 53.333 26.667 94.333 80 123l41 12c49.333 -24.667 98.333 -37 147 -37c26 0 39 8.33301 39 25l8 63l-8 197c0 64 26.667 102.667 80 116h37z" />
    <glyph glyph-name="plus" unicode="+" horiz-adv-x="1284" 
d="M697 1163c44 0 68.666 -32.667 73.999 -98v-33l-12 -196v-131c126.667 13.333 257 20 391 20c56 -56 84 -111.333 84 -166c-6.66699 -56 -19.667 -84 -39 -84l-420 -35c9.33301 -113.333 14 -215 14 -305v-67c-46 -58.667 -99 -88 -159 -88c-58.667 8 -88 20 -88 36
l-31 412l-29 -4h-151c-132.667 0 -210.667 22.667 -234 68c-31.333 47.333 -47 83.333 -47 108v25c0 53.333 40.333 80 121 80c126.667 -11.333 219.334 -17 278.001 -17h45l-4 164c4 162.667 21.333 244 52 244c38 38 79.333 60.333 124 67h31z" />
    <glyph glyph-name="comma" unicode="," horiz-adv-x="555" 
d="M398 416c44 0 79.668 -13.668 107.001 -41.001v-53c0 -217.333 -96.333 -414 -289 -590c-14 -34 -44.667 -51 -92 -51h-51c-12.667 0 -20.334 3.33301 -23.001 10v18c0 72.667 50 189.334 150 350.001c35.333 82 53 157.333 53 226l-6 84c35.333 31.333 80.333 47 135 47
h16z" />
    <glyph glyph-name="hyphen" unicode="-" horiz-adv-x="1140" 
d="M335 725c132 0 375.668 -15.002 731.001 -45.002c16 -22 24 -47.333 24 -76v-4c0 -53.333 -26.333 -99.666 -79 -138.999l-642 31l-231 -13c-58.667 0 -88 23.333 -88 70v10c0 54.667 29.333 103.334 88 146.001c35.333 13.333 84.666 20 147.999 20h49z" />
    <glyph glyph-name="hyphen" unicode="&#xad;" horiz-adv-x="1140" 
d="M335 725c132 0 375.668 -15.002 731.001 -45.002c16 -22 24 -47.333 24 -76v-4c0 -53.333 -26.333 -99.666 -79 -138.999l-642 31l-231 -13c-58.667 0 -88 23.333 -88 70v10c0 54.667 29.333 103.334 88 146.001c35.333 13.333 84.666 20 147.999 20h49z" />
    <glyph glyph-name="period" unicode="." horiz-adv-x="415" 
d="M251 246c76 -19.333 114 -53 114 -101v-8c0 -73.333 -53 -134 -159 -182l-39 -4c-52 0 -89.667 30.667 -113 92l-4 43c0 60 32 107.667 96 143l88 17h17z" />
    <glyph glyph-name="slash" unicode="/" horiz-adv-x="1849" 
d="M1703 1776c34 0 66 -18.6689 96 -56.002c0 -83.333 -40.333 -185 -121 -305c-57.333 -44.667 -118.666 -110.667 -183.999 -198c-12.667 -26 -283 -301.333 -811 -826c-169.333 -184 -292.333 -334 -369 -450c-90 -41.333 -140.333 -62 -151 -62h-9
c-10.667 6.66699 -16 16.334 -16 29.001l8 41l-49 -8c-18 8 -27 19.333 -27 34l5 5c-10 0 -18.333 5.33301 -25 16v8c45.333 120 202.333 328.333 471 625l682 667c177.333 184.667 292.666 319.334 345.999 404.001c49.333 50.667 95 76 137 76h17z" />
    <glyph glyph-name="zero" unicode="0" horiz-adv-x="1275" 
d="M553 1775c144 0 269.333 -73 376 -219l159 -242c91.333 -164.667 137 -318.334 137 -461.001c0 -208.667 -71.667 -425 -215 -649c-108 -136 -235.667 -204 -383 -204h-48c-189.333 0 -337 117.333 -443 352c-57.333 140.667 -86 296.667 -86 468v56
c0 120.667 27.667 280.667 83 480c22 70.667 70 144 144 220l26 26c-12.667 8.66699 -19 22.334 -19 41.001c69.333 88 152.333 132 249 132h20zM572 1548c0 -22 -10.3311 -32.999 -30.998 -32.999c-168 -84.667 -255 -307.667 -261 -669c0 -134 24 -244.667 72 -332
c43.333 -138.667 79.666 -208 108.999 -208c67.333 -57.333 129.666 -86 186.999 -86c69.333 0 152 75.333 248 226c70 140 105 263.333 105 370v41c0 150 -97.667 345.667 -293 587c-49.333 57.333 -90 89.666 -122 96.999z" />
    <glyph glyph-name="one" unicode="1" horiz-adv-x="524" 
d="M402 1793c26.667 0 46.333 -31.332 59 -93.999c8.66699 -8.66699 13 -16 13 -22c0 -28 -37 -257 -111 -687c-12 -69.333 -18 -136.333 -18 -201l25 -476c0 -185.333 -42 -303.333 -126 -354c0 23.333 -28.333 39.333 -85 48c-29.333 98 -44 266.667 -44 506v19
c0 224 7 395.333 21 514v8c0 23.333 -27.333 68.666 -82 135.999l-4 19v15c0 20.667 34 83.334 102 188.001c29.333 60 71 169.667 125 329c8 11.333 42 28.666 102 51.999h23z" />
    <glyph glyph-name="two" unicode="2" horiz-adv-x="1519" 
d="M935 1652c168.667 0 284.002 -68.3311 346.002 -204.998c17.333 -40.667 26 -83.667 26 -129v-26c0 -167.333 -91.333 -342.333 -274 -525c-124 -126.667 -241.667 -228.667 -353 -306c-64.667 -58 -111 -103.667 -139 -137v-4c260 -29.333 445.333 -44 556 -44
c49.333 0 139.666 8.66699 270.999 26h3c65.333 0 98 -24 98 -72v-29c-9.33301 -76.667 -21.666 -115 -36.999 -115c-102 -57.333 -264 -86 -486 -86c-474 15.333 -711 29.333 -711 42c-120.667 26 -181 56 -181 90l-4 49c0 32 22.667 87.333 68 166
c174.667 115.333 375 278 601 488c145.333 156 242.333 277 291 363l-1 19v93c0 30.667 -22.333 48.667 -67 54c-24.667 8.66699 -55.334 13.667 -92.001 15c-142.667 0 -266.667 -77 -372 -231c-30 -62.667 -48 -95.334 -54 -98.001c-34.667 -18 -70.334 -27 -107.001 -27
c-67.333 5.33301 -101 19.666 -101 42.999c0 94 49 203 147 327c162 172.667 343.333 259 544 259h28z" />
    <glyph glyph-name="three" unicode="3" horiz-adv-x="1519" 
d="M1073 1609c92 0 175.667 -24.002 251 -72.002c2 -8 9.33301 -19 22 -33c7.33301 -34 11 -71 11 -111v-11c0 -184 -97.333 -343.333 -292 -478l-29 -25v-3c90 -34.667 198 -112.667 324 -234c72.667 -90 109 -174.333 109 -253c0 -128 -81.333 -236 -244 -324
c-96 -43.333 -198 -65 -306 -65h-41c-250.667 0 -487.334 91 -710.001 273c-63.333 55.333 -95 100.333 -95 135c0 12 -7.66699 42 -23 90v5c0 4.66699 13 14.667 39 30c25.333 38 46.333 57 63 57c44.667 0 135.334 -57 272.001 -171
c184.667 -103.333 358.667 -155 522 -155h44c72.667 0 134.667 33 186 99l4 29c-11.333 54 -83.333 122.667 -216 206c-38 16.667 -125 40.334 -261 71.001c-92.667 33.333 -139 78.333 -139 135c0 77.333 103.333 155.333 310 234c48 14.667 101 61.334 159 140.001l-5 50
l34 116c-8.66699 6 -32.667 11.333 -72 16c-62.667 0 -188.334 -49 -377.001 -147c-44.667 -18.667 -83.667 -28 -117 -28c-48.667 0 -77.667 32 -87 96v15c0 12 13.667 33.333 41 64c0.666992 38.667 118 107.667 352 207c94.667 28 175.334 42 242.001 42h29z" />
    <glyph glyph-name="four" unicode="4" horiz-adv-x="1905" 
d="M1267 1572l-0.000976562 -27.001c0 -8.66699 -17 -47.334 -51 -116.001c-14 -38.667 -24.667 -198.667 -32 -480l-19 -103h7c55.333 0 185 26.333 389 79l109 12c74 0 135.667 -18.667 185 -56c-15.333 0 -44.333 -54.667 -87 -164c-8 -12 -19 -18 -33 -18
c-122 -26 -283 -66.333 -483 -121c-53.333 -4.66699 -80 -11 -80 -19c-12.667 -33.333 -19 -75.666 -19 -126.999l38 -367v-27c0 -58.667 -22.667 -110 -68 -154c-12.667 -8.66699 -25.667 -13 -39 -13c-54 0 -97.333 62 -130 186c-8 44.667 -14.333 180.334 -19 407.001
c-7.33301 48 -12.666 72 -15.999 72c-293.333 -48 -511 -72 -653 -72l-163 5c-35.333 28 -53 64.333 -53 109v16c0 67.333 81.667 169.333 245 306l597 521c155.333 168.667 242.333 253 261 253c60 0 98 -34 114 -102zM948.999 827.999l15.002 222.999
c0 41.333 -7.33301 81.333 -22 120h-4c-58.667 -59.333 -159.334 -142.666 -302.001 -249.999c-62.667 -56 -103.334 -100 -122.001 -132c218 14.667 363 27.667 435 39z" />
    <glyph glyph-name="five" unicode="5" horiz-adv-x="1466" 
d="M1300 1709c0 -12.667 19.998 -26.332 59.998 -40.999c14 -8.66699 24 -21.667 30 -39c0 -178 -134.667 -267 -404 -267l-238 11c-42 1.33301 -80.667 2 -116 2c-126.667 0 -190 -7.66699 -190 -23c-25.333 -51.333 -38 -97 -38 -137v-23l3 -16
c213.333 40 386.333 60 519 60c207.333 0 343 -54 407 -162c51.333 -42 77 -114.667 77 -218c4 -25.333 6 -50.333 6 -75c0 -114 -32 -228.667 -96 -344c-84.667 -156.667 -194.667 -275.334 -330 -356.001c-160 -93.333 -301.333 -140 -424 -140h-41
c-152 0 -308 74 -468 222l11 91l-18 20v12c2.66699 6 21 16.667 55 32c56.667 31.333 96.334 47 119.001 47c25.333 0 58.333 -32 99 -96c102 -44.667 178 -67 228 -67h8c232 43.333 394.667 139.333 488 288c78.667 84.667 118 176.667 118 276
c0 22.667 -1.66699 45.667 -5 69l-39 119c-29.333 36.667 -109.666 55 -240.999 55c-86.667 0 -223.667 -33.333 -411 -100c-48 -12.667 -89.333 -19 -124 -19h-38c-53.333 0 -102.666 19.667 -147.999 59c-10 52.667 -15 102 -15 148v31c0 109.333 36.333 245 109 407
c84 43.333 129.333 65 136 65c18.667 0 55 -11.667 109 -35c205.333 45.333 366.666 68 483.999 68z" />
    <glyph glyph-name="six" unicode="6" horiz-adv-x="1429" 
d="M752 1762c43.333 0 64.999 -8.66602 64.999 -25.999c7.33301 -29.333 11 -56 11 -80v-31c0 -138.667 -73 -268.334 -219 -389.001c-5.33301 0 -8 6.33301 -8 19c-8.66699 33.333 -24.667 50 -48 50c-30.667 -16 -67.667 -56.667 -111 -122
c-72 -150 -113 -303.667 -123 -461l11 -7h15c220.667 225.333 340 338 358 338c141.333 100 261 150 359 150h35c90 0 165.667 -49 227 -147c36.667 -64 55 -147 55 -249v-6c0 -208.667 -63.667 -413 -191 -613c-139.333 -164.667 -312.333 -247 -519 -247
c-181.333 0 -343.666 69.333 -486.999 208c-88 124 -132 264.667 -132 422v39c0 281.333 117.333 587.333 352 918c125.333 156 237.333 234 336 234h14zM434.999 409.001c0 -72.667 72 -132.999 216 -180.999c32 -7.33301 62 -11 90 -11c145.333 0 266.333 85.333 363 256
c37.333 76 56 154.333 56 235c-10 116 -30 174 -60 174l-82 4c-186 0 -365 -127.333 -537 -382c-30.667 -44.667 -46 -73.334 -46 -86.001v-9z" />
    <glyph glyph-name="seven" unicode="7" horiz-adv-x="1626" 
d="M1418 1555v-12.0029c0 -106.667 -48 -255.334 -144 -446.001c-12.667 -24.667 -32 -72.667 -58 -144l54 -3h162c94 0 141 -12.333 141 -37l3 -42c0 -82.667 -60 -131.334 -180 -146.001c-50.667 -7.33301 -133 -11.666 -247 -12.999
c-33.333 -20.667 -79.666 -126.667 -138.999 -318c-60 -206 -117 -340.333 -171 -403c-48 -40.667 -95.333 -61 -142 -61c-64 9.33301 -96 21 -96 35c0 60.667 81.333 279.334 244 656.001l14 47c-38 19.333 -72.333 29 -103 29l-147 -11c-54.667 0 -102 31.333 -142 94
c9.33301 30.667 28.666 67.334 57.999 110.001c0 17.333 39.333 26 118 26c88 0 191.667 13 311 39c47.333 88.667 71 157.334 71 206.001c23.333 114.667 46 195.334 68 242.001c-89.333 -7.33301 -204.333 -11 -345 -11h-176c-126.667 0 -259 -9.66699 -397 -29h-18
c-45.333 0 -73.333 17 -84 51v42c0 18 -7.66699 31 -23 39c50.667 36 76 62.333 76 79c0 9.33301 150 25.333 450 48c356 31.333 630.333 47 823 47c12.667 -21.333 19 -59.333 19 -114z" />
    <glyph glyph-name="eight" unicode="8" horiz-adv-x="1324" 
d="M586 1642c246 0 436 -58.667 570 -176c33.333 -44.667 50 -94.667 50 -150c0 -112.667 -97 -234.667 -291 -366c-44.667 -29.333 -77.334 -58.666 -98.001 -87.999c28 -38 96 -89.667 204 -155c168.667 -96 253 -217.667 253 -365v-16
c0 -154.667 -86.667 -279.667 -260 -375c-74 -34 -148.333 -51 -223 -51h-46c-112.667 0 -182 24 -208 72c-23.333 14.667 -72.666 28.334 -147.999 41.001c-132.667 79.333 -199 187.666 -199 324.999v23c0 152 69 304.333 207 457v4
c-231.333 171.333 -347 329.666 -347 474.999v26c0 80 20.333 144.333 61 193c106 84 252.333 126 439 126h36zM323 1330c28 -100.667 87 -181 177 -241l116 -84c102 62 183 121.667 243 179l30 37v4c-21.333 0 -50.333 35 -87 105c-52.667 48 -122 72 -208 72h-41
c-93.333 0 -170 -22.667 -230 -68v-4zM450 375l-0.000976562 -10.999c0 -52.667 18 -89.334 54 -110.001c68 -58.667 146 -94 234 -106c8 -4.66699 26.667 -7 56 -7h45c82.667 0 139.334 35.333 170.001 106l5 63c0 96 -108.667 198 -326 306c-24.667 14 -56 37 -94 69
c-96 -104.667 -144 -208 -144 -310z" />
    <glyph glyph-name="nine" unicode="9" horiz-adv-x="1104" 
d="M831 1664c116 -4.66699 187.002 -37.332 213.002 -97.999v-3c0 -6 -16.667 -25 -50 -57l-4 -19h4c40 -20 60 -63 60 -129v-22c0 -54 -22.667 -190.333 -68 -409c-21.333 -170.667 -32 -301.667 -32 -393v-132c0 -208 21.333 -355 64 -441
c-30.667 -74 -77.334 -111 -140.001 -111c-72.667 0 -127 48 -163 144c-13.333 78.667 -20 156.667 -20 234l32 612l-4 4v3c-120.667 -70.667 -210.334 -118.334 -269.001 -143.001c-40.667 -17.333 -80.667 -26 -120 -26h-20c-124.667 0 -209 63.333 -253 190
c-7.33301 26 -11 51.667 -11 77v25c0 162 98.333 339.333 295 532c126.667 108 274 162 442 162h44zM314.002 916.002h35c116 0 229 73 339 219l87 106v12c0 22 16.333 72 49 150l4 27c-27.333 7.33301 -57.333 11 -90 11c-110.667 0 -211.667 -48 -303 -144
c-83.333 -100.667 -125 -209.667 -125 -327z" />
    <glyph glyph-name="colon" unicode=":" horiz-adv-x="424" 
d="M243 981c84 -10.667 126 -44.667 126 -102v-17c0 -78 -54.333 -128.333 -163 -151h-31c-52 0 -93.667 26.667 -125 80v38c0 88 57.333 138.667 172 152h21zM255 367c79.333 -18 119 -49 119 -93v-24c0 -72.667 -52 -131.334 -156 -176.001l-39 -4
c-70.667 0 -111 41.667 -121 125c0 70.667 33.667 122.334 101 155.001z" />
    <glyph glyph-name="semicolon" unicode=";" horiz-adv-x="557" 
d="M339 1016c79.333 -10 119 -45.001 119 -105.001v-18c0 -82 -57.333 -134.667 -172 -158h-35c-45.333 0 -72 16.333 -80 49c-22 38.667 -33 65.334 -33 80.001c0 68.667 45 118 135 148zM357 443.999c49.333 0 94.999 -15 136.999 -45c8.66699 -12 13 -29 13 -51
c0 -112 -82.667 -293.667 -248 -545c-23.333 -14.667 -42.333 -22 -57 -22h-23c-42 0 -85 45 -129 135c62.667 232 110.334 374.667 143.001 428c42.667 66.667 96 100 160 100h4z" />
    <glyph glyph-name="semicolon" unicode="&#x37e;" horiz-adv-x="557" 
d="M339 1016c79.333 -10 119 -45.001 119 -105.001v-18c0 -82 -57.333 -134.667 -172 -158h-35c-45.333 0 -72 16.333 -80 49c-22 38.667 -33 65.334 -33 80.001c0 68.667 45 118 135 148zM357 443.999c49.333 0 94.999 -15 136.999 -45c8.66699 -12 13 -29 13 -51
c0 -112 -82.667 -293.667 -248 -545c-23.333 -14.667 -42.333 -22 -57 -22h-23c-42 0 -85 45 -129 135c62.667 232 110.334 374.667 143.001 428c42.667 66.667 96 100 160 100h4z" />
    <glyph glyph-name="less" unicode="&#x3c;" horiz-adv-x="1161" 
d="M861 1206c57.333 -30 86.001 -78.999 86.001 -146.999c0 -48 -13.667 -77.333 -41 -88c-104 -61.333 -253.333 -143.333 -448 -246l-97 -63v-5c142 -77.333 390.667 -253.333 746 -528l4 -2v-25c0 -60 -45.667 -103 -137 -129l-31 -4
c-76.667 48 -258.334 176.333 -545.001 385c-70.667 46.667 -154.667 94.667 -252 144c-64 35.333 -96 84.333 -96 147v29c0 60 43.667 113.333 131 160c105.333 73.333 280 170.666 524 291.999z" />
    <glyph glyph-name="equal" unicode="=" horiz-adv-x="1216" 
d="M361 999c135.333 0 395.668 -14.333 781.001 -43c16 -24 24 -45 24 -63v-16c0 -52 -28 -98 -84 -138l-680 33l-235 -16c-78 0 -117 23.667 -117 71v9c0 62.667 37.667 113 113 151c53.333 8 103.666 12 150.999 12h47zM390.002 563c147.333 0 383.667 -17 709 -51
c12 -30 18 -52.667 18 -68c0 -57.333 -25.333 -104.333 -76 -141l-10 -4l-596 33l-221 -13c-56 7.33301 -84 28 -84 62v31c22 95.333 69.667 143 143 143z" />
    <glyph glyph-name="greater" unicode="&#x3e;" horiz-adv-x="1161" 
d="M961 819c100 -61.333 149.998 -117.333 149.998 -168v-35c0 -78.667 -54 -138.667 -162 -180c-134 -70.667 -334 -207.667 -600 -411c-83.333 -56 -128.333 -84 -135 -84c-109.333 16 -164 63.667 -164 143v8c10.667 14 149.334 119.333 416.001 316
c207.333 147.333 318 221 332 221v4c-75.333 52 -232.666 140 -471.999 264c-69.333 39.333 -104 66 -104 80c-5.33301 12 -8 30.333 -8 55c0 70 29.333 118 88 144c224 -110.667 443.667 -229.667 659 -357z" />
    <glyph glyph-name="question" unicode="?" horiz-adv-x="1267" 
d="M437 1966c280 0 517.666 -89.332 712.999 -267.999c44.667 -46.667 67 -74.667 67 -84c0 -252.667 -176.667 -412.334 -530 -479.001l-285 -54c28.667 -229.333 43 -362.333 43 -399v-20c0 -90.667 -11.667 -136 -35 -136c-39.333 -38 -88.333 -63 -147 -75
c-10.667 1.33301 -44 27.666 -100 78.999l8 72c0 74 -33.667 233.667 -101 479l-4 76c0 87.333 31 150.333 93 189c488.667 42 751.334 95 788.001 159c0 36 -99 88.667 -297 158c-126.667 39.333 -227.667 59 -303 59c-42.667 0 -98.667 -22.333 -168 -67l-33 -4
c-53.333 0 -85.333 38 -96 114v21c0 28.667 30.667 70.334 92 125.001c6.66699 20.667 19 31 37 31c80.667 16 155 24 223 24h35zM360.999 82.001c67.333 0 106.333 -28.001 117 -84.001v-41c0 -83.333 -36.333 -142.666 -109 -177.999l-51 -8
c-74.667 8 -112 44.667 -112 110v8c0 96 45.667 159 137 189z" />
    <glyph glyph-name="at" unicode="@" horiz-adv-x="1722" 
d="M886 1276c194.667 0 326.331 -75.001 394.998 -225.001c58.667 -150.667 88 -286 88 -406v-45c0 -136.667 -52 -229.334 -156 -278.001c-38 -15.333 -80.333 -23 -127 -23c-103.333 0 -187.333 98.333 -252 295l-12 10c-109.333 -182.667 -206.333 -274 -291 -274l-22 -4
c-84.667 10.667 -127 50 -127 118v25c0 92.667 64.667 206 194 340c63.333 40.667 145.333 86.334 246 137.001c0 6.66699 15 10.667 45 12h14c38.667 0 63.334 -66.667 74.001 -200c28.667 -112 63.667 -181.667 105 -209c14.667 -11.333 33.667 -20.333 57 -27
c45.333 11.333 68 55 68 131l2 27c0 126.667 -29.333 234.667 -88 324c-60.667 64 -136.667 96 -228 96c-173.333 0 -303.666 -25.333 -390.999 -76c-129.333 -113.333 -194 -271.666 -194 -474.999c0 -186 72.333 -309.667 217 -371c147.333 -58.667 267.333 -88 360 -88
h18c183.333 0 353.333 68.333 510 205c33.333 39.333 60 80.333 80 123c24.667 20.667 52.667 31 84 31c78 -10 117 -39 117 -87v-4c-5.33301 -46 -45 -112.667 -119 -200c-202 -172 -441.667 -258 -719 -258h-4c-206 0 -400.333 58.667 -583 176
c-131.333 114.667 -197 266 -197 454v43c0 228 75 421.333 225 580c94.667 82 292 123 592 123h19zM545.997 484.999h12c39.333 0 100 70.333 182 211c8 11.333 16.333 38 25 80l-6 6c-142 -92.667 -213 -188 -213 -286v-11z" />
    <glyph glyph-name="A" unicode="A" horiz-adv-x="1939" 
d="M1119 1829c68 0 150.669 -48.6641 248.002 -145.997v-38c0 -176.667 60 -438.334 180 -785.001l43 -4l160 8c50.667 0 76 -15 76 -45c10.667 -2.66699 16 -6 16 -10c0 -69.333 -43.667 -115 -131 -137l-84 -21c113.333 -289.333 215.666 -485.333 306.999 -588
c70 -65.333 105 -128 105 -188c0 -32.667 -16.667 -56.667 -50 -72c0 -8 -19.667 -15.333 -59 -22h-25c-86 0 -192.333 144 -319 432c-69.333 121.333 -136.333 261.333 -201 420l-123 8c-360 -22 -540 -55.333 -540 -100
c-20.667 -20.667 -71.334 -118.334 -152.001 -293.001c-49.333 -72.667 -104 -109 -164 -109h-24c-57.333 0 -91 15 -101 45l-8 64c0 28.667 12.333 92.667 37 192c0 11.333 -67 28.666 -201 51.999c-39.333 18.667 -59 39.667 -59 63c18 38 55.667 70 113 96l282 84
c20.667 5.33301 53 44.333 97 117c148.667 234.667 257 430.667 325 588c31.333 73.333 65.666 168 102.999 284c32.667 70 78.334 105 137.001 105h12zM1127 1251c-106 -164.667 -184.999 -304.667 -236.999 -420v-4h4c39.333 0 145.666 20.667 318.999 62l58 4
c-48 180 -85.667 289.333 -113 328z" />
    <glyph glyph-name="B" unicode="B" horiz-adv-x="1760" 
d="M405 1991c74 0 117.67 -34.9971 131.003 -104.997c0 -18.667 5.33301 -28 16 -28l500 -39c138 -26 235.667 -67.667 293 -125c34 -34.667 51 -60 51 -76v-4c-43.333 -139.333 -148.333 -267 -315 -383c-100 -61.333 -206.667 -132.333 -320 -213v-4l9 -8h6
c229.333 0 382.666 2.66699 459.999 8c257.333 -8.66699 401.666 -36.667 432.999 -84c27.333 -27.333 41 -59.333 41 -96v-21c0 -120 -91 -250.333 -273 -391c-195.333 -140.667 -365.333 -240.334 -510 -299.001c-144.667 -57.333 -230.667 -86 -258 -86h-2
c6.66699 -18 10 -35.667 10 -53c0 -44 -25.667 -81.667 -77 -113h-103c-32.667 6.66699 -61.334 30 -86.001 70l-18 20l-158 -27h-20c-38.667 0 -75.667 36.333 -111 109c-5.33301 9.33301 -8 27.666 -8 54.999c0 48 37.333 78.667 112 92c67.333 4.66699 101 13.667 101 27
l-47 502l-115 55l-25 117v18c0 19.333 36.333 55.666 109 108.999c-4 221.333 -10.333 405.666 -19 552.999l-75 -4c-123.333 0 -185 25 -185 75c-10.667 33.333 -16 57.333 -16 72v29c0 44.667 86.667 71.334 260 80.001l16 4v4c0 76.667 48 130 144 160h49zM509.003 1563
c7.33301 -92 13.666 -215 18.999 -369c48 22 137.333 76.667 268 164c78 56 146.333 112 205 168l20 33v8c-91.333 26 -191.666 39 -300.999 39c-56 0 -126.333 -5.66699 -211 -17v-26zM565.003 719.003l37.001 -413.999c259.333 97.333 458.666 197.666 597.999 300.999
c58.667 46.667 105.667 93 141 139c-83.333 8.66699 -157 13 -221 13h-19c-139.333 0 -318 -5.66699 -536 -17v-22z" />
    <glyph glyph-name="C" unicode="C" horiz-adv-x="2156" 
d="M1199 1829c124 -9.33301 185.998 -51.001 185.998 -125.001v-8c0 -86 -127.667 -157.667 -383 -215c-129.333 -54.667 -282.666 -162 -459.999 -322c-135.333 -148.667 -203 -292.667 -203 -432v-35c0 -195.333 137 -325 411 -389c72.667 -14.667 148.667 -22 228 -22
c289.333 0 535 94 737 282c40.667 27.333 133.667 114 279 260c133.333 117.333 248 176 344 176l8 -12v-6c0 -104 -57.333 -211.333 -172 -322c0 -14.667 -69 -93 -207 -235c-300.667 -282.667 -644.667 -424 -1032 -424c-385.333 0 -645.666 127 -780.999 381
c-69.333 110.667 -104 227.334 -104 350.001v29c0 285.333 209.667 576 629 872c215.333 131.333 379 197 491 197h29z" />
    <glyph glyph-name="D" unicode="D" horiz-adv-x="1979" 
d="M462 1763c73.333 0 116.333 -43.667 129 -131v-16c0 -20.667 -5.66699 -48.667 -17 -84c78 -53.333 236.333 -112 475 -176l633 -312c196.667 -103.333 295 -215 295 -335v-21c0 -230.667 -271.667 -428 -815 -592l-348 -80l4 -53c0 -13.333 -43.667 -33 -131 -59l-37 -4
c-22 0 -59.667 16.333 -113 49c-30 8 -132.333 15.333 -307 22c-57.333 15.333 -96.333 38.666 -117 69.999l-12 27c20.667 76 50 125 88 147l41 29c95.333 -23.333 155.333 -35 180 -35h21c-38.667 294.667 -75 550.667 -109 768c-13.333 99.333 -20 199 -20 299
c-35.333 28.667 -163 56.667 -383 84c-108 24.667 -162 66.334 -162 125.001v31c0 31.333 41.667 70 125 116l16 17c200.667 -53.333 327 -80 379 -80v8c0 98 44.333 158.667 133 182zM554 1212c0 -256.667 48.999 -579.332 146.999 -967.999h4
c213.333 35.333 384 77 512 125c236.667 92.667 369.334 156 398.001 190c36.667 39.333 55 72.666 55 99.999v17c0 86 -142.667 198 -428 336c-282.667 136.667 -508 205 -676 205h-12v-5z" />
    <glyph glyph-name="E" unicode="E" horiz-adv-x="1620" 
d="M1185 1817c54.667 0 94.998 -11.001 120.998 -33.001v-33c0 -146 -168.667 -237.333 -506 -274c-194 -18 -291 -34.667 -291 -50c-30 -80 -45 -178 -45 -294v-46c319.333 80.667 558.333 121 717 121c120 -4 180 -12 180 -24v-31c0 -18 7 -33 21 -45
c-33.333 -58.667 -105.666 -105 -216.999 -139c-93.333 -22 -264 -47.333 -512 -76c-66 -18 -120.667 -35.667 -164 -53c-4 -50.667 -6 -99.334 -6 -146.001c0 -151.333 23 -286.333 69 -405l45 -96l21 -5c82 0 237.667 54.667 467 164c237.333 104 426.333 156 567 156
c99.333 -5.33301 149 -13.666 149 -24.999v-131c0 -6.66699 -53 -17.667 -159 -33c-289.333 -70.667 -555 -201 -797 -391c-91.333 -58.667 -172.666 -88 -243.999 -88h-45c-99.333 0 -183.333 96.333 -252 289c-48.667 122.667 -78 323.334 -88 602.001
c-46 0 -95 20.667 -147 62v12c0 49.333 32 110 96 182c11.333 14 17 23.667 17 29l-5 45l13 278l4 4l-49 -4h-35c-80.667 0 -121 22 -121 66v39c0 105.333 95 179 285 221c4 0 27.667 24 71 72c8.66699 0 36.667 21 84 63h9c66.667 0 128.667 -33.333 186 -100h8
c80.667 0 211.667 30.667 393 92c45.333 16.667 92 25 140 25h20z" />
    <glyph glyph-name="F" unicode="F" horiz-adv-x="1493" 
d="M1246 1855c56 0 96.3311 -9.99902 120.998 -29.999v-33c0 -146 -166.667 -238 -500 -276c-198 -18 -297 -34 -297 -48c-28.667 -83.333 -43 -182.333 -43 -297v-43c312.667 79.333 551 119 715 119c120 -4 180 -11.333 180 -22v-33c0 -16.667 7 -31 21 -43
c-33.333 -60 -105.666 -107 -216.999 -141c-74 -18 -244.667 -43.333 -512 -76c-63.333 -16.667 -118 -33.667 -164 -51c-8.66699 -124.667 -13 -240 -13 -346c0 -97.333 3.66699 -186.333 11 -267c4 -70.667 33.333 -145.667 88 -225c8 -20.667 12 -39 12 -55
c0 -56 -45 -92.333 -135 -109h-33c-114.667 0 -176 153.667 -184 461l-21 436c-53.333 0 -101.666 18.333 -144.999 55v13c0 47.333 32 108.666 96 183.999c11.333 14 17 23.667 17 29l-5 43l13 280l4 4l-49 -4h-35c-80.667 0 -121 21.333 -121 64v41
c0 103.333 95 176.333 285 219c4 0 27.667 24 71 72c8.66699 0 36.667 21 84 63h9c66.667 0 129.334 -32.667 188.001 -98h8c79.333 0 209.666 30.667 390.999 92c49.333 14.667 96 22 140 22h20z" />
    <glyph glyph-name="G" unicode="G" horiz-adv-x="1636" 
d="M679 1985c169.333 0 310.666 -111.995 423.999 -335.995c36.667 -100 55 -172.333 55 -217c-54.667 -71.333 -86.667 -109.666 -96 -114.999c-24.667 -16.667 -41.667 -25 -51 -25h-5c-39.333 0 -90.333 70.333 -153 211c-35.333 102.667 -81.666 167 -138.999 193
l-21 12c-86 -22 -149.333 -61 -190 -117c-108 -129.333 -162 -313 -162 -551v-41c0 -354.667 100.333 -654.334 301 -899.001c62.667 -66.667 126.667 -100 192 -100c150.667 0 288 183 412 549c24.667 76.667 50 188.667 76 336c-79.333 -11.333 -237.666 -42 -474.999 -92
v12c0 26 -26 47 -78 63c-23.333 19.333 -35 36.666 -35 51.999v4c0 103.333 127.667 174.333 383 213c136.667 17.333 267.667 26 393 26c40 0 60 -7.33301 60 -22c9.33301 -42.667 14.666 -88.334 15.999 -137.001c0 -184.667 -82.667 -463.334 -248 -836.001
c-92.667 -184.667 -221 -312.334 -385 -383.001c-34 -16.667 -70.667 -25 -110 -25h-13c-144.667 0 -286 64.333 -424 193c-237.333 315.333 -356 649.666 -356 1003v43c0 338.667 86.667 614 260 826c106.667 106.667 220 160 340 160h29z" />
    <glyph glyph-name="H" unicode="H" horiz-adv-x="1611" 
d="M1205 2247c79.333 0 124.333 -28 135 -84c6.66699 -8.66699 11 -35.334 13 -80.001l16 -293c0 -252.667 -0.666992 -546.334 -2 -881.001c8 -70.667 17.667 -106 29 -106c279.333 -34 429.333 -91.333 450 -172c0 -67.333 -41.667 -101 -125 -101h-24
c-204 7.33301 -306 16.333 -306 27v4l-8 -6c6.66699 0 10 -33.333 10 -100v-37c8.66699 -62.667 26.667 -312 54 -748l4 -45c-32.667 -36.667 -83.334 -55 -152.001 -55c-74.667 0 -112 15.667 -112 47c-20.667 136.667 -42 385 -64 745
c-9.33301 109.333 -17.333 165.333 -24 168l-82 5l-410 -17c12 -198 18 -325 18 -381v-33c0 -124 -21.667 -186 -65 -186l-121 8l-47 -8c-28.667 0 -43 64.333 -43 193c0 28.667 0.666992 61.334 2 98.001c-6.66699 191.333 -17 291 -31 299l-26 -6l-41 -4
c-97.333 0 -160.333 21 -189 63c-9.33301 14 -14 27.667 -14 41c2.66699 92.667 19 139 49 139h144c43.333 2.66699 65 8.33398 65 17.001c-1.33301 356 -11.666 736 -30.999 1140v9c15.333 188 47.666 282 96.999 282l47 4c83.333 -1.33301 125 -15.666 125 -42.999
c17.333 -18.667 26 -45 26 -79l-6 -177c0 -210 2.66699 -550 8 -1020l13 -108h24c210.667 0 373.334 12.333 488.001 37c-11.333 641.333 -22.333 1051.67 -33 1231v32c0 101.333 34 161.666 102 181h37z" />
    <glyph glyph-name="I" unicode="I" horiz-adv-x="405" 
d="M190 2005c78 0 132.667 -44.334 164 -133.001v-14l-35 -133c-8 -65.333 -12 -132.333 -12 -201v-98c0 -154.667 5.66699 -541.667 17 -1161l30 -328c-30 -42.667 -79 -64 -147 -64c-72.667 7.33301 -109 23.333 -109 48c-31.333 774 -47 1270 -47 1488
c-5.33301 0 -8 82.667 -8 248v189c0 58.667 6.66699 95.334 20 110.001c36 32.667 72.333 49 109 49h18z" />
    <glyph glyph-name="J" unicode="J" horiz-adv-x="1343" 
d="M1088 2087c37.333 0 80.999 -17.6689 130.999 -53.002l52 -967c14.667 -177.333 22 -309 22 -395c-5.33301 -295.333 -73 -544.666 -203 -747.999c-70.667 -136.667 -160 -205 -268 -205h-33c-128 0 -252.667 81.333 -374 244c-67.333 75.333 -138.333 181.333 -213 318
c-101.333 274 -152 474 -152 600v26c0 102.667 28 154 84 154h37c92.667 0 164.334 -50 215.001 -150l8 -43c0 -28.667 -15 -62 -45 -100c48 -266 155.333 -485.667 322 -659l127 -84c142 134.667 215.667 372.667 221 714c0 232 -17 592 -51 1080l-9 110
c15.333 92.667 50.333 145.334 105 158.001h24z" />
    <glyph glyph-name="K" unicode="K" horiz-adv-x="1662" 
d="M482 1835c70 0 105 -20.334 105 -61.001v-76c0 -27.333 -18 -147.666 -54 -360.999l-4 -88c209.333 87.333 427.333 206.333 654 357l163 125c127.333 -12.667 191 -43.667 191 -93v-24c0 -60 -108 -146.667 -324 -260c-98 -64.667 -278.667 -170 -542 -316
c-12.667 0 -60 -19.667 -142 -59l-8 -61c0 -66 50 -122 150 -168c263.333 -206.667 466.666 -349.334 609.999 -428.001c146 -90.667 253 -136 321 -136c130 -2.66699 195 -14.667 195 -36c24.667 -16.667 37 -49 37 -97c-78 -36.667 -152.333 -55 -223 -55h-37
c-187.333 0 -443.333 121.333 -768 364c-138 88 -214 132 -228 132l-4 -21v-18c0 -40 15.667 -187 47 -441v-92c-26 -34 -62 -51 -108 -51h-23c-61.333 6.66699 -93.333 22.334 -96 47.001l-72 528c-5.33301 168 -23 260.333 -53 277
c-13.333 19.333 -70.666 64.333 -171.999 135c-31.333 34 -47 70.333 -47 109v30c0 26 61.333 62.333 184 109l68 47l-4 82v90c0 142 25.333 305.333 76 490c21.333 13.333 45 20 71 20h37z" />
    <glyph glyph-name="L" unicode="L" horiz-adv-x="1692" 
d="M202 1751c64 0 107.003 -18.333 129.003 -55c10.667 -22 16 -39 16 -51v-17l-33 -239l-8 -193c0 -181.333 33.333 -531 100 -1049c117.333 26 253.333 76.667 408 152c352 102.667 626.333 154 823 154c76.667 0 139.667 -9.66699 189 -29l-4 -148
c0 -6.66699 -54.667 -16 -164 -28c-196.667 -45.333 -342.334 -77.333 -437.001 -96c-156.667 -37.333 -319 -88 -487 -152c-138 -54.667 -261 -95 -369 -121c-137.333 11.333 -206 29 -206 53c-72.667 442.667 -109 890.667 -109 1344v223l4 162
c15.333 8 29.666 29 42.999 63c27.333 18 50.666 27 69.999 27h35z" />
    <glyph glyph-name="M" unicode="M" horiz-adv-x="2213" 
d="M1518 1987c49.333 -53.333 95.998 -155.334 139.998 -306.001c42 -174.667 126 -432 252 -772c156.667 -490 307.334 -832.667 452 -1028c16.667 -24.667 26.334 -48.334 29.001 -71.001v-13c-16.667 -68 -51.667 -102 -105 -102l-36 -4
c-112 0 -213.333 120.667 -304 362c-87.333 183.333 -228.333 550 -423 1100l-58 145h-4c-39.333 -156.667 -87 -424.667 -143 -804c-82 -356.667 -123 -590.334 -123 -701.001c-30 -8 -45 -26.333 -45 -55c0 -9.33301 -43.667 -22.333 -131 -39h-41c-30 0 -50 17 -60 51
c-24.667 54.667 -47 172 -67 352l-117 664c-44 178.667 -93 321.334 -147 428.001l-17 29h-4c-46.667 -123.333 -100 -374.666 -160 -753.999c-30 -169.333 -62 -271.666 -96 -306.999c-30 -28.667 -66 -43 -108 -43h-27c-52 0 -78 15.667 -78 47c-12 48 -18 94.333 -18 139
l8 238c0 27.333 -12.333 100.333 -37 219v29c0 73.333 43 110 129 110l14 -4c30 62.667 78.667 228.667 146 498c62.667 194 145.334 291 248.001 291c125.333 0 233 -170.667 323 -512c34 -104 77.667 -292 131 -564h4c48 117.333 91 288 129 512
c62 430 120.667 715.333 176 856l101 9h67z" />
    <glyph glyph-name="N" unicode="N" horiz-adv-x="1403" 
d="M1207 1987c68.667 0 115.666 -37.6641 140.999 -112.997l5 -29c-15.333 -64 -23 -113.667 -23 -149l-16 -910c0 -258 13 -503.667 39 -737v-51c0 -120 -22.667 -180 -68 -180l-80 -8c-138 0 -274.667 114.667 -410 344c-36.667 54.667 -129.334 217 -278.001 487
l-182 324l-4 -191c-4.66699 -48 -7 -110 -7 -186c0 -110.667 4.33301 -251.334 13 -422.001c-4 -139.333 -12.333 -209 -25 -209c-30 -20.667 -71.667 -31 -125 -31h-18c-44 0 -69.333 11.667 -76 35c-27.333 65.333 -41 133.666 -41 204.999v45
c0 208.667 -0.666992 434 -2 676c8 95.333 14.667 238 20 428c14 105.333 36.667 179.666 68 222.999l4 4l4 -4h92l60 4c136.667 -144.667 270.334 -398 401.001 -760c102.667 -234.667 200.334 -404 293.001 -508l59 -63h5l24 1726c35.333 33.333 73 50 113 50h14z" />
    <glyph glyph-name="O" unicode="O" horiz-adv-x="1325" 
d="M658 1878c254 0 450.001 -292.333 588.001 -877c19.333 -107.333 29 -208.333 29 -303v-16c0 -226.667 -50 -414.334 -150 -563.001c-120 -139.333 -253 -209 -399 -209h-43c-170.667 0 -323 100.333 -457 301c-117.333 202 -176 430.667 -176 686v61
c0 318.667 60 579 180 781c61.333 62.667 124.333 99.334 189 110.001c95.333 19.333 169.666 29 222.999 29h16zM449.001 1501l-14 0.000976562c-18 -4 -37 -61.333 -57 -172c-34.667 -122.667 -52 -246.334 -52 -371.001v-8c0 -378 95.667 -621 287 -729
c44 -17.333 81.667 -26 113 -26h16c102.667 0 188 77 256 231c14 54.667 21 129 21 223v49c0 238 -53.333 474.333 -160 709c-91.333 140.667 -166.333 211 -225 211h-13c-40.667 0 -74.667 -42.333 -102 -127z" />
    <glyph glyph-name="P" unicode="P" horiz-adv-x="1603" 
d="M425 1987c65.333 0 107.002 -29.6689 125.002 -89.002c0 -24 13 -36 39 -36c237.333 -53.333 466.666 -138.666 687.999 -255.999c184 -92 276 -215.667 276 -371v-16c0 -176.667 -85.333 -336 -256 -478c-130.667 -96.667 -274.667 -180.667 -432 -252l-332 -75
c0 -216 10.333 -374.333 31 -475v-37c0 -106.667 -29.333 -171 -88 -193c-109.333 0 -176.333 140 -201 420c0 135.333 -7.33301 214 -22 236l-43 -3c-18 14 -33 49.667 -45 107l-11 12v8c0 10 37 42.333 111 97c-8 178.667 -14.667 433.334 -20 764.001l-2 249
c-128.667 30.667 -193 56.667 -193 78v25c27.333 86 45.666 129 54.999 129l144 43c30 75.333 81 113 153 113h23zM525.002 1606c-1.33301 -198 -2 -366.001 -2 -504.001c0 -239.333 2.66699 -384.666 8 -435.999c220 61.333 383.333 124 490 188
c124 75.333 207.333 179 250 311c4 12.667 6 30.667 6 54v4c0 147.333 -250.667 275 -752 383z" />
    <glyph glyph-name="Q" unicode="Q" horiz-adv-x="1690" 
d="M757 1817c154 0 321.666 -152.335 502.999 -457.002c182 -292 273 -525.667 273 -701v-26c0 -124.667 -33.667 -251.667 -101 -381c57.333 -82 117.666 -142 180.999 -180c40.667 -18 93.667 -29.667 159 -35c30 -34 45 -81 45 -141
c-5.33301 -83.333 -27.666 -128.666 -66.999 -135.999h-49c-110.667 0 -226.667 63 -348 189l-99 67c-128 -74.667 -270.667 -112 -428 -112c-225.333 0 -420.666 68.333 -585.999 205c-126.667 133.333 -190 304 -190 512v43c0 286.667 93 605.334 279 956.001
c178.667 131.333 309.667 197 393 197h35zM688.999 1409v-11.999c0 -44 -11.667 -79 -35 -105h-8c-12 0 -41.333 25.333 -88 76c-9.33301 8 -21.666 12 -36.999 12c-88.667 0 -154.334 -228 -197.001 -684v-80c0 -233.333 112 -391 336 -473c68.667 -20 133 -30 193 -30
c86 0 162.333 25 229 75c-79.333 106.667 -202 227 -368 361c-136.667 112 -205 197.333 -205 256v6c14.667 88.667 59 133 133 133h8c65.333 0 166.333 -79.667 303 -239c4 0 73.667 -65.667 209 -197l72 -76h4c20.667 0 33.667 61.333 39 184v13
c0 195.333 -121 458.666 -363 789.999c-88.667 97.333 -169 146 -241 146c10.667 -72.667 16 -124.667 16 -156z" />
    <glyph glyph-name="R" unicode="R" horiz-adv-x="1979" 
d="M499 1769c77.333 0 115.998 -36.668 115.998 -110.001c100 0 425 -82 975 -246c109.333 -39.333 164 -81.666 164 -126.999v-8c0 -226.667 -155.667 -401.334 -467 -524.001c-117.333 -52 -216.333 -101.333 -297 -148c188.667 -90 493.334 -217 914.001 -381
c254.667 -86 423.667 -149.333 507 -190v-12c0 -89.333 -66.667 -141.333 -200 -156l-47 -4c-178 0 -537.333 137 -1078 411c-274 92 -438.333 138 -493 138l6 -340l4 -39c0 -101.333 -50.667 -155.333 -152 -162c-47.333 27.333 -86 89.333 -116 186l-31 394h-133
c-72.667 0 -109 26.333 -109 79c0 92 71 159.667 213 203v4c6 93.333 9 272.333 9 537v172h-37l-205 -21c-53.333 7.33301 -80 31.333 -80 72v21c0 84.667 120 136.334 360 155.001h17c28.667 64 76.334 96 143.001 96h17zM547.998 1241v-79.999
c0 -144.667 4.66699 -283.334 14 -416.001c314 70 536 141 666 213c107.333 71.333 184.333 146 231 224v4c-367.333 128 -578.333 192 -633 192c-94 20.667 -183.333 31 -268 31c-6.66699 -44 -10 -100 -10 -168z" />
    <glyph glyph-name="S" unicode="S" horiz-adv-x="1824" 
d="M859 1786c212.667 0 354.001 -46.3311 424.001 -138.998c6.66699 -16.667 10 -30.334 10 -41.001c0 -30 -36.667 -51.333 -110 -64c-12.667 -5.33301 -40.667 -8 -84 -8l-324 8c-98 0 -208 -53.333 -330 -160c-27.333 -30 -56.666 -70 -87.999 -120
c42.667 -62 105.667 -106 189 -132c137.333 -46 358.333 -115.333 663 -208c376.667 -116 565 -253.333 565 -412v-29c0 -204.667 -262.667 -372.667 -788 -504c-146 -31.333 -275 -47 -387 -47c-254 0 -413 54.667 -477 164c-16.667 35.333 -25 70.333 -25 105
c0 108.667 60 198.667 180 270c44 22 85.667 33 125 33c8.66699 -20.667 13 -44.667 13 -72l-25 -201c101.333 -28.667 201.666 -43 300.999 -43c254 0 484 64.333 690 193c35.333 27.333 66 56.666 92 87.999c-68 76.667 -138.333 130 -211 160
c-103.333 50 -346.333 125.667 -729 227c-322 105.333 -483 231 -483 377v26c0 148 124.333 291 373 429c125.333 66.667 255.666 100 390.999 100h45z" />
    <glyph glyph-name="T" unicode="T" horiz-adv-x="1415" 
d="M1511 1698c94 0 154.666 -24 181.999 -72l4 -33c0 -95.333 -193 -164.333 -579 -207l-164 5l-43 -5c-22 -152.667 -33 -291 -33 -415l37 -738v-219c0 -47.333 -11 -75.333 -33 -84c-74 -27.333 -136.667 -41 -188 -41c-62 187.333 -93 426.333 -93 717
c-8 109.333 -12 213.333 -12 312l8 423c-38 16.667 -95.333 25 -172 25l-407 -12h-72c-117.333 0 -176 18.333 -176 55v25c0 52.667 34.667 101.667 104 147c202.667 35.333 453.334 53 752.001 53c207.333 0 451 20 731 60z" />
    <glyph glyph-name="U" unicode="U" 
d="M1021 2038c27.333 -32.667 62.001 -119.33 104.001 -259.997c78 -276 117 -546.333 117 -811c0 -412.667 -89.333 -711.667 -268 -897c-116 -93.333 -233.667 -140 -353 -140c-180 0 -315.667 105.333 -407 316c-109.333 211.333 -164 479.666 -164 804.999v63
c0 258 36.333 487.333 109 688c5.33301 5.33301 46 12.333 122 21c70 0 105 -33.667 105 -101l-45 -225c-12.667 -102.667 -20.334 -217.334 -23.001 -344.001c0 -508 101 -830.333 303 -967l50 -12c66.667 0 136.667 67 210 201c56 135.333 84 308.666 84 519.999v35
c0 408 -49 729.333 -147 964c-5.33301 10 -8 24.333 -8 43v17c0 47.333 30.667 75.333 92 84h119z" />
    <glyph glyph-name="V" unicode="V" horiz-adv-x="1530" 
d="M1613 2152l12.0029 -20c0 -54.667 -89.333 -241 -268 -559c-64.667 -118.667 -147.334 -391 -248.001 -817c-104 -299.333 -156 -496.666 -156 -591.999c-26 -202 -91.333 -303 -196 -303c-46.667 0 -77.667 11.667 -93 35c-46 74.667 -84 164 -114 268
c-44 169.333 -92.667 302.333 -146 399c-128 212 -226.333 400.333 -295 565c-39.333 123.333 -59 224.666 -59 303.999v49c15.333 8 36.333 29 63 63l43 4h37c72.667 0 113 -22.333 121 -67c67.333 -187.333 143.333 -360.666 228 -519.999l196 -369
c12.667 19.333 49.667 121.666 111 306.999c182.667 583.333 345.667 976 489 1178c75.333 78.667 132.666 118 171.999 118c19.333 -13.333 53.666 -27.666 102.999 -43z" />
    <glyph glyph-name="W" unicode="W" horiz-adv-x="1833" 
d="M1625 2241c52 -54.667 91.001 -116.332 117.001 -184.999c27.333 -308.667 41 -581.667 41 -819v-29c0 -443.333 -39 -857 -117 -1241c-28.667 -84.667 -70.334 -142 -125.001 -172c-30 -9.33301 -62.667 -14 -98 -14c-150.667 132.667 -252.667 257.667 -306 375
c-70.667 129.333 -173 362.666 -307 699.999l-41 88h-4c-35.333 -82 -63.333 -272.333 -84 -571c0 -154.667 -22.333 -325.334 -67 -512.001c-14 -46.667 -26.333 -70 -37 -70l-90 -6c-80.667 0 -121 21 -121 63c-224 590 -336 1067.33 -336 1432v59
c0 172 46.333 280.667 139 326l33 2c39.333 0 80.333 -17 123 -51v-432c0 -225.333 26 -411.666 78 -558.999h2c58.667 176 88 307.667 88 395c31.333 230.667 63.333 387 96 469c28.667 82 60.667 123 96 123l33 4c27.333 0 79.333 -20 156 -60
c169.333 -598 340 -1039.67 512 -1325v-4h4c66.667 264 100 549.333 100 856v164c0 243.333 -19 549.333 -57 918c19.333 18.667 69 37 149 55z" />
    <glyph glyph-name="X" unicode="X" horiz-adv-x="1624" 
d="M1570 1538l4.00195 -25c0 -76 -60.333 -157 -181 -243c-230.667 -248.667 -379.334 -430.334 -446.001 -545.001l-25 -31c37.333 -64 118.666 -153.333 243.999 -268c83.333 -61.333 168.666 -97.666 255.999 -108.999l101 -110c0 -60 -33.667 -103 -101 -129l-45 -39
c-79.333 0 -191.333 47.667 -336 143c-60 49.333 -152.667 136 -278 260c-126 -110.667 -215.667 -206.667 -269 -288c-69.333 -100 -125.333 -198.333 -168 -295c0 -11.333 -21 -23.666 -63 -36.999c-35.333 -22 -62.666 -33 -81.999 -33h-31c-56 0 -89.333 39 -100 117v20
c0 78 69.667 199.667 209 365c152.667 186.667 244 313 274 379c-4 27.333 -83.667 123.333 -239 288c-149.333 182 -224 315.333 -224 400v37c0 57.333 32.333 103.666 97 138.999h4c109.333 -16.667 164 -38 164 -64c64 -140 156.667 -292 278 -456l96 -113h5l372 449
c152 162 250.333 256.667 295 284c126 -23.333 189 -55.333 189 -96z" />
    <glyph glyph-name="Y" unicode="Y" horiz-adv-x="1634" 
d="M1176 2040l41.001 -15.001h62c49.333 0 74 -25 74 -75c39.333 -179.333 87.666 -498.333 144.999 -957c57.333 -340 86 -660.667 86 -962v-60c0 -258 -83.333 -501 -250 -729c-116 -139.333 -256.667 -209 -422 -209h-10c-276 0 -516.333 176.333 -721 529
c-87.333 156.667 -131 308.667 -131 456v27c0 125.333 45.667 215.333 137 270l27 2c8 0 17.667 -9.33301 29 -28h20c13.333 0 30.333 -76 51 -228c35.333 -173.333 73 -297.333 113 -372c164 -292.667 314 -439 450 -439c70 0 152.667 53.333 248 160
c127.333 170.667 191 420 191 748c-10 308.667 -30 476.667 -60 504c-18.667 74.667 -44 237.667 -76 489c-4 0 -46 -73 -126 -219c-165.333 -284 -363.333 -426 -594 -426c-150.667 0 -246.334 59.333 -287.001 178c-12.667 52 -19 112.667 -19 182
c0 178 65 412.333 195 703c56 94 114 141 174 141h23c54.667 0 97 -23.333 127 -70l8 -45c0 -32.667 -26 -91.334 -78 -176.001c-80.667 -181.333 -121 -350.666 -121 -507.999c6.66699 -94 11.334 -141 14.001 -141c112 32.667 229.667 158.334 353 377.001
c50 95.333 101.667 235.333 155 420c28.667 110.667 54 245.667 76 405c6.66699 8.66699 17 13 31 13l59 55h6zM484.001 1851l10 4v-12l-10 4v4z" />
    <glyph glyph-name="Z" unicode="Z" horiz-adv-x="2385" 
d="M2177 1759c21.333 0 32.001 -12.334 32.001 -37.001c19.333 -30 29 -63.333 29 -100v-14c-162.667 -104 -322.334 -229.667 -479.001 -377c-240.667 -240.667 -444 -415.334 -610 -524.001l-625 -467l90 -4c330.667 -8.66699 627.667 -18.334 891 -29.001l684 -80
l401 -64c78 -32.667 117 -74 117 -124v-21c0 -57.333 -30.667 -99.666 -92 -126.999l-47 -4c-242 64 -453 96 -633 96h-18c-138 32.667 -399.667 59.334 -785 80.001l-545 12c-48.667 4.66699 -96.334 7 -143.001 7c-143.333 0 -276.333 -22 -399 -66l-62 -6h-22
c-53.333 0 -89.666 28 -108.999 84l-8 59v17c0 65.333 93.667 132 281 200c272.667 172 551 366.667 835 584c164 117.333 382.667 304.333 656 561h-11c-169.333 0 -508.666 -35.333 -1018 -106l-256 -54c-52.667 52 -79 113 -79 183c0 66.667 29.333 107 88 121
c28.667 -6 73 -9 133 -9h59c121.333 0 373.333 32.333 756 97c280 22.667 486.667 42.334 620 59.001c131.333 35.333 215.333 53 251.999 53h17z" />
    <glyph glyph-name="bracketleft" unicode="[" horiz-adv-x="1011" 
d="M369 1985l465 -29.001c18 -34 27 -66.667 27 -98c0 -30.667 -21 -91 -63 -181c-341.333 -5.33301 -512 -18.333 -512 -39c-26 -121.333 -39 -257.666 -39 -408.999c0 -105.333 17 -410 51 -914v-92l-12 -49c39.333 -61.333 145 -92 317 -92h164
c103.333 0 155 -8.33301 155 -25c26 -38 39 -70 39 -96v-29c0 -48.667 -13 -73 -39 -73c-70.667 -49.333 -181 -74 -331 -74h-13c-142 0 -288.667 15 -440 45c-58.667 402.667 -88 841 -88 1315v137l37 322c0 198 34 315.333 102 352c38.667 19.333 86 29 142 29h38z" />
    <glyph glyph-name="backslash" unicode="\" horiz-adv-x="1849" 
d="M163 1747c30 -8 82.999 -30 158.999 -66c48 -92.667 184 -259 408 -499c522.667 -510.667 784 -777 784 -799c63.333 -79.333 119.333 -138 168 -176c78 -118.667 117 -219 117 -301c-28.667 -37.333 -60.667 -56 -96 -56h-17c-65.333 0 -146.333 73.333 -243 220
c-109.333 133.333 -375 400 -797 800c-296 306 -472 516.333 -528 631c-7.33301 6.66699 -30 43 -68 109v20c6.66699 11.333 15 17 25 17l-5 12c8.66699 18 20.334 27 35.001 27l41 -9l-8 41c0 15.333 5.33301 25 16 29h9z" />
    <glyph glyph-name="bracketright" unicode="]" horiz-adv-x="1075" 
d="M986 1604l38.998 -322v-137c0 -474 -31.333 -912.333 -94 -1315c-162.667 -30 -319 -45 -469 -45h-15c-159.333 0 -277.333 24.667 -354 74c-28.667 0 -43 24.333 -43 73v29c0 26 14.333 58 43 96c0 16.667 55.333 25 166 25h176c184.667 0 297.334 30.667 338.001 92
l-12 49v92c35.333 524.667 53 829.334 53 914.001c0 144.667 -13.667 281 -41 409c0 20.667 -183 33.667 -549 39c-45.333 93.333 -68 153.666 -68 180.999c0 31.333 10.333 64 31 98l496 29h43c58.667 0 108.334 -9.66699 149.001 -29c74 -36.667 111 -154 111 -352z" />
    <glyph glyph-name="asciicircum" unicode="^" horiz-adv-x="944" 
d="M562 1972c40.667 -80.667 141.667 -235.669 303 -465.002c19.333 -27.333 29 -45.666 29 -54.999l-21 -68l8 -32l-4 -4h-4c0 4 -9.33301 9.33301 -28 16l-64 -21c-20.667 0 -69.667 44.667 -147 134c-46.667 72 -91.667 129.333 -135 172
c-158.667 -130 -244 -233.333 -256 -310c0 -22.667 -47.333 -34 -142 -34l-24 -5c-18 26 -27 55.667 -27 89v16c0 66.667 69 165 207 295c39.333 40.667 89 114.334 149 221.001c30 34 65.667 51 107 51h49z" />
    <glyph glyph-name="underscore" unicode="_" horiz-adv-x="1890" 
d="M570 -213c76.667 0 334.667 -16.334 774 -49.001l119 -4c54.667 0 138.667 6.66699 252 20c83.333 0 125 -51.667 125 -155c-19.333 -36 -65 -71 -137 -105c-18 -9.33301 -51 -17.333 -99 -24c-28.667 2.66699 -47 6.66699 -55 12c-50.667 -8 -112 -12 -184 -12h-68
c-46 0 -280 13.667 -702 41h-88c-118.667 0 -234.667 -12.333 -348 -37l-107 71l-2 4v21c8 22 18.333 33 31 33c-20.667 20 -31 37 -31 51c0 6.66699 4 16.334 12 29.001l-4 18c0 30 115.333 57.333 346 82z" />
    <glyph glyph-name="grave" unicode="`" horiz-adv-x="652" 
d="M246 1920c58.667 -103.333 108 -176.667 148 -220c138.667 -129.333 208 -228 208 -296v-16c0 -30.667 -9.33301 -60 -28 -88l-24 4c-93.333 0 -140 12 -140 36c-12.667 78 -98 180.667 -256 308c-49.333 23.333 -84 91.333 -104 204l88 120c40 0 76 -17.333 108 -52z
" />
    <glyph glyph-name="a" unicode="a" horiz-adv-x="1192" 
d="M859 1090c52 0 87 -43.998 105 -131.998c0 -46 28 -195.333 84 -448c39.333 -140.667 96.666 -259.334 171.999 -356.001c44.667 -67.333 67 -119.333 67 -156v-25c0 -31.333 -19.667 -47 -59 -47c-38 -24.667 -64 -37 -78 -37c-74 27.333 -140.333 86.333 -199 177
c-30 57.333 -84.333 182.666 -163 375.999l-25 31c-96.667 -148.667 -180.667 -264 -252 -346c-87.333 -91.333 -187.666 -137 -300.999 -137c-108 0 -178.333 56 -211 168l-4 67c0 150.667 97.667 337.667 293 561c121.333 98.667 261.333 182.667 420 252
c43.333 34.667 87 52 131 52h20zM284 262.002h3.99902c64 0 128.667 56 194 168c120.667 148.667 181 264.667 181 348l-4 4h-9c-47.333 -14.667 -132.666 -85.667 -255.999 -213c-76 -96.667 -114 -197.667 -114 -303z" />
    <glyph glyph-name="b" unicode="b" horiz-adv-x="1220" 
d="M322 1987c48 0 76.001 -31 84.001 -93v-8c0 -14.667 -16.333 -85.667 -49 -213c-36.667 -218 -55 -394.667 -55 -530v-29l-4 -16l4 -17v-34c0 -84.667 11 -171.667 33 -261c113.333 138 260 207 440 207c138 -8 254.667 -22.333 350 -43c30 -76 45 -149.667 45 -221v-18
c0 -239.333 -129.667 -456 -389 -650c-144.667 -87.333 -280.334 -131 -407.001 -131h-25c-90 0 -175.333 39.667 -256 119c-20.667 68.667 -31 131.667 -31 189l13 260l-25 532v47c0 132.667 26.667 384 80 754c30 104 86 156 168 156h24zM382.001 207
c330 52 494.999 190.668 494.999 416.001l-4 59c-61.333 10.667 -107.666 16 -138.999 16c-158.667 0 -263.667 -92 -315 -276c-18 -54.667 -31.667 -126.334 -41 -215.001h4z" />
    <glyph glyph-name="c" unicode="c" horiz-adv-x="1105" 
d="M507 948c54.667 0 104.999 -15.0029 150.999 -45.0029c-5.33301 -9.33301 -8 -23.666 -8 -42.999l21 -51v-25c-23.333 -47.333 -73.333 -83.333 -150 -108c-78 -23.333 -128.667 -55.333 -152 -96c-28.667 -63.333 -43 -114 -43 -152v-25
c0 -77.333 45.333 -123.666 136 -138.999h57c90 0 244.333 49.333 463 148c94 39.333 155.333 59 184 59h8c46.667 -45.333 70.667 -79.333 72 -102c-2.66699 -15.333 -43 -59.666 -121 -132.999c-17.333 -37.333 -37 -56 -59 -56
c-247.333 -147.333 -457.666 -221 -630.999 -221c-187.333 0 -313 89.333 -377 268l-8 92v41c0 205.333 84 380.333 252 525c66.667 42 130.667 63 192 63h13z" />
    <glyph glyph-name="d" unicode="d" horiz-adv-x="1321" 
d="M892 1688c0 -20.667 16.999 -38.001 50.999 -52.001c24.667 -17.333 40.334 -122.333 47.001 -315l-2 -397c0 -191.333 66.333 -416.666 199 -675.999c53.333 -61.333 80 -106.333 80 -135l4 -29c0 -16.667 -22.667 -57 -68 -121h-63c-92 0 -157.667 61.333 -197 184
c-18 48 -48.667 95.333 -92 142c-34 -88.667 -108.333 -170.667 -223 -246c-134 -68 -286.333 -102 -457 -102c-67.333 48.667 -101 75 -101 79c-13.333 67.333 -20 114 -20 140v24c0 76.667 82 199.667 246 369c155.333 131.333 280.333 203 375 215
c32.667 15.333 49 38 49 68c-30 314 -45 523.333 -45 628v113l133 98c14.667 8.66699 27.667 13 39 13h45zM397.999 183.999c116 0 211 92.334 285 277.001c13.333 27.333 20 48.333 20 63c-126.667 -40.667 -218.667 -110.334 -276 -209.001
c-42.667 -70.667 -64 -113 -64 -127z" />
    <glyph glyph-name="e" unicode="e" horiz-adv-x="1188" 
d="M763 793c16 -57.333 24.002 -102 24.002 -134c0 -133.333 -103.667 -241 -311 -323v-4c56 -92.667 127.667 -139 215 -139c121.333 0 250.333 96.667 387 290c84.667 94.667 149 142 193 142h8l8 -9v-41l-4 -16c1.33301 -6.66699 6.66602 -11.334 15.999 -14.001
c18 0 29.667 14.333 35 43h8v-4c0 -45.333 -39.333 -120 -118 -224c-14 -24 -23.667 -50.333 -29 -79c-36.667 -8.66699 -55 -23.667 -55 -45c-75.333 -123.333 -186 -210.333 -332 -261c-48 -10.667 -87 -16 -117 -16h-41c-196.667 0 -390 142 -580 426l-20 324v30
c0 132.667 43 215.334 129 248.001c92.667 52 174 78 244 78c139.333 0 252.666 -90.667 339.999 -272zM367.002 504c30 0 76.667 23.668 140 71.001c10.667 33.333 16 60 16 80c0 80.667 -36 136.667 -108 168l-31 4c-41.333 0 -62 -13 -62 -39
c-14.667 -26.667 -22 -65.334 -22 -116.001c0 -79.333 22.333 -135.333 67 -168z" />
    <glyph glyph-name="f" unicode="f" horiz-adv-x="987" 
d="M497 1773c246 0 419.001 -135.334 519.001 -406.001c24 -70.667 36 -121 36 -151c-18.667 -56 -65 -84 -139 -84h-45l-39 -4c-27.333 109.333 -55.333 189 -84 239c-70.667 120.667 -136 181 -196 181h-17c-76 0 -121 -70.333 -135 -211l-20 -322
c86 -9.33301 273.667 -19.666 563 -30.999c83.333 -12 125 -22.667 125 -32c0 -12.667 8 -28.334 24 -47.001v-9c-18.667 0 -31 -15 -37 -45c-64 -47.333 -163 -71 -297 -71h-243c-54.667 0 -97 -5.66699 -127 -17c35.333 -483.333 71.333 -800 108 -950l-12 -8h-4
c-8 0 -21.667 6 -41 18l-31 -76h-20c-16.667 0 -48.667 16.667 -96 50c-32 0 -48 19.667 -48 59c-27.333 80.667 -53 329.667 -77 747c-10 86.667 -17.667 130 -23 130l-244 43c-32.667 14.667 -51.667 26.667 -57 36v115c0 8 28 16.333 84 25c78 35.333 142 53 192 53h5v4
c0 360.667 61.333 608.334 184 743.001c49.333 14 102.666 21 159.999 21h32z" />
    <glyph glyph-name="g" unicode="g" horiz-adv-x="1048" 
d="M679 946c129.333 0 227.667 -33.332 295 -99.999c16 -5.33301 24 -16.333 24 -33c-24.667 -16.667 -38.334 -28.334 -41.001 -35.001c16.667 -352 25 -614.667 25 -788c0 -334.667 -28 -546.334 -84 -635.001c-79.333 -164 -188.666 -246 -327.999 -246
c-130.667 0 -245.334 52.667 -344.001 158l-8 14v17c0 39.333 -35 102 -105 188c-28.667 49.333 -43 93 -43 131s10.333 65.333 31 82h17c12 0 33 -15 63 -45c32.667 0 49 -7 49 -21c24.667 -77.333 91.667 -154.333 201 -231c4 0 39.333 -24 106 -72
c54.667 14 102 51.667 142 113c44.667 90 67 217.667 67 383l-12 491l4 80c-30 -28.667 -91.333 -118 -184 -268c-75.333 -90 -149.666 -135 -222.999 -135h-29c-46.667 0 -100 30.667 -160 92c-44.667 28.667 -67 63.334 -67 104.001c-16.667 44 -25 96 -25 156v29
c0 224 114.667 396 344 516c86 36.667 170 55 252 55h33zM302.001 330.001l7.99805 -83.999c72.667 39.333 135.667 109 189 209c57.333 102 109 187.333 155 256c-1.33301 9.33301 -6.66602 14 -15.999 14c-61.333 0 -135.666 -35.667 -222.999 -107
c-75.333 -78.667 -113 -165.334 -113 -260.001v-28z" />
    <glyph glyph-name="h" unicode="h" horiz-adv-x="1124" 
d="M273 1591c46.667 -21.333 69.999 -38.333 69.999 -51c-44 -297.333 -66 -613.333 -66 -948l4 -127c45.333 35.333 108.333 167 189 395c34 75.333 67.333 113 100 113c49.333 28.667 83 43 101 43h20c30 0 54 -30.667 72 -92c34 -83.333 70.667 -250 110 -500
c31.333 -124 63.666 -214.667 96.999 -272c22.667 -41.333 57.334 -82.333 104.001 -123v-4c-34 -49.333 -70.333 -83 -109 -101c-56 0 -122 33.667 -198 101c-44 51.333 -80.333 124.333 -109 219l-63 301c-41.333 -53.333 -104.333 -187.333 -189 -402
c-50 -98 -100.333 -172.333 -151 -223h-29c-26 0 -60.667 22.667 -104 68l-39 20l4 39c0 38 -12.333 90.667 -37 158c6.66699 0 13.334 294 20.001 882c15.333 221.333 34 371 56 449c35.333 0 59 15.667 71 47v4c24.667 -12 44 -18 58 -18c6.66699 0 10 7.33301 10 22h8z
" />
    <glyph glyph-name="i" unicode="i" horiz-adv-x="415" 
d="M230 1524c68.667 0 109.667 -17.001 123 -51.001l12 -50c0 -51.333 -54.333 -86.666 -163 -105.999h-29c-79.333 5.33301 -119 29.333 -119 72l-4 16v22c20.667 64.667 72.667 97 156 97h24zM294 1075c31.333 -177.333 46.999 -363.666 46.999 -558.999v-117l-8 -432
c-22 -14.667 -54.333 -26.334 -97 -35.001l-30 -32h-4c-23.333 0 -44.666 17.667 -63.999 53c0 -16.667 -2.66699 -25 -8 -25c-41.333 36 -62 113.333 -62 232l37 491c-5.33301 64.667 -8 163.667 -8 297c0 112 39 168 117 168c53.333 0 80 -13.667 80 -41z" />
    <glyph glyph-name="j" unicode="j" horiz-adv-x="474" 
d="M297 1438c58.667 0 98.333 -19.999 119 -59.999l8 -37c0 -58.667 -57.333 -95.334 -172 -110.001h-29c-79.333 8 -119 39.333 -119 94c0 65.333 53.333 103 160 113h33zM363.999 1042c31.333 -181.333 46.999 -418.668 46.999 -712.001l-4 -105l9 -26
c0 -396 -28 -633.667 -84 -713c-79.333 -184.667 -195.666 -277 -348.999 -277h-4c-134.667 0 -252 52 -352 156c-14.667 15.333 -22 46 -22 92c-100 132.667 -150 222.334 -150 269.001v32c0 26 11 50 33 72h12c10.667 0 36 -15.667 76 -47l16 -4h27
c16 -62.667 55 -124.334 117 -185.001c46 -39.333 118.333 -89.666 217 -150.999c66.667 23.333 117 68.333 151 135c42.667 97.333 64 229 64 395l-13 394l17 260l-8 270c0 134 38.667 201 116 201c56 0 84 -18.667 84 -56z" />
    <glyph glyph-name="k" unicode="k" horiz-adv-x="1352" 
d="M386 2048c56 -6.66699 84.001 -19 84.001 -37c13.333 -99.333 20 -221.333 20 -366v-41c0 -191.333 -10.667 -379.333 -32 -564l460 148l123 16c62.667 0 110 -15 142 -45c-8.66699 -28.667 -13 -62.667 -13 -102l4 -4c-60 -50.667 -160.333 -96.667 -301 -138
c-120 -27.333 -223.667 -59.333 -311 -96c-27.333 -12 -60.666 -33 -99.999 -63v-8c22.667 -45.333 95 -87.666 217 -126.999c90 -27.333 156 -61 198 -101h33c14 0 50.333 -18.333 109 -55c238.667 -104 367.667 -176.333 387 -217v-4c-8.66699 0 -15.667 -29.333 -21 -88
c-10.667 -23.333 -40 -35 -88 -35l-55 -21c-292 135.333 -493.333 226.333 -604 273c-66 24.667 -122 41.667 -168 51c-16.667 -34 -25 -76.333 -25 -127l13 -281c0 -56 -13 -94.667 -39 -116c-8.66699 -6 -15.667 -29.667 -21 -71l-63 -26l-17 -4c-50 12.667 -82 25 -96 37
c-26 53.333 -39 134.666 -39 243.999l6 373l-4 100l-123 84l4 51l-16 60c0 35.333 50.667 85 152 149c17.333 0 29.333 312.667 36 938c7.33301 114.667 15.666 172 24.999 172c39.333 27.333 74.666 41 105.999 41h17z" />
    <glyph glyph-name="l" unicode="l" horiz-adv-x="424" 
d="M215 1863c50.667 0 75.999 -18 75.999 -54c19.333 -86 29 -175.333 29 -268l-29 -618v-64c0 -187.333 32 -444 96 -770v-45c0 -52.667 -15 -82.667 -45 -90c-18.667 0 -58 -8 -118 -24c-15.333 12.667 -42 29.667 -80 51c-72.667 388 -109 702 -109 942v117
c0 170.667 17 343.667 51 519c-8 0 -15.333 29.333 -22 88l-33 22c16.667 0 31 50.333 43 151c46.667 28.667 88.334 43 125.001 43h16z" />
    <glyph glyph-name="m" unicode="m" horiz-adv-x="1484" 
d="M974 911c88.667 -13.333 136.334 -31.667 143.001 -55c44 -70.667 96.667 -199.667 158 -387c47.333 -151.333 100.333 -294 159 -428c0 -10.667 -16.333 -29.667 -49 -57c0 -14 -4.66699 -21 -14 -21c-130 0 -216.667 71 -260 213c-44 156 -81.667 259.667 -113 311h-4
c-122.667 -352 -212 -528 -268 -528h-35c-101.333 0 -160 104.333 -176 313c-16.667 165.333 -30.334 248 -41.001 248c-34 -36.667 -73 -133 -117 -289c-46 -176 -106.667 -264 -182 -264c-31.333 0 -66.333 13.667 -105 41l5 21v18l-25 29c16.667 52 25 103.667 25 155
l-9 269l4 63c28.667 0 43 24.667 43 74v22c0 7.33301 22 18.333 66 33c6.66699 16.667 12.667 25 18 25l54 -21c10.667 1.33301 57 49.333 139 144c34 27.333 53.667 41 59 41c130 0 219.667 -85.333 269 -256l16 -41h8c22 42 50 113 84 213c18 35.333 38 62 60 80l36 -5
l31 39h21z" />
    <glyph glyph-name="n" unicode="n" horiz-adv-x="1116" 
d="M822 1122c35.333 -82 67.332 -183.671 95.999 -305.004c54.667 -374 97 -619 127 -735c8.66699 0 15.667 -25.333 21 -76v-8c0 -45.333 -29.333 -68 -88 -68h-8c-84.667 0 -127 15.667 -127 47c-40 82 -72.333 182.667 -97 302l-88 528h-4
c-94 -114.667 -204.667 -336.667 -332 -666c-52.667 -107.333 -82 -162 -88 -164c0 8.66699 -13.667 14.334 -41 17.001h-59c-24.667 0 -37 12.333 -37 37l-47 84c36.667 133.333 55 367.333 55 702c56 34 85.333 54.667 88 62c0 12 5.66699 18 17 18
c98 -13.333 147 -27.666 147 -42.999l-12 -37l4 -4h4c53.333 50.667 102 116.334 146 197.001c70.667 103.333 135.334 155 194.001 155c86 -21.333 129 -35.666 129 -42.999z" />
    <glyph glyph-name="o" unicode="o" horiz-adv-x="864" 
d="M507 864c136.667 0 231.332 -83.334 283.999 -250.001c15.333 -44.667 23 -93.667 23 -147v-37c0 -190 -72.333 -343 -217 -459c-79.333 -47.333 -149.666 -71 -210.999 -71h-14c-142 0 -242.667 90.667 -302 272c-13.333 46.667 -20 95 -20 145v21
c0 122.667 17.667 237.334 53 344.001c5.33301 9.33301 38.333 26.333 99 51c14.667 12.667 39 42.667 73 90c44 27.333 120 41 228 41h4zM313.998 503.999l-6 -191c5.33301 -107.333 29.333 -161 72 -161c57.333 25.333 103 69 137 131c27.333 54.667 41 107 41 157v15
c0 80 -29.333 146.667 -88 200c-44 0 -84.333 -28 -121 -84c-16.667 -20 -29 -31.333 -37 -34z" />
    <glyph glyph-name="p" unicode="p" horiz-adv-x="1011" 
d="M222 1004c299.333 0 515 -57.666 647 -172.999c61.333 -82.667 92 -158.334 92 -227.001c0 -110.667 -75.667 -229.334 -227 -356.001c-120 -87.333 -237.333 -131 -352 -131h-13c0 -478 13.667 -781.333 41 -910l-4 -4h-61c-9.33301 -4 -15.666 -11.333 -18.999 -22
c-114.667 28.667 -172 61.334 -172 98.001c-43.333 168 -65 420.667 -65 758l29 500c0 64 -9.66699 126.667 -29 188c-5.33301 0 -9.33301 -9.66699 -12 -29h-7c-6.66699 0 -13.334 11.667 -20.001 35v12c0 26 14.333 54 43 84h-8c-10 0 -16.333 -7.33301 -19 -22h-8v4
c0 46.667 38.333 91.667 115 135zM374 344.001c65.333 0 138.333 25.333 219 76c66.667 61.333 100 148 100 260c-95.333 75.333 -175.333 113 -240 113c-39.333 0 -59 -11 -59 -33l-16 -395z" />
    <glyph glyph-name="q" unicode="q" horiz-adv-x="1153" 
d="M722 1020c129.333 -15.333 193.997 -32.335 193.997 -51.002c94.667 -96 142 -154.667 142 -176c-72.667 -217.333 -109 -570.333 -109 -1059l4 -211c210.667 181.333 366.334 272 467.001 272c10.667 0 21.667 -1.33301 33 -4c9.33301 9.33301 52.333 24.333 129 45
c0 -17.333 21 -28.333 63 -33h56v-8l-17 -18c0 -14 13.667 -21 41 -21v-8c-68 -76.667 -128 -123 -180 -139c-140.667 -45.333 -247 -106.666 -319 -183.999c-97.333 -132.667 -160.333 -216 -189 -250c-56 -44 -84 -92.667 -84 -146l-20 -22h-4c0 9.33301 -9 14 -27 14v4
c-19.333 0 -29 -10.333 -29 -31l-4 -4h-20c-10 4 -17.667 14.333 -23 31l-41 -18c-56 6.66699 -84 16.667 -84 30c0 18 -12.333 31.667 -37 41l-4 369c0 315.333 16.333 602 49 860c-185.333 -185.333 -341.666 -278 -468.999 -278c-51.333 0 -95 34.667 -131 104
c-34 22 -51 63 -51 123c-4 0 -6.66699 29.333 -8 88v41c0 84.667 18.333 156.334 55 215.001c27.333 0 41 15 41 45c1.33301 34 24 77.667 68 131c144.667 165.333 304.334 248 479.001 248h29zM319.997 263.998c203.333 110.667 347.333 274.667 432 492l9 28
c-26 14 -51.333 21 -76 21h-17c-51.333 0 -124.333 -47 -219 -141c-21.333 -8.66699 -39.666 -35.334 -54.999 -80.001c-64 -97.333 -96 -174.666 -96 -231.999c5.33301 -58.667 12.666 -88 21.999 -88z" />
    <glyph glyph-name="r" unicode="r" horiz-adv-x="956" 
d="M843 1061c83.333 0 125.002 -19 125.002 -57c9.33301 -40 23.666 -69.667 42.999 -89v-8c-237.333 -120 -409.333 -314.333 -516 -583c-50.667 -143.333 -76 -259.666 -76 -348.999c-79.333 -36.667 -132.333 -55 -159 -55c0 31.333 -33.667 62 -101 92
c0 45.333 -36.667 226.333 -110 543c-16.667 65.333 -25 132.333 -25 201v55c12 44 52.333 70 121 78h10c82 0 132 -57.333 150 -172l-5 -66c62 53.333 150.333 145.666 265 276.999c95.333 88.667 184.666 133 267.999 133h10z" />
    <glyph glyph-name="s" unicode="s" horiz-adv-x="1173" 
d="M570 985c97.333 0 151.332 -24 161.999 -72c18 -44.667 27 -74 27 -88c-18 -30 -59 -52.333 -123 -67c-192.667 -30 -289 -56 -289 -78c28.667 -46.667 100.334 -86.334 215.001 -119.001c200.667 -46 346 -91 436 -135c83.333 -50.667 125 -117.667 125 -201
c0 -136.667 -122 -228.667 -366 -276c-71.333 -12.667 -138.333 -19 -201 -19c-247.333 16.667 -371 45.334 -371 86.001c-26 26 -39 58.333 -39 97v20c0 50.667 27.333 97 82 139c138 -66.667 254.667 -100 350 -100c76.667 0 139.667 22.667 189 68v4
c-71.333 39.333 -209.333 83.666 -414 132.999c-202 58.667 -303 132.334 -303 221.001v12c0 136.667 84.667 242 254 316c86 39.333 163.667 59 233 59h33z" />
    <glyph glyph-name="t" unicode="t" horiz-adv-x="983" 
d="M481 1851c61.333 0 104.999 -30.666 130.999 -91.999c-53.333 -328.667 -80 -588 -80 -778v-172l55 -4c118.667 0 249.667 18.333 393 55l68 4c61.333 0 92 -29.333 92 -88c0 -87.333 -58.667 -139 -176 -155c-52 -14 -186.333 -29.333 -403 -46
c0 -5.33301 -9.66699 -8 -29 -8l25 -264c0 -36.667 -8.33301 -69.334 -25 -98.001c19.333 -23.333 29 -55.333 29 -96v-41c0 -92 -9.66699 -141.333 -29 -148l-105 8c-12 0 -26.333 -9.33301 -43 -28c-72 31.333 -108 147.333 -108 348c0 181.333 -9.66699 272 -29 272
c-24.667 26 -110 39 -256 39c-65.333 0 -111.666 35 -138.999 105v12c32.667 72 107 108 223 108c61.333 -1.33301 92 -5.33301 92 -12c20.667 0 35.667 17 45 51l13 8h35l-5 54c0 232 24 531.667 72 899c35.333 44.667 81 67 137 67h17z" />
    <glyph glyph-name="u" unicode="u" horiz-adv-x="993" 
d="M654 795c50.667 0 89.668 -21.999 117.001 -65.999c22 -246 60.333 -448 115 -606c38 -42.667 57 -85.667 57 -129v-33c0 -22 -8.33301 -39 -25 -51h-51c-102 0 -184.667 95 -248 285l-28 43c-120.667 -132.667 -207.334 -215.334 -260.001 -248.001l-45 8
c-11.333 0 -47 -12.333 -107 -37l-20 -4c-57.333 0 -92.333 62.667 -105 188l-4 62v43c0 192.667 41.667 353.667 125 483c31.333 35.333 62 53 92 53c38 0 76.333 -26.333 115 -79c0 -40 -22.667 -133.667 -68 -281c-8 -26 -12 -62.333 -12 -109v-16
c62.667 31.333 117.334 112 164.001 242c65.333 165.333 109.666 248 132.999 248z" />
    <glyph glyph-name="v" unicode="v" horiz-adv-x="970" 
d="M873 993c41.333 0 77.667 -28 109 -84c-20.667 -57.333 -31.667 -92.666 -33 -105.999l8 -37c-56 -46.667 -120 -222.667 -192 -528c-66 -205.333 -147.333 -308 -244 -308c-84.667 0 -183.667 110.667 -297 332c-143.333 217.333 -215 352 -215 404v32
c0 82 71 123 213 123l215 -395l37 -51c80.667 53.333 149.667 194.666 207 423.999c44.667 126.667 82 190 112 190l43 4h37z" />
    <glyph glyph-name="w" unicode="w" horiz-adv-x="1384" 
d="M1142 1100c64 0 109.664 -42.332 136.997 -126.999l-12 -133v-52c0 -52.667 19.667 -202 59 -448l8 -113c0 -129.333 -15.667 -194 -47 -194c-46.667 -32.667 -95 -49 -145 -49c-98.667 0 -227.667 88 -387 264c-52 47.333 -92.333 79.333 -121 96
c-84.667 -220 -151 -349 -199 -387c-64 -52 -116.667 -78 -158 -78c-26 0 -67 52.667 -123 158c-69.333 184 -104 354.667 -104 512v47c0 147.333 36.333 245 109 293l43 10h41c52.667 0 83.334 -35.333 92.001 -106l-21 -301c0 -49.333 9.66699 -85 29 -107
c32.667 15.333 60.667 49.333 84 102c22 75.333 37.667 113 47 113c76.667 27.333 125.667 48.666 147 63.999c50.667 -6 121.667 -54 213 -144c110.667 -122.667 176.334 -184 197.001 -184c12 64 18 124 18 180v25l-30 407c0 79.333 11.667 119 35 119
c22.667 22 46.334 33 71.001 33h17z" />
    <glyph glyph-name="x" unicode="x" horiz-adv-x="1192" 
d="M1013 795c57.333 0 97.332 -32.333 119.999 -97l9 -32c-108 -116 -196.333 -196 -265 -240l-159 -109c78.667 -66.667 181.667 -147 309 -241l-6 -45l6 -49c-50.667 -37.333 -95.667 -56 -135 -56c-71.333 0 -169 54 -293 162l-86 53
c-41.333 -6.66699 -107 -51 -197 -133c-64 -62.667 -127.333 -94 -190 -94c-6.66699 -23.333 -13 -35 -19 -35h-6c-22 0 -39 27.333 -51 82v16c0 54.667 58 136 174 244c41.333 48 62 78 62 90c-23.333 36 -59 82.667 -107 140c-28.667 40.667 -43 78.667 -43 114
c0 57.333 18.333 92.333 55 105l88 45h17c44.667 0 99.334 -65 164.001 -195c22.667 -28.667 41 -43 55 -43c32.667 0 146.667 84.667 342 254c46.667 42.667 93 64 139 64h17z" />
    <glyph glyph-name="y" unicode="y" horiz-adv-x="1128" 
d="M902 1327c38 0 68.666 -15.668 91.999 -47.001c26 -491.333 39 -846.333 39 -1065v-31l45 -633c-1.33301 -263.333 -105 -439.333 -311 -528c-48 -14.667 -93.667 -22 -137 -22c-170.667 0 -343 101 -517 303c-42 54.667 -63 106.334 -63 155.001
c31.333 32.667 64.666 49 99.999 49c26 0 80.667 -32 164 -96c11.333 -9.33301 35.333 -14.666 72 -15.999l192 -117c24.667 -9.33301 47.334 -14 68.001 -14h8c83.333 0 138 74.333 164 223c13.333 76.667 20 184.667 20 324c0 228 -25 472.333 -75 733
c-46.667 -50.667 -116.334 -152.334 -209.001 -305.001c-83.333 -90.667 -143.333 -136 -180 -136c-41.333 -18.667 -97.333 -28 -168 -28h-17c-42 0 -81.667 56 -119 168c-13.333 62.667 -20 128 -20 196c0 164 32 360 96 588c31.333 64 66.333 96 105 96h26
c30 0 65 -17.667 105 -53v-10c0 -64 -26.667 -202 -80 -414c-16.667 -58.667 -25 -127.667 -25 -207l4 -67h13c35.333 0 87 42.333 155 127c12.667 0 29.334 29.333 50.001 88c146 272.667 219 442 219 508c10.667 39.333 16 82.333 16 129v8
c28.667 24.667 55.334 56 80.001 94h88z" />
    <glyph glyph-name="z" unicode="z" horiz-adv-x="1317" 
d="M1142 971c83.333 -16.667 125 -57.001 125 -121.001c0 -127.333 -134 -271.333 -402 -432c-131.333 -67.333 -235 -131.666 -311 -192.999v-4c62.667 -10.667 230.667 -23.667 504 -39c69.333 -10.667 125.333 -23 168 -37v-12c-18 -87.333 -39.333 -131 -64 -131
c-147.333 -22 -290 -33 -428 -33h-100c-127.333 0 -234 12.333 -320 37l-84 -8c-104.667 0 -164.667 30.667 -180 92c0 16.667 19.667 63 59 139c0 16.667 52 51.667 156 105l401 239c66 49.333 111.333 87 136 113c-152 -12 -340 -23 -564 -33
c-39.333 19.333 -59 57 -59 113c0 78 42.333 128.667 127 152l109 -17c64 0 294.667 23.333 692 70h35z" />
    <glyph glyph-name="braceleft" unicode="{" horiz-adv-x="839" 
d="M789 1683v-16.001c0 -34 -82.333 -73.667 -247 -119c-70 -30 -105 -88.667 -105 -176c0 -79.333 47 -185.666 141 -318.999l17 -41c0 -38.667 -23.333 -85.334 -70 -140.001c-40.667 -38 -87 -64.333 -139 -79v-5c16 -17.333 65 -52 147 -104c48 -44 72 -78.667 72 -104
c-10.667 -45.333 -57 -145 -139 -299c-20.667 -54.667 -31 -103.334 -31 -146.001c0 -98 70.333 -161.333 211 -190c87.333 -18 131 -34.333 131 -49l4 -72c-4 -36.667 -14.333 -55 -31 -55c-12 -6 -42.667 -9 -92 -9h-4c-236 0 -378.667 76 -428 228l-8 71
c0 76.667 34.667 212 104 406l9 55c-92 50.667 -168.667 100 -230 148c-34 42 -51 82 -51 120v21c0 80.667 68.333 148.334 205 203.001l39 28c-40 98.667 -60 197 -60 295c0 236.667 78.667 390.334 236 461.001c23.333 8 50 12 80 12h75c36 0 75 4.33301 117 13
c31.333 -52 47 -98 47 -138z" />
    <glyph glyph-name="bar" unicode="|" horiz-adv-x="467" 
d="M202 1978c57.333 -53.333 99.667 -141.332 127 -263.999l8 -67l-8 -66c21.333 -165.333 32 -346.333 32 -543l-8 -632c0 -268 21.333 -514.667 64 -740c-32 -83.333 -56 -135 -72 -155h-12c-26 13.333 -39 27.666 -39 42.999h-4c-10 -28.667 -25 -43 -45 -43
c-7.33301 0 -17.666 5.33301 -30.999 16l-8 -8c-24.667 0 -41.334 32.667 -50.001 98c-52.667 203.333 -79 473 -79 809l8 815c0 180 -11.667 364.333 -35 553v37c0 80.667 39.667 129.667 119 147h33z" />
    <glyph glyph-name="braceright" unicode="}" horiz-adv-x="839" 
d="M202 1808l95.9971 -0.000976562c125.333 0 220 -93.333 284 -280c8.66699 -35.333 16.334 -98.333 23.001 -189c0 -107.333 -21 -208.333 -63 -303h4c156.667 -77.333 235 -137.333 235 -180c5.33301 -10.667 8 -27.667 8 -51v-4c0 -97.333 -84 -184 -252 -260l-32 -25
c0 -12 36 -132 108 -360l8 -101c0 -139.333 -89.333 -230.666 -268 -273.999c-40.667 -14 -96.667 -21 -168 -21h-4c-76.667 0 -115 9 -115 27l-12 45c0 56 11.667 84 35 84c184 49.333 276 87 276 113c18 0 31.667 36.667 41 110c0 70 -51 195.667 -153 377
c-12.667 31.333 -19 55.333 -19 72c8.66699 47.333 73.667 106 195 176l24 24v5c-87.333 28.667 -148.666 73.667 -183.999 135c-16 40.667 -24 67.334 -24 80.001v4c8 24.667 51 101.667 129 231c18.667 57.333 28 101.666 28 132.999c0 82 -33.333 138 -100 168
c-162.667 52 -246.667 88.333 -252 109v43c0 39.333 17 81 51 125c36.667 -8.66699 70.334 -13 101.001 -13z" />
    <glyph glyph-name="asciitilde" unicode="~" horiz-adv-x="1212" 
d="M748 1004c48 0 128.668 -38.332 242.001 -114.999c56 -24.667 97 -37 123 -37h24c10 0 18.333 -19.667 25 -59c-4 -53.333 -10.667 -80 -20 -80c-30 0 -45 -16.333 -45 -49l4 -13l-4 -4h-21c-204.667 0 -307 30.667 -307 92h-12
c-72.667 0 -140.334 -74.333 -203.001 -223c-30 -50.667 -59.333 -76 -88 -76h-29c-135.333 0 -258.333 41 -369 123c-12 52 -18 88.333 -18 109v33c0 61.333 14.333 94.666 43 99.999l33 4c28.667 0 99 -26 211 -78l59 -6h25l108 172c61.333 71.333 127 107 197 107h22z
" />
    <glyph glyph-name="exclamdown" unicode="&#xa1;" horiz-adv-x="434" 
d="M50 -102v192.002c0 127.333 17.667 472.666 53 1036c6.66699 221.333 21.667 332 45 332c31.333 31.333 66.333 50.666 105 57.999h24c63.333 -12.667 95 -68 95 -166v-66c0 -60 -18.667 -261.333 -56 -604c-14.667 -203.333 -22 -357 -22 -461v-90l6 -211
c-44 -43.333 -83.667 -68 -119 -74l-53 -14zM253 1763c-46.667 0 -80.333 19.333 -101 58c-8 14.667 -12 30.334 -12 47.001c0 62.667 47.667 104.334 143 125.001h52c32.667 -24.667 49 -56.334 49 -95.001v-20c0 -62.667 -22.667 -97.334 -68 -104.001z" />
    <glyph glyph-name="cent" unicode="&#xa2;" horiz-adv-x="1661" 
d="M855 1235c49.333 0 76.668 -35.001 82.001 -105.001l-13 -221l82 4c100 0 165.667 -21.667 197 -65l4 -10c0 -36 -29.333 -69 -88 -99c-45.333 -14.667 -112.333 -22 -201 -22l-4 -86v-105c0 -122.667 9.66699 -184 29 -184l137 -2c84.667 0 252.667 19 504 57
c13.333 0 22.333 -21 27 -63c0 -5.33301 -16 -21.666 -48 -48.999l7 -17c-118 -64 -207.667 -96 -269 -96l-100 -16c-10.667 -19.333 -20.334 -29 -29.001 -29l-18 2l-39 -6l-2 16c-28.667 -16 -58 -24 -88 -24h-70l-6 -54l10 -161c0 -30 -8.66699 -60 -26 -90
c-105.333 10.667 -158 23.334 -158 38.001c-53.333 32 -80 120.333 -80 265l-4 18c0 14 -24.667 25 -74 33c-240 53.333 -397.667 107.333 -473 162c-62.667 58.667 -94 96 -94 112c0 56 31.333 125.667 94 209c80.667 83.333 216.667 148.333 408 195l127 37l-4 4v4
c0 65.333 19 165.666 57 300.999h25c17.333 0 28 15 32 45zM318.002 509.999c139.333 -68 232.333 -102 279 -102l67 -15l4 37c-1.33301 143.333 -4 215 -8 215c-155.333 0 -269.333 -43 -342 -129v-6z" />
    <glyph glyph-name="sterling" unicode="&#xa3;" horiz-adv-x="1903" 
d="M994 1755c57.333 0 92.332 -41.0049 104.999 -123.005v-28c0 -48 -36.333 -147.667 -109 -299c-13.333 -37.333 -20 -69.666 -20 -96.999v-4l596 109h20c58.667 0 88 -24.667 88 -74v-27c0 -124 -125.667 -202.333 -377 -235c-176 -26 -301 -54 -375 -84
c-30 -9.33301 -45 -36.666 -45 -81.999v-39c355.333 66.667 566.333 100 633 100c19.333 -27.333 29 -60.666 29 -99.999c0 -109.333 -118.667 -181.666 -356 -216.999l-306 -47c0 -46.667 29.333 -98.667 88 -156c64.667 -35.333 130.334 -53 197.001 -53h16
c179.333 0 364.333 56.667 555 170c109.333 101.333 184.666 152 225.999 152h8c20.667 -2 31 -6.33301 31 -13l-9 -88c2 -14.667 13 -31 33 -49c-91.333 -120 -193 -210 -305 -270c-224 -134 -435.667 -201 -635 -201c-233.333 0 -397 140 -491 420
c-78 0 -223.667 -11.667 -437 -35c-12 36.667 -37 63.334 -75 80.001l-4 6l12 25l-12 20c122.667 98.667 241.334 148 356.001 148c114.667 14.667 172 52 172 112v17c-224 -30 -362 -45 -414 -45h-59l-80 100c0 34 36.333 77 109 129c44.667 27.333 173.667 60 387 98
c88.667 31.333 133 58 133 80l76 242c26.667 190.667 51.667 286 75 286c37.333 48 85.333 72 144 72h20z" />
    <glyph glyph-name="currency" unicode="&#xa4;" horiz-adv-x="1014" 
d="M346 568l2.99805 -28l-8 -170c8.66699 -98 37.334 -147 86.001 -147c68.667 22 124.334 61 167.001 117c34 48 51 95.333 51 142v12c0 72 -35.667 132.333 -107 181c-53.333 0 -102 -24.667 -146 -74c-22.667 -20 -38 -31 -46 -33zM683.998 850l24 27
c40 52 68.333 97.333 85 136c6 0.666992 11.667 1 17 1c46 0 94.333 -20.667 145 -62l11 -8c32.667 -26.667 49 -48 49 -64c0 -4.66699 -1.66699 -9 -5 -13l-77 -103c-16 -20 -32.333 -37 -49 -51c16 -23.333 30.333 -49.333 43 -78c18 -38.667 27 -82.667 27 -132v-33
c0 -104.667 -33 -196.667 -99 -276c26.667 -17.333 52.667 -41.666 78 -72.999l77 -102c3.33301 -4 5 -8.66699 5 -14c0 -16 -16.333 -37 -49 -63l-11 -9c-50.667 -40.667 -98.667 -61 -144 -61c-6 0 -12 0.333008 -18 1c-16.667 38.667 -45 83.667 -85 135l-38 42
c-85.333 -34.667 -162.333 -52 -231 -52h-21c-49.333 0 -94.333 7 -135 21l-1 -1c-39.333 -51.333 -67.666 -96.333 -84.999 -135c-6 -0.666992 -11.667 -1 -17 -1c-45.333 0 -93.666 20.333 -144.999 61l-11 9c-32 25.333 -48 46.333 -48 63c0 5.33301 1.66699 10 5 14
l77 102c11.333 14 23 26.667 35 38c-14.667 22.667 -28 47.667 -40 75c-16.667 44 -25 87.333 -25 130v19c0 111.333 21.333 213.666 64 306.999c2 2 5.66699 4.33301 11 7c-15.333 13.333 -30.333 29 -45 47l-77 103c-3.33301 4 -5 8.66699 -5 14c0 16 16 37 48 63l11 8
c51.333 41.333 99.666 62 144.999 62c5.33301 0 11 -0.333008 17 -1c17.333 -38.667 45.666 -84 84.999 -136l33 -35c52 20 135.333 30 250 30h16c36.667 0 71 -4 103 -12z" />
    <glyph glyph-name="yen" unicode="&#xa5;" horiz-adv-x="1140" 
d="M462 905c-57.333 54.667 -119.662 146.999 -186.995 276.999c-143.333 216.667 -215 351 -215 403v33c0 83.333 71 125 213 125l215 -397l37 -52c80.667 53.333 149.667 194.666 207 423.999c45.333 128.667 83 193 113 193l43 4h36c41.333 0 77.666 -28 108.999 -84
c-20.667 -56 -31.667 -92.333 -33 -109l8 -36c-56 -46.667 -120 -223 -192 -529c-44 -136.667 -94.667 -227.334 -152 -272.001c7.33301 -7.33301 13.666 -15 18.999 -23v-12c109.333 -8 237 -18.333 383 -31c16 -22 24 -47.333 24 -76v-4
c0 -53.333 -26.333 -99.666 -79 -138.999l-340 16l-7 -116c113.333 -7.33301 247.333 -17.666 402 -30.999c16 -22 24 -47.333 24 -76v-4c0 -53.333 -26.333 -99.666 -79 -138.999l-359 18l-2 -47l12 -198v-33c0 -58.667 -22.333 -88 -67 -88h-13
c-52.667 0 -100.334 29.333 -143.001 88c-13.333 35.333 -20 84.333 -20 147v49c0 26 0.666992 57.667 2 95l-52 2l-198 -13h-33c-58.667 0 -88 22.667 -88 68v12c0 53.333 29.333 101.333 88 144c35.333 13.333 84.666 20 147.999 20h49c27.333 0 60 -0.666992 98 -2
c1.33301 36.667 3.33301 75.667 6 117l-70 4l-198 -12h-33c-58.667 0 -88 22.333 -88 67v12c0 53.333 29.333 101.333 88 144c35.333 13.333 84.666 20 147.999 20h49c34 0 75 -0.666992 123 -2z" />
    <glyph glyph-name="brokenbar" unicode="&#xa6;" horiz-adv-x="467" 
d="M353 525c0 -248 21.333 -476.332 64 -684.999c-32 -76.667 -56 -124.334 -72 -143.001h-12c-26 12 -39 25.333 -39 40h-4c-10 -26.667 -25 -40 -45 -40c-7.33301 0 -17.666 5 -30.999 15l-8 -8c-24.667 0 -41.334 30.333 -50.001 91c-52.667 188 -79 437.333 -79 748
l1 120l216 -15zM85 1339c0 156 -11.666 316.001 -34.999 480.001v32c0 69.333 39.667 111.666 119 126.999h33c57.333 -46 99.666 -122.333 126.999 -229l8 -58l-8 -57c21.333 -143.333 32 -300.333 32 -471l-52 -206l-228 68z" />
    <glyph glyph-name="section" unicode="&#xa7;" horiz-adv-x="1315" 
d="M248 954c-132 69.333 -197.996 155.001 -197.996 257.001v23c0 126 87 247.333 261 364c91.333 56.667 184.666 85 279.999 85h30c154 0 257 -42 309 -126c6.66699 -13.333 10 -26.666 10 -39.999c0 -36 -30.667 -59.667 -92 -71c-10.667 -5.33301 -32.334 -8 -65.001 -8
h-26l-194 7c-58.667 0 -125.334 -40.333 -200.001 -121c-18.667 -27.333 -36.334 -56.333 -53.001 -87c22 -38.667 59 -68.334 111 -89.001c92 -38.667 241 -95 447 -169c264.667 -99.333 397 -217 397 -353v-25c-54 -133.333 -106.333 -228.666 -157 -285.999
c82.667 -64 124 -138.333 124 -223v-23c0 -178.667 -169.667 -324 -509 -436c-94 -27.333 -178 -41 -252 -41c-170.667 0 -278 50 -322 150c-10.667 30 -16 60.667 -16 92c0 94.667 40.333 174.667 121 240c33.333 20.667 71 31 113 31
c9.33301 -28.667 14 -55.334 14 -80.001l-14 -153c49.333 -18.667 103 -28 161 -28c152 0 290.333 50.667 415 152c22.667 24 38.667 43.667 48 59c-35.333 53.333 -75.333 92.333 -120 117c-16 11.333 -37.333 23.333 -64 36c-14 5.33301 -27.667 11.666 -41 18.999
c-80 36 -195.333 80 -346 132c-210.667 88.667 -323.667 195.667 -339 321zM889.004 441.001c74 91.333 113.67 141.333 119.003 150c-38 51.333 -80.667 89.333 -128 114c-64.667 38 -203.334 91.333 -416.001 160c-64.667 -72.667 -103.334 -123 -116.001 -151
c20.667 -40 54.667 -70.667 102 -92c85.333 -39.333 223.666 -96.333 414.999 -171c15.333 -6 23.333 -9.33301 24 -10z" />
    <glyph glyph-name="dieresis" unicode="&#xa8;" horiz-adv-x="670" 
d="M178 1686h11c54 -12.667 81 -36 81 -70v-5c0 -53.333 -37 -96 -111 -128l-28 -3c-36.667 0 -62.667 21.333 -78 64l-3 19v12c0 42.667 22.333 76 67 100zM528 1686h11c54 -12.667 81 -36 81 -70v-5c0 -53.333 -37 -96 -111 -128l-28 -3c-36.667 0 -62.667 21.333 -78 64
l-3 19v12c0 42.667 22.333 76 67 100z" />
    <glyph glyph-name="copyright" unicode="&#xa9;" horiz-adv-x="1825" 
d="M906 1525c286 0 518.001 -141.334 696.001 -424.001c115.333 -172 173 -332 173 -480v-37c0 -129.333 -45.667 -254.666 -137 -375.999c-73.333 -80.667 -195.333 -144.667 -366 -192c-102.667 -24 -192.334 -36 -269.001 -36h-54c-236 0 -444 71.667 -624 215
c-183.333 158 -275 347 -275 567v26c0 221.333 66 411.333 198 570c78.667 74 145 113.333 199 118c123.333 32.667 272.333 49 447 49h12zM340.001 767.999c0 -216 106.333 -382.333 319 -499c102 -43.333 196.667 -65 284 -65h50c132 0 256.667 36.333 374 109
c62 38.667 108.333 112.667 139 222c8 42.667 12 78 12 106c0 157.333 -74 322.333 -222 495c-102 114 -227.667 171 -377 171c-238 0 -384.667 -37.667 -440 -113c-92.667 -113.333 -139 -251.333 -139 -414v-12zM990.001 1024l-8.00195 -30l15 -37
c0 -34 -35.667 -65.333 -107 -94c-48.667 -15.333 -73 -33.666 -73 -54.999c-15.333 -23.333 -23 -45 -23 -65v-18c0 -42.667 24.667 -64 74 -64c48.667 0 129 24 241 72h37c98.667 0 148 -20.667 148 -62c-24.667 -62 -110.667 -122.333 -258 -181
c-78.667 -30 -147 -45 -205 -45c-117.333 0 -197.666 55.667 -240.999 167c-5.33301 13.333 -8 36.666 -8 69.999v18c0 130 56 240 168 330c44 21.333 85.333 32 124 32c36.667 0 75.334 -12.667 116.001 -38z" />
    <glyph glyph-name="ordfeminine" unicode="&#xaa;" horiz-adv-x="766" 
d="M479 1984c41.333 0 68 -29.334 80 -88.001c0 -24 14.667 -101.667 44 -233c20 -71.333 49 -131.666 87 -180.999c26 -38.667 39 -69.334 39 -92.001v-13c0 -30 -15.667 -45 -47 -45c-20 -12.667 -38.333 -19 -55 -19c-47.333 17.333 -88 52.333 -122 105
c-16.667 30.667 -41.334 91.334 -74.001 182.001c-38 -58.667 -76.333 -110 -115 -154c-51.333 -53.333 -110.666 -80 -177.999 -80c-70 0 -115.333 35.333 -136 106l-2 37c-0 83.333 53.333 186 160 308c66.667 54 141.667 99.333 225 136c26 20.667 54 31 84 31h10z
M189 1549c16.667 0 47.001 22.3311 91.001 66.998c47.333 82.667 74.666 138 81.999 166c-10 -5.33301 -47 -36.666 -111 -93.999c-34 -53.333 -54.667 -99.666 -62 -138.999z" />
    <glyph glyph-name="guillemotleft" unicode="&#xab;" horiz-adv-x="1137" 
d="M993 744c0 -15.333 -21.666 -39.998 -64.999 -73.998c-138.667 -104 -223 -162.333 -253 -175c2.66699 0 62.667 -60 180 -180c147.333 -154 224.666 -239 231.999 -255v-9c0 -68.667 -37 -112 -111 -130c-14 0 -47 23.667 -99 71
c-147.333 159.333 -255.333 265.666 -324 318.999c-64.667 36 -97 88 -97 156v27c0 46 28.667 94.333 86 145c130.667 104 258 200 382 288c48.667 -32 73 -77.333 73 -136c0 -14.667 -1.33301 -30.334 -4 -47.001zM587.001 774.002c0 -14.667 -21.667 -39 -65 -73
c-138.667 -104 -218 -162.333 -238 -175c-3.33301 -2 -5 -4.66699 -5 -8c0 -22.667 56.667 -80 170 -172c147.333 -154.667 225 -239.334 233 -254.001v-10c0 -70 -37 -114.333 -111 -133c-13.333 0 -46 24.667 -98 74c-142.667 154.667 -251 260.334 -325 317.001
c-65.333 33.333 -98 85.333 -98 156v28c0 46.667 29.667 95 89 145c123.333 101.333 250 198 380 290c48.667 -35.333 73 -82 73 -140c0 -16 -1.66699 -31 -5 -45z" />
    <glyph glyph-name="logicalnot" unicode="&#xac;" horiz-adv-x="1140" 
d="M831 669l-481.999 23.001l-231 -13c-58.667 0 -88 23.333 -88 70v10c0 54.667 29.333 103.334 88 146.001c35.333 13.333 84.666 20 147.999 20h49c132 0 375.667 -15 731 -45c16 -2 24 -15.667 24 -41c0 -5.33301 -0.333008 -11 -1 -17c0.666992 -6 1 -12 1 -18v-4
c0 -12.667 -1.66699 -25.334 -5 -38.001l-24 -397c-21.333 -16.667 -46.333 -25.334 -75 -26.001h-8c-52 0 -97.667 25.333 -137 76z" />
    <glyph glyph-name="registered" unicode="&#xae;" horiz-adv-x="1825" 
d="M798 924l0.000976562 -33c0 -57.333 6 -108 18 -152c106 26 183 52.667 231 80c43.333 28.667 72.666 51 87.999 67c-142 50 -224.333 75 -247 75c-36.667 9.33301 -66 14 -88 14c-1.33301 -8.66699 -2 -25.667 -2 -51zM1483 467
c6.66699 13.333 14.335 36.001 23.002 68.001c8 42.667 12 78 12 106c0 157.333 -74 322.333 -222 495c-102 114 -227.667 171 -377 171c-238 0 -384.667 -37.667 -440 -113c-92.667 -113.333 -139 -251.333 -139 -414v-12c0 -216 106.333 -382.333 319 -499
c102 -43.333 196.667 -65 284 -65h50c132 0 256.667 36.333 374 109c13.333 8 20.666 12 21.999 12c-60 8 -192.667 64.667 -398 170c-87.333 34.667 -132.333 52 -135 52l24 -140c0 -56.667 -34.667 -85 -104 -85c-27.333 16 -49.333 48 -66 96l-31 150h-49
c-58.667 0 -88 17.667 -88 53c0 50.667 35.333 85 106 103c-8 34 -12 105.333 -12 214v50l-78 -7c-38 3.33301 -57 20.333 -57 51v8c0 49.333 58.333 78.666 175 87.999h-9c15.333 27.333 42 41 80 41h6c49.333 0 74 -16.333 74 -49c25.333 0 158 -34.667 398 -104
c56.667 -20 85 -44.667 85 -74v-4c0 -105.333 -70.667 -185 -212 -239c-36 -16 -66 -31 -90 -45c45.333 -21.333 162.333 -69.333 351 -144c61.333 -20.667 102.666 -35 123.999 -43zM906.002 1525c286 0 518.001 -141.334 696.001 -424.001c115.333 -172 173 -332 173 -480
v-37c0 -129.333 -45.667 -254.666 -137 -375.999c-73.333 -80.667 -195.333 -144.667 -366 -192c-102.667 -24 -192.334 -36 -269.001 -36h-54c-236 0 -444 71.667 -624 215c-183.333 158 -275 347 -275 567v26c0 221.333 66 411.333 198 570c78.667 74 145 113.333 199 118
c123.333 32.667 272.333 49 447 49h12z" />
    <glyph glyph-name="macron" unicode="&#xaf;" horiz-adv-x="1024" 
d="M326 1468h30c80 0 234.333 -10 463 -30c10 -15.333 15 -32.333 15 -51v-3c0 -36 -17 -67.333 -51 -94l-404 22l-126 -9h-20c-37.333 0 -56 15.333 -56 46v8c0 36 18.667 68.667 56 98c23.333 8.66699 54.333 13 93 13z" />
    <glyph glyph-name="degree" unicode="&#xb0;" horiz-adv-x="554" 
d="M297 1618h49.999c12 0 40.667 -28.667 86 -86c56 -56 84 -109.333 84 -160v-10c0 -80 -26.667 -158.667 -80 -236c-43.333 -35.333 -94.333 -53 -153 -53h-17c-108.667 0 -185 47.667 -229 143c-6.66699 14 -10 31.667 -10 53v13c0 16 11 78 33 186v37
c76.667 75.333 155.334 113 236.001 113zM196.999 1344c13.333 -78 49 -117 107 -117h15c20.667 12.667 31 33 31 61c-4 91.333 -14.333 137 -31 137h-40c-54.667 0 -82 -27 -82 -81z" />
    <glyph glyph-name="plusminus" unicode="&#xb1;" horiz-adv-x="1153" 
d="M661 1467c44 0 68.666 -32.667 73.999 -98v-33l-12 -196v-131c126.667 13.333 257 20 391 20c56 -56 84 -111.333 84 -166c-6.66699 -56 -19.667 -84 -39 -84l-420 -35c9.33301 -113.333 14 -215 14 -305v-67c-46 -58.667 -99 -88 -159 -88c-58.667 8 -88 20 -88 36
l-31 412l-29 -4h-151c-132.667 0 -210.667 22.667 -234 68c-31.333 47.333 -47 83.333 -47 108v25c0 53.333 40.333 80 121 80c126.667 -11.333 219.334 -17 278.001 -17h45l-4 164c4 162.667 21.333 244 52 244c38 38 79.333 60.333 124 67h31zM286.999 167
c132 0 375.668 -15.002 731.001 -45.002c16 -22 24 -47.333 24 -76v-4c0 -53.333 -26.333 -99.666 -79 -138.999l-642 31l-231 -13c-58.667 0 -88 23.333 -88 70v10c0 54.667 29.333 103.334 88 146.001c35.333 13.333 84.666 20 147.999 20h49z" />
    <glyph glyph-name="uni00B2" unicode="&#xb2;" horiz-adv-x="657" 
d="M371 1946c94 0 157.998 -37.666 191.998 -112.999c9.33301 -22 14 -45 14 -69v-13c0 -86 -46.333 -175 -139 -267c-61.333 -62.667 -119 -113 -173 -151l-41 -38c98 -12 173.333 -18 226 -18c22.667 0 66 4.33301 130 13h3c48.667 0 73 -18.333 73 -55v-15
c-6 -50 -18 -75 -36 -75c-49.333 -28 -130.666 -42 -243.999 -42c-246.667 8 -370 16.333 -370 25c-58.667 12.667 -88 32.334 -88 59.001l-2 23c0 19.333 12.667 50.666 38 93.999c86.667 57.333 184.334 136.333 293.001 237c68.667 74.667 113.667 130.667 135 168v51
c0 3.33301 -4.66699 5.66602 -14 6.99902c-11.333 4 -24.333 6 -39 6c-58.667 0 -111 -33.333 -157 -100c-16.667 -34.667 -29 -53.667 -37 -57c-20 -10.667 -41.667 -16 -65 -16c-48.667 4 -73 17.667 -73 41c0 49.333 25.333 106 76 170c84 90 179 135 285 135h13z" />
    <glyph glyph-name="uni00B3" unicode="&#xb3;" horiz-adv-x="578" 
d="M405 1902c49.333 0 96.333 -14.3311 141 -42.998c2 -6 6 -12.333 12 -19c4 -20 6 -40 6 -60v-5c0 -93.333 -48.333 -173.333 -145 -240c32 -5.33301 79.333 -38 142 -98c37.333 -46.667 56 -90.334 56 -131.001c0 -67.333 -42.333 -124 -127 -170
c-50 -22.667 -102.667 -34 -158 -34h-19c-125.333 0 -243 45 -353 135c-34.667 30.667 -52 56.667 -52 78c0 4 -3.66699 17.333 -11 40v5c0 8.66699 8 17.667 24 27c15.333 22.667 31.666 34 48.999 34c28 0 76.333 -28.667 145 -86c81.333 -45.333 158 -68 230 -68h21
c25.333 0 46.666 11 63.999 33l1 7c-4 18.667 -34.333 45.667 -91 81c-14.667 6.66699 -54 17 -118 31c-54.667 20 -82 47.667 -82 83c0 44.667 54 87.667 162 129c17.333 5.33301 37 22.666 59 51.999l17 31c-1.33301 22 -2 32.667 -2 32c0 -1.33301 -2 -2 -6 -2h-6
c-23.333 0 -78 -22 -164 -66c-25.333 -10.667 -47.666 -16 -66.999 -16c-38 0 -60 21.333 -66 64v8c0 10 6.33301 22.333 19 37c0.666992 22 61 58.333 181 109c48.667 14.667 90.334 22 125.001 22h13z" />
    <glyph glyph-name="acute" unicode="&#xb4;" horiz-adv-x="652" 
d="M514 1972l88 -119.999c-20 -112.667 -54.667 -180.667 -104 -204c-158 -127.333 -243.333 -230 -256 -308c0 -24 -46.667 -36 -140 -36l-24 -4c-18.667 28 -28 57.333 -28 88v16c0 68 69.333 166.667 208 296c40 43.333 89.333 116.666 148 219.999
c32 34.667 68 52 108 52z" />
    <glyph glyph-name="mu" unicode="&#xb5;" horiz-adv-x="993" 
d="M364 797c0 -40 -22.6641 -133.666 -67.9971 -280.999c-8 -26 -12 -62.333 -12 -109v-16c62.667 31.333 117.334 112 164.001 242c65.333 165.333 109.666 248 132.999 248l55 4c50.667 0 89.667 -22 117 -66c22 -246 60.333 -448 115 -606c38 -42.667 57 -85.667 57 -129
v-33c0 -22 -8.33301 -39 -25 -51h-51c-102 0 -184.667 95 -248 285l-28 43c-120.667 -132.667 -207.334 -215.334 -260.001 -248.001c-27.333 -8.66699 -52 -13 -74 -13c-10.667 0 -20.334 1 -29.001 3c-2 -33.333 -3 -64.333 -3 -93c0 -84 8.66699 -148.667 26 -194v-80
c0 -56 3.33301 -110.667 10 -164l31 -108v-12c-27.333 -72 -75 -108 -143 -108h-16c-32 0 -69.667 43.333 -113 130v154c0 134.667 2.33301 202 7 202c-10.667 87.333 -16 174.333 -16 261c0 167.333 19.667 333 59 497c10.667 54 25.667 104.667 45 152
c13.333 36.667 27.666 71 42.999 103c0 11.333 10.333 20.333 31 27c26.667 26 52.667 39 78 39c38 0 76.333 -26.333 115 -79z" />
    <glyph glyph-name="paragraph" unicode="&#xb6;" horiz-adv-x="1174" 
d="M731 1240c12.667 -98 19 -167.334 19 -208.001l25 -500c0 -337.333 -18.667 -590 -56 -758c0 -36.667 -49.667 -69.334 -149 -98.001c-3.33301 10.667 -9 18 -17 22h-53l-3 4c23.333 128.667 35 432 35 910h-11c-99.333 0 -201 43.667 -305 131
c-131.333 126.667 -197 245.334 -197 356.001c0 68.667 26.667 144.334 80 227.001c110 110.667 287.333 168.334 532 173.001c85.333 12.667 181.333 26 288 40c10 8 25 12 45 12h13c6.66699 0 13.334 -0.666992 20.001 -2c2 0.666992 4.33301 1 7 1v-3
c23.333 -5.33301 48.666 -18.333 75.999 -39c28 -142.667 42 -224.667 42 -246c0 -4 -0.333008 -6 -1 -6c8.66699 -211.333 13 -408.666 13 -591.999c0 -392.667 -20.333 -721.334 -61 -986.001c-31.333 -21.333 -53.333 -38.333 -66 -51c-50 16 -82.667 24 -98 24
c-24.667 7.33301 -37 37.333 -37 90v45c40.667 250 61 459.333 61 628c0 51.333 -2 98.666 -6 141.999v64l-5 614l-3 42z" />
    <glyph glyph-name="periodcentered" unicode="&#xb7;" horiz-adv-x="415" 
d="M251 833c76 -19.333 114 -53 114 -101v-8c0 -73.333 -53 -134 -159 -182l-39 -4c-52 0 -89.667 30.667 -113 92l-4 43c0 60 32 107.667 96 143l88 17h17z" />
    <glyph glyph-name="periodcentered" unicode="&#x2219;" horiz-adv-x="415" 
d="M251 833c76 -19.333 114 -53 114 -101v-8c0 -73.333 -53 -134 -159 -182l-39 -4c-52 0 -89.667 30.667 -113 92l-4 43c0 60 32 107.667 96 143l88 17h17z" />
    <glyph glyph-name="cedilla" unicode="&#xb8;" horiz-adv-x="640" 
d="M24 -212v12c0 24 37.333 64.333 112 121c22.667 27.333 34 48 34 62v12c0 5.33301 19 9.33301 57 12c51.333 -2 77 -5.33301 77 -10l57 -20l4 -2v-10c0 -103.333 -29.333 -155 -88 -155v-6c0 -36.667 71.667 -71 215 -103c48 -15.333 72 -30 72 -44v-14
c0 -68 -39.333 -130 -118 -186c-48 -6.66699 -82.667 -10 -104 -10h-30c-58.667 0 -90.667 7.33301 -96 22l-4 16c0 15.333 24.333 51 73 107l8 30v12l-165 55c-69.333 30.667 -104 63.667 -104 99z" />
    <glyph glyph-name="uni00B9" unicode="&#xb9;" horiz-adv-x="504" 
d="M353 1884c22.667 0 39.332 -13.998 49.999 -41.998c7.33301 -4 11 -7.33301 11 -10c0 -12.667 -31 -115.334 -93 -308.001c-10.667 -31.333 -16 -61.333 -16 -90l21 -213c0 -83.333 -35.333 -136.333 -106 -159c0 10.667 -23.667 18 -71 22
c-24.667 43.333 -37 118.666 -37 225.999v9c0 100 5.66699 176.667 17 230v4c0 10 -23 30.333 -69 61l-3 8v7c0 9.33301 28.667 37.333 86 84c24.667 27.333 59.667 76.666 105 147.999c6.66699 4.66699 35.334 12.334 86.001 23.001h19z" />
    <glyph glyph-name="ordmasculine" unicode="&#xba;" horiz-adv-x="716" 
d="M437 1959l4 0.00195312c128.667 0 217.667 -75 267 -225c14 -38.667 21 -83 21 -133v-32c0 -170 -67.333 -307 -202 -411c-74 -42.667 -140.333 -64 -199 -64h-13c-132 0 -225.667 81.333 -281 244c-13.333 44 -20 87.333 -20 130v19
c0 111.333 16.667 213.666 50 306.999c6.66699 9.33301 37.334 25.333 92.001 48c11.333 7.33301 34.666 33.666 69.999 78.999c40 25.333 110.333 38 211 38zM259 1664l3.00098 -29.001l-7 -170c7.33301 -97.333 29.666 -146 66.999 -146c52.667 22 95.667 61 129 117
c26 48.667 39 96.334 39 143.001v12c0 72 -27.333 132.333 -82 181c-41.333 0 -79 -25.333 -113 -76c-17.333 -19.333 -29.333 -30 -36 -32z" />
    <glyph glyph-name="guillemotright" unicode="&#xbb;" horiz-adv-x="1137" 
d="M595 639c58 -50.667 87 -99.001 87 -145.001v-27c0 -68 -32.333 -120.333 -97 -157c-76 -58 -184.333 -164 -325 -318c-52 -47.333 -85 -71 -99 -71c-74 18 -111 61.333 -111 130v10c8.66699 15.333 86 100 232 254l180 157c-30 28 -114 94 -252 198
c-44 34 -66 58.667 -66 74c-2.66699 16.667 -4 32.334 -4 47.001c0 58.667 24.333 104 73 136c124 -88 251.333 -184 382 -288zM998 668.999c59.333 -50 89.001 -98.332 89.001 -144.999v-28c0 -70.667 -32.667 -122.667 -98 -156
c-74 -56.667 -182.333 -162.334 -325 -317.001c-52 -49.333 -84.333 -74 -97 -74c-74 18.667 -111 63 -111 133v11c9.33301 14 86.666 98.333 231.999 253l177 157c-34.667 33.333 -118 99.333 -250 198c-43.333 34 -65 58.667 -65 74c-2.66699 14 -4 28.667 -4 44
c0 58 24 104.667 72 140c130 -92 256.667 -188.667 380 -290z" />
    <glyph glyph-name="onequarter" unicode="&#xbc;" horiz-adv-x="1382" 
d="M321 1916c42.667 0 68.332 -24.0029 76.999 -72.0029c5.33301 -7.33301 8 -15.666 8 -24.999c0 -16.667 -18.667 -132 -56 -346c-5.33301 -29.333 -8 -60.666 -8 -93.999l13 -234c0 -104.667 -54 -189.334 -162 -254.001c0 42 -11.667 65.333 -35 70
c-20 70.667 -30 164.667 -30 282v10c0 112 4 197.333 12 256v2c0 2.66699 -13 21.334 -39 56.001l-4 26c0 18.667 17.667 55.667 53 111c12.667 24.667 33.334 79.667 62.001 165c16 16.667 45 32.334 87 47.001h22zM1024 838.997c105.333 0 177 -41.665 215 -124.998
c10 -22.667 15 -48.334 15 -77.001v-12c0 -90 -48.667 -183.333 -146 -280c-64 -64 -121.333 -114 -172 -150l-24 -23c79.333 0.666992 143 1 191 1c24.667 0 66.334 4 125.001 12h6c65.333 0 98 -24.667 98 -74v-15c-7.33301 -62 -24.333 -93 -51 -93
c-49.333 -28.667 -133.333 -43 -252 -43c-262 8 -393 18 -393 30c-58.667 14 -88 38 -88 72l-2 22c0 22 14.667 58 44 108c86 58.667 183.667 137.334 293 236.001c67.333 77.333 109.666 130.666 126.999 159.999v47l-31 -7c-46 0 -89 -29.667 -129 -89
c-13.333 -28.667 -26 -48.334 -38 -59.001c-26 -17.333 -56.333 -26 -91 -26c-62.667 8 -94 28 -94 60c0 55.333 26.667 116 80 182c90 95.333 191.333 143 304 143h13zM828.998 1756c41.333 0 70.333 -28.999 87 -86.999c0 -80.667 -16.333 -178.667 -49 -294
c-23.333 -45.333 -47.333 -105 -72 -179c-8 -31.333 -115.333 -283 -322 -755c-68 -170.667 -117 -309.334 -147 -416.001c-48 -52.667 -83 -79 -105 -79h-27c-22.667 21.333 -39.334 48.333 -50.001 81c-0.666992 0.666992 -3.66699 9 -9 25s-8 25 -8 27
c0 2.66699 -0.333008 5.66699 -1 9v13c18.667 108.667 81.334 301.667 188.001 579l271 610c72 170.667 116.667 293 134 367c30 66 64.667 99 104 99h6z" />
    <glyph glyph-name="onehalf" unicode="&#xbd;" horiz-adv-x="1720" 
d="M274 1916c42 0 67.666 -24.0029 76.999 -72.0029c5.33301 -7.33301 8 -15.666 8 -24.999c0 -16.667 -18.667 -132 -56 -346c-5.33301 -29.333 -8 -60.666 -8 -93.999l13 -234c0 -104.667 -54 -189.334 -162 -254.001c0 42 -11.667 65.333 -35 70
c-20 70.667 -30 164.667 -30 282v10c0 112 4 197.333 12 256v2c0 2.66699 -13 21.334 -39 56.001l-4 26c0 18.667 17.667 55.667 53 111c12.667 24.667 33.334 79.667 62.001 165c16 16.667 45 32.334 87 47.001h22zM1264 759.997l-0.000976562 -20.999
c0 -6.66699 -10.333 -32.334 -31 -77.001c-6.66699 -19.333 -12 -108.666 -16 -267.999l155 33l69 6c58.667 0 93.667 -59 105 -177c-13.333 -26.667 -33.333 -40 -60 -40c-67.333 -12.667 -156.666 -34 -267.999 -64c-10.667 -2 -18.667 -3 -24 -3l-2 -28
c3.33301 0 5 -5 5 -15l24 -223c0 -44.667 -17.667 -83.334 -53 -116.001c-17.333 -14.667 -37.333 -22 -60 -22c-57.333 0 -98 46.667 -122 140c-4 22 -6.33301 102 -7 240c-144.667 -26.667 -257 -40 -337 -40l-112 2c-40 32 -60 66.333 -60 103v9
c0 48.667 51 115.667 153 201l340 295c96 105.333 157.333 158 184 158c62 0 101 -31 117 -93zM983.998 364.998l8 98c-25.333 -24 -60 -59.333 -104 -106v-1c46.667 3.33301 78.667 6.33301 96 9zM828.998 1756c41.333 0 70.333 -28.999 87 -86.999
c0 -80.667 -16.333 -178.667 -49 -294c-23.333 -45.333 -47.333 -105 -72 -179c-8 -31.333 -115.333 -283 -322 -755c-68 -170.667 -117 -309.334 -147 -416.001c-48 -52.667 -83 -79 -105 -79h-27c-22.667 21.333 -39.334 48.333 -50.001 81
c-0.666992 0.666992 -3.66699 9 -9 25s-8 25 -8 27c0 2.66699 -0.333008 5.66699 -1 9v13c18.667 108.667 81.334 301.667 188.001 579l271 610c72 170.667 116.667 293 134 367c30 66 64.667 99 104 99h6z" />
    <glyph glyph-name="threequarters" unicode="&#xbe;" horiz-adv-x="1890" 
d="M546 1828c52 0 105.669 -17.002 161.002 -51.002c0 -7.33301 1.33301 -11.666 4 -12.999c6.66699 -28 10 -51.333 10 -70v-4c0 -94 -35.333 -164.667 -106 -212l98 -88c38.667 -48 58 -93 58 -135c0 -69.333 -44.333 -128.333 -133 -177
c-48.667 -22 -101.667 -33 -159 -33h-17c-125.333 0 -241 43.667 -347 131c-38 31.333 -57 60 -57 86c0 6.66699 -2.66699 18.667 -8 36v7c0 14 8.66699 26.333 26 37c14.667 27.333 37 41 67 41c36 0 87 -28.333 153 -85c68.667 -40 133.667 -60 195 -60h21
c14 0 24.667 5 32 15c-2 12.667 -26.667 32.667 -74 60c-8.66699 5.33301 -42.334 13.666 -101.001 24.999c-62.667 23.333 -94 56 -94 98c0 50.667 55.667 97.334 167 140.001c10 2.66699 22.333 13.667 37 33l-1 16l5 18c-1.33301 -2.66699 -38.333 -23 -111 -61
c-25.333 -13.333 -51 -20 -77 -20c-52.667 0 -81.667 27 -87 81v8c0 10.667 6 24.334 18 41.001c4 26.667 65.333 64.667 184 114c47.333 14.667 88.666 22 123.999 22h12zM1544 779.998l-0.000976562 -20.999c0 -6.66699 -10.333 -32.334 -31 -77.001
c-6.66699 -19.333 -12 -108.666 -16 -267.999l155 33l69 6c58.667 0 93.667 -59 105 -177c-13.333 -26.667 -33.333 -40 -60 -40c-67.333 -12.667 -156.666 -34 -267.999 -64c-10.667 -2 -18.667 -3 -24 -3l-2 -28c3.33301 0 5 -5 5 -15l24 -223
c0 -44.667 -17.667 -83.334 -53 -116.001c-17.333 -14.667 -37.333 -22 -60 -22c-57.333 0 -98 46.667 -122 140c-4 22 -6.33301 102 -7 240c-144.667 -26.667 -257 -40 -337 -40l-112 2c-40 32 -60 66.333 -60 103v9c0 48.667 51 115.667 153 201l340 295
c96 105.333 157.333 158 184 158c62 0 101 -31 117 -93zM1264 384.999l8 98c-25.333 -24 -60 -59.333 -104 -106v-1c46.667 3.33301 78.667 6.33301 96 9zM1129 1756c41.333 0 70.333 -28.999 87 -86.999c0 -80.667 -16.333 -178.667 -49 -294
c-23.333 -45.333 -47.333 -105 -72 -179c-8 -31.333 -115.333 -283 -322 -755c-68 -170.667 -117 -309.334 -147 -416.001c-48 -52.667 -83 -79 -105 -79h-27c-22.667 21.333 -39.334 48.333 -50.001 81c-0.666992 0.666992 -3.66699 9 -9 25s-8 25 -8 27
c0 2.66699 -0.333008 5.66699 -1 9v13c18.667 108.667 81.334 301.667 188.001 579l271 610c72 170.667 116.667 293 134 367c30 66 64.667 99 104 99h6z" />
    <glyph glyph-name="questiondown" unicode="&#xbf;" horiz-adv-x="1267" 
d="M830 -229c-276.667 0 -514 89.333 -712 268c-45.333 48 -68 76 -68 84c0 251.333 177.333 411 532 479l283 51c-28.667 232 -43 366 -43 402v18c0 91.333 12.333 137 37 137c38 38.667 87 64 147 76c11.333 -4 45 -30.667 101 -80l-8 -71c0 -75.333 33.333 -236 100 -482
l4 -75c0 -86 -30.667 -149 -92 -189c-488.667 -42 -751.667 -95.333 -789 -160c0 -34 98.333 -85.667 295 -155c127.333 -40 229 -60 305 -60c41.333 0 97.333 22.667 168 68l31 4c54.667 0 86.667 -39 96 -117v-18c0 -27.333 -30.667 -69 -92 -125
c-5.33301 -22 -17 -33 -35 -33c-83.333 -14.667 -158.333 -22 -225 -22h-35zM906 1655c-66.667 0 -105.667 28 -117 84v39c0 84.667 36.333 144.667 109 180l51 8c75.333 -8 113 -45.667 113 -113v-8c0 -92.667 -45 -154.667 -135 -186z" />
    <glyph glyph-name="Agrave" unicode="&#xc0;" horiz-adv-x="1643" 
d="M879 1828l12 -0.00195312c70.667 0 153.334 -48 248.001 -144v-40c0 -174 60 -435.333 180 -784l44 -4l160 8c50.667 0 76 -14.667 76 -44c10.667 -1.33301 16 -5.33301 16 -12c0 -67.333 -44 -112.666 -132 -135.999l-84 -20c114 -289.333 216.667 -485.333 308 -588
c69.333 -66 104 -128.667 104 -188c0 -35.333 -16 -59.333 -48 -72c0 -8.66699 -20 -16.667 -60 -24h-24c-86.667 0 -193.334 144 -320.001 432c-69.333 122.667 -136 262.667 -200 420l-124 8c-360 -22.667 -540 -56 -540 -100c-20 -16.667 -70.667 -114 -152 -292
c-49.333 -72 -104 -108 -164 -108h-24c-57.333 0 -90.666 14.667 -99.999 44l-8 64c0 27.333 12 91.333 36 192c0 12.667 -66.667 30 -200 52c-40 19.333 -60 40.666 -60 63.999c17.333 38 54.666 70 111.999 96l284 84c21.333 6.66699 53.333 45.334 96 116.001
c146.667 230.667 254.667 426.667 324 588c32 72.667 66.667 167.334 104 284.001c32.667 69.333 78 104 136 104zM899 1252c-101.333 -160 -180.001 -300 -236.001 -420v-4h4c38.667 0 145.334 20 320.001 60l52 4h4c-46.667 180.667 -84 290 -112 328zM758.999 2446
c58.667 -78 108 -133 148 -165c138.667 -97.333 208 -171.666 208 -223v-12c0 -22.667 -9.33301 -44.667 -28 -66l-24 3c-93.333 0 -140 9 -140 27c-12.667 58.667 -98 136 -256 232c-49.333 17.333 -84 68.333 -104 153l88 90c40 0 76 -13 108 -39z" />
    <glyph glyph-name="Aacute" unicode="&#xc1;" horiz-adv-x="1728" 
d="M950 1828l12 -0.00195312c70.667 0 153.334 -48 248.001 -144v-40c0 -174 60 -435.333 180 -784l44 -4l160 8c50.667 0 76 -14.667 76 -44c10.667 -1.33301 16 -5.33301 16 -12c0 -67.333 -44 -112.666 -132 -135.999l-84 -20c114 -289.333 216.667 -485.333 308 -588
c69.333 -66 104 -128.667 104 -188c0 -35.333 -16 -59.333 -48 -72c0 -8.66699 -20 -16.667 -60 -24h-24c-86.667 0 -193.334 144 -320.001 432c-69.333 122.667 -136 262.667 -200 420l-124 8c-360 -22.667 -540 -56 -540 -100c-20 -16.667 -70.667 -114 -152 -292
c-49.333 -72 -104 -108 -164 -108h-24c-57.333 0 -90.666 14.667 -99.999 44l-8 64c0 27.333 12 91.333 36 192c0 12.667 -66.667 30 -200 52c-40 19.333 -60 40.666 -60 63.999c17.333 38 54.666 70 111.999 96l284 84c21.333 6.66699 53.333 45.334 96 116.001
c146.667 230.667 254.667 426.667 324 588c32 72.667 66.667 167.334 104 284.001c32.667 69.333 78 104 136 104zM970 1252c-101.333 -160 -180.001 -300 -236.001 -420v-4h4c38.667 0 145.334 20 320.001 60l52 4h4c-46.667 180.667 -84 290 -112 328zM1068 2465l88 -90
c-20 -84.667 -54.667 -135.667 -104 -153c-158 -96 -243.333 -173.333 -256 -232c0 -18 -46.667 -27 -140 -27l-24 -3c-18.667 21.333 -28 43.333 -28 66v12c0 51.333 69.333 125.666 208 223c40 32 89.333 87 148 165c32 26 68 39 108 39z" />
    <glyph glyph-name="Acircumflex" unicode="&#xc2;" horiz-adv-x="1652" 
d="M860 1828l12 -0.00195312c70.667 0 153.334 -48 248.001 -144v-40c0 -174 60 -435.333 180 -784l44 -4l160 8c50.667 0 76 -14.667 76 -44c10.667 -1.33301 16 -5.33301 16 -12c0 -67.333 -44 -112.666 -132 -135.999l-84 -20c114 -289.333 216.667 -485.333 308 -588
c69.333 -66 104 -128.667 104 -188c0 -35.333 -16 -59.333 -48 -72c0 -8.66699 -20 -16.667 -60 -24h-24c-86.667 0 -193.334 144 -320.001 432c-69.333 122.667 -136 262.667 -200 420l-124 8c-360 -22.667 -540 -56 -540 -100c-20 -16.667 -70.667 -114 -152 -292
c-49.333 -72 -104 -108 -164 -108h-24c-57.333 0 -90.666 14.667 -99.999 44l-8 64c0 27.333 12 91.333 36 192c0 12.667 -66.667 30 -200 52c-40 19.333 -60 40.666 -60 63.999c17.333 38 54.666 70 111.999 96l284 84c21.333 6.66699 53.333 45.334 96 116.001
c146.667 230.667 254.667 426.667 324 588c32 72.667 66.667 167.334 104 284.001c32.667 69.333 78 104 136 104zM880 1252c-101.333 -160 -180.001 -300 -236.001 -420v-4h4c38.667 0 145.334 20 320.001 60l52 4h4c-46.667 180.667 -84 290 -112 328zM864.999 2512
h37.999c38.667 -72.667 119.667 -196.334 243 -371c14.667 -22 22 -37 22 -45v-3l-16 -51l-22 -16l-51 -16c-17.333 0 -56.666 35.333 -117.999 106c-38.667 56.667 -75 102.334 -109 137c-126 -102 -194.333 -184 -205 -246c0 -19.333 -37 -29 -111 -29l-20 -3
c-14.667 22.667 -22 46 -22 70v13c0 54.667 55.333 133.667 166 237c32 34.667 71.333 93 118 175c26 28 55 42 87 42z" />
    <glyph glyph-name="Atilde" unicode="&#xc3;" horiz-adv-x="1704" 
d="M950 1828l12 -0.00195312c70.667 0 153.334 -48 248.001 -144v-40c0 -174 60 -435.333 180 -784l44 -4l160 8c50.667 0 76 -14.667 76 -44c10.667 -1.33301 16 -5.33301 16 -12c0 -67.333 -44 -112.666 -132 -135.999l-84 -20c114 -289.333 216.667 -485.333 308 -588
c69.333 -66 104 -128.667 104 -188c0 -35.333 -16 -59.333 -48 -72c0 -8.66699 -20 -16.667 -60 -24h-24c-86.667 0 -193.334 144 -320.001 432c-69.333 122.667 -136 262.667 -200 420l-124 8c-360 -22.667 -540 -56 -540 -100c-20 -16.667 -70.667 -114 -152 -292
c-49.333 -72 -104 -108 -164 -108h-24c-57.333 0 -90.666 14.667 -99.999 44l-8 64c0 27.333 12 91.333 36 192c0 12.667 -66.667 30 -200 52c-40 19.333 -60 40.666 -60 63.999c17.333 38 54.666 70 111.999 96l284 84c21.333 6.66699 53.333 45.334 96 116.001
c146.667 230.667 254.667 426.667 324 588c32 72.667 66.667 167.334 104 284.001c32.667 69.333 78 104 136 104zM970 1252c-101.333 -160 -180.001 -300 -236.001 -420v-4h4c38.667 0 145.334 20 320.001 60l52 4h4c-46.667 180.667 -84 290 -112 328zM962.999 2233
h17.998c36 0 96.333 -23.667 181 -71c42 -14 73.333 -21 94 -21h18c8 0 14 -12.333 18 -37c-3.33301 -32.667 -8.33301 -49 -15 -49c-22 0 -33 -9.66699 -33 -29l3 -7l-3 -3h-15c-154.667 0 -232 18.667 -232 56h-9c-55.333 0 -106.666 -45.333 -153.999 -136
c-22.667 -30.667 -45 -46 -67 -46h-21c-101.333 0 -193.666 25 -276.999 75c-10 30.667 -15 52.667 -15 66v20c0 37.333 11 57.333 33 60l24 3c22.667 0 76 -15.333 160 -46l45 -5h18l82 104c46 44 95 66 147 66z" />
    <glyph glyph-name="Adieresis" unicode="&#xc4;" horiz-adv-x="1628" 
d="M874 1828l12 -0.00195312c70.667 0 153.334 -48 248.001 -144v-40c0 -174 60 -435.333 180 -784l44 -4l160 8c50.667 0 76 -14.667 76 -44c10.667 -1.33301 16 -5.33301 16 -12c0 -67.333 -44 -112.666 -132 -135.999l-84 -20c114 -289.333 216.667 -485.333 308 -588
c69.333 -66 104 -128.667 104 -188c0 -35.333 -16 -59.333 -48 -72c0 -8.66699 -20 -16.667 -60 -24h-24c-86.667 0 -193.334 144 -320.001 432c-69.333 122.667 -136 262.667 -200 420l-124 8c-360 -22.667 -540 -56 -540 -100c-20 -16.667 -70.667 -114 -152 -292
c-49.333 -72 -104 -108 -164 -108h-24c-57.333 0 -90.666 14.667 -99.999 44l-8 64c0 27.333 12 91.333 36 192c0 12.667 -66.667 30 -200 52c-40 19.333 -60 40.666 -60 63.999c17.333 38 54.666 70 111.999 96l284 84c21.333 6.66699 53.333 45.334 96 116.001
c146.667 230.667 254.667 426.667 324 588c32 72.667 66.667 167.334 104 284.001c32.667 69.333 78 104 136 104zM894 1252c-101.333 -160 -180.001 -300 -236.001 -420v-4h4c38.667 0 145.334 20 320.001 60l52 4h4c-46.667 180.667 -84 290 -112 328zM755.999 2186h11
c54 -12.667 81 -36 81 -70v-5c0 -53.333 -37 -96 -111 -128l-28 -3c-36.667 0 -62.667 21.333 -78 64l-3 19v12c0 42.667 22.333 76 67 100zM1106 2186h11c54 -12.667 81 -36 81 -70v-5c0 -53.333 -37 -96 -111 -128l-28 -3c-36.667 0 -62.667 21.333 -78 64l-3 19v12
c0 42.667 22.333 76 67 100z" />
    <glyph glyph-name="Aring" unicode="&#xc5;" horiz-adv-x="1718" 
d="M937 1252c-101.333 -160 -180.001 -300 -236.001 -420v-4h4c38.667 0 145.334 20 320.001 60l52 4h4c-46.667 180.667 -84 290 -112 328zM852.999 2071c13.333 -78 49 -117 107 -117h15c20.667 12.667 31 33 31 61c-4 91.333 -14.333 137 -31 137h-40
c-54.667 0 -82 -27 -82 -81zM1010 1809c50.667 -22 106.332 -63.667 166.999 -125v-40c0 -174 60 -435.333 180 -784l44 -4l160 8c50.667 0 76 -14.667 76 -44c10.667 -1.33301 16 -5.33301 16 -12c0 -67.333 -44 -112.666 -132 -135.999l-84 -20
c114 -289.333 216.667 -485.333 308 -588c69.333 -66 104 -128.667 104 -188c0 -35.333 -16 -59.333 -48 -72c0 -8.66699 -20 -16.667 -60 -24h-24c-86.667 0 -193.334 144 -320.001 432c-69.333 122.667 -136 262.667 -200 420l-124 8c-360 -22.667 -540 -56 -540 -100
c-20 -16.667 -70.667 -114 -152 -292c-49.333 -72 -104 -108 -164 -108h-24c-57.333 0 -90.666 14.667 -99.999 44l-8 64c0 27.333 12 91.333 36 192c0 12.667 -66.667 30 -200 52c-40 19.333 -60 40.666 -60 63.999c17.333 38 54.666 70 111.999 96l284 84
c21.333 6.66699 53.333 45.334 96 116.001c146.667 230.667 254.667 426.667 324 588c32 72.667 66.667 167.334 104 284.001c18.667 39.333 41.334 67.666 68.001 84.999c-70 17.333 -121.667 62 -155 134c-6.66699 14 -10 31.667 -10 53v13c0 16 11 78 33 186v37
c76.667 75.333 155.334 113 236.001 113h50c12 0 40.667 -28.667 86 -86c56 -56 84 -109.333 84 -160v-10c0 -80 -26.667 -158.667 -80 -236c-25.333 -20.667 -53 -35.334 -83 -44.001z" />
    <glyph glyph-name="AE" unicode="&#xc6;" horiz-adv-x="2637" 
d="M975 1252c-101.333 -160 -180.001 -300 -236.001 -420v-4h4c38.667 0 145.334 20 320.001 60l52 4h4c-46.667 180.667 -84 290 -112 328zM1291 499l-56.002 132.999l-124 8c-360 -22.667 -540 -56 -540 -100c-20 -16.667 -70.667 -114 -152 -292
c-96 -145.333 -174 -218 -234 -218h-24c-57.333 0 -90.666 14.667 -99.999 44l-8 64c46.667 100.667 82 201.334 106 302.001c0 12.667 -66.667 30 -200 52c-40 19.333 -60 40.666 -60 63.999c17.333 38 54.666 70 111.999 96l284 84
c21.333 6.66699 53.333 45.334 96 116.001c146.667 230.667 254.667 426.667 324 588c32 72.667 66.667 167.334 104 284.001c32.667 69.333 78 104 136 104h12c70.667 0 153.334 -48 248.001 -144v-5c18 5.33301 37.333 10.333 58 15c5.33301 0 29.333 24 72 72
c6.66699 0 34.667 21.333 84 64h8c67.333 0 130 -33.333 188 -100h8c78 0 208.667 30.667 392 92c46 16 92.667 24 140 24h20c55.333 0 95.333 -10.667 120 -32v-32c0 -147.333 -168 -239.333 -504 -276c-194.667 -18.667 -292 -34.667 -292 -48
c-29.333 -82.667 -44 -181.334 -44 -296.001v-44c316 80 554.667 120 716 120c120 -4 180 -12 180 -24v-32c0 -16.667 6.66699 -31.334 20 -44.001c-32.667 -58 -104.667 -104.667 -216 -140c-80 -18.667 -250.667 -44 -512 -76c-53.333 -13.333 -108 -30.666 -164 -51.999
c48 -210.667 102.667 -394.667 164 -552l44 -96l20 -4c84.667 0 240.667 54.667 468 164c238.667 104 428 156 568 156c98.667 -5.33301 148 -13.333 148 -24v-132c0 -6 -53.333 -16.667 -160 -32c-292 -72.667 -557.333 -203.334 -796 -392.001
c-93.333 -58.667 -174.666 -88 -243.999 -88h-44c-102 0 -186 96 -252 288c-31.333 78.667 -69.333 192.334 -114 341.001z" />
    <glyph glyph-name="Ccedilla" unicode="&#xc7;" horiz-adv-x="2007" 
d="M895 0c-363.333 8.66699 -610.332 135.333 -740.999 380c-69.333 111.333 -104 228.666 -104 351.999v28c0 285.333 209.333 576 628 872c216 130.667 380 196 492 196h28c125.333 -10.667 188 -52 188 -124v-8c0 -86.667 -128 -158.667 -384 -216
c-134 -55.333 -287.333 -162 -460 -320c-136 -150.667 -204 -294.667 -204 -432v-36c0 -194.667 137.333 -324 412 -388c69.333 -16 145.333 -24 228 -24c289.333 0 534.666 94.667 735.999 284c46.667 30.667 140 117.334 280 260.001c133.333 117.333 248 176 344 176
l8 -12v-8c0 -102.667 -57.333 -209.334 -172 -320.001c0 -16 -69.333 -94.667 -208 -236c-256.667 -241.333 -545 -379.666 -865 -414.999c-0.666992 -100.667 -30 -151 -88 -151v-6c0 -36.667 71.667 -71 215 -103c48 -15.333 72 -30 72 -44v-14
c0 -68 -39.333 -130 -118 -186c-48 -6.66699 -82.667 -10 -104 -10h-30c-58.667 0 -90.667 7.33301 -96 22l-4 16c0 15.333 24.333 51 73 107l8 30v12l-165 55c-69.333 30.667 -104 63.667 -104 99v12c0 24 37.333 64.333 112 121c10 12 17.667 22.333 23 31z" />
    <glyph glyph-name="Egrave" unicode="&#xc8;" horiz-adv-x="1751" 
d="M1226 1816l19.999 0.00390625c55.333 0 95.333 -10.667 120 -32v-32c0 -147.333 -168 -239.333 -504 -276c-194.667 -18.667 -292 -34.667 -292 -48c-29.333 -82.667 -44 -181.334 -44 -296.001v-44c316 80 554.667 120 716 120c120 -4 180 -12 180 -24v-32
c0 -16.667 6.66699 -31.334 20 -44.001c-32.667 -58 -104.667 -104.667 -216 -140c-80 -18.667 -250.667 -44 -512 -76c-53.333 -13.333 -108 -30.666 -164 -51.999c48 -210.667 102.667 -394.667 164 -552l44 -96l20 -4c84.667 0 240.667 54.667 468 164
c238.667 104 428 156 568 156c98.667 -5.33301 148 -13.333 148 -24v-132c0 -6 -53.333 -16.667 -160 -32c-292 -72.667 -557.333 -203.334 -796 -392.001c-93.333 -58.667 -174.666 -88 -243.999 -88h-44c-102 0 -186 96 -252 288
c-48 119.333 -110.667 320.666 -188 603.999c-46.667 0 -96 20 -148 60v12c0 49.333 32 110.666 96 183.999c10.667 12 16 21.333 16 28l-4 44l12 280l4 4l-48 -4h-36c-80 0 -120 21.333 -120 64v40c0 104.667 94.667 178 284 220c5.33301 0 29.333 24 72 72
c6.66699 0 34.667 21.333 84 64h8c67.333 0 130 -33.333 188 -100h8c78 0 208.667 30.667 392 92c46 16 92.667 24 140 24zM585.999 2416c58.667 -78 108 -133 148 -165c138.667 -97.333 208 -171.666 208 -223v-12c0 -22.667 -9.33301 -44.667 -28 -66l-24 3
c-93.333 0 -140 9 -140 27c-12.667 58.667 -98 136 -256 232c-49.333 17.333 -84 68.333 -104 153l88 90c40 0 76 -13 108 -39z" />
    <glyph glyph-name="Eacute" unicode="&#xc9;" horiz-adv-x="1794" 
d="M1226 1816l19.999 0.00390625c55.333 0 95.333 -10.667 120 -32v-32c0 -147.333 -168 -239.333 -504 -276c-194.667 -18.667 -292 -34.667 -292 -48c-29.333 -82.667 -44 -181.334 -44 -296.001v-44c316 80 554.667 120 716 120c120 -4 180 -12 180 -24v-32
c0 -16.667 6.66699 -31.334 20 -44.001c-32.667 -58 -104.667 -104.667 -216 -140c-80 -18.667 -250.667 -44 -512 -76c-53.333 -13.333 -108 -30.666 -164 -51.999c48 -210.667 102.667 -394.667 164 -552l44 -96l20 -4c84.667 0 240.667 54.667 468 164
c238.667 104 428 156 568 156c98.667 -5.33301 148 -13.333 148 -24v-132c0 -6 -53.333 -16.667 -160 -32c-292 -72.667 -557.333 -203.334 -796 -392.001c-93.333 -58.667 -174.666 -88 -243.999 -88h-44c-102 0 -186 96 -252 288
c-48 119.333 -110.667 320.666 -188 603.999c-46.667 0 -96 20 -148 60v12c0 49.333 32 110.666 96 183.999c10.667 12 16 21.333 16 28l-4 44l12 280l4 4l-48 -4h-36c-80 0 -120 21.333 -120 64v40c0 104.667 94.667 178 284 220c5.33301 0 29.333 24 72 72
c6.66699 0 34.667 21.333 84 64h8c67.333 0 130 -33.333 188 -100h8c78 0 208.667 30.667 392 92c46 16 92.667 24 140 24zM943.999 2485l88 -90c-20 -84.667 -54.667 -135.667 -104 -153c-158 -96 -243.333 -173.333 -256 -232c0 -18 -46.667 -27 -140 -27l-24 -3
c-18.667 21.333 -28 43.333 -28 66v12c0 51.333 69.333 125.666 208 223c40 32 89.333 87 148 165c32 26 68 39 108 39z" />
    <glyph glyph-name="Ecircumflex" unicode="&#xca;" horiz-adv-x="1774" 
d="M1226 1816l19.999 0.00390625c55.333 0 95.333 -10.667 120 -32v-32c0 -147.333 -168 -239.333 -504 -276c-194.667 -18.667 -292 -34.667 -292 -48c-29.333 -82.667 -44 -181.334 -44 -296.001v-44c316 80 554.667 120 716 120c120 -4 180 -12 180 -24v-32
c0 -16.667 6.66699 -31.334 20 -44.001c-32.667 -58 -104.667 -104.667 -216 -140c-80 -18.667 -250.667 -44 -512 -76c-53.333 -13.333 -108 -30.666 -164 -51.999c48 -210.667 102.667 -394.667 164 -552l44 -96l20 -4c84.667 0 240.667 54.667 468 164
c238.667 104 428 156 568 156c98.667 -5.33301 148 -13.333 148 -24v-132c0 -6 -53.333 -16.667 -160 -32c-292 -72.667 -557.333 -203.334 -796 -392.001c-93.333 -58.667 -174.666 -88 -243.999 -88h-44c-102 0 -186 96 -252 288
c-48 119.333 -110.667 320.666 -188 603.999c-46.667 0 -96 20 -148 60v12c0 49.333 32 110.666 96 183.999c10.667 12 16 21.333 16 28l-4 44l12 280l4 4l-48 -4h-36c-80 0 -120 21.333 -120 64v40c0 104.667 94.667 178 284 220c5.33301 0 29.333 24 72 72
c6.66699 0 34.667 21.333 84 64h8c67.333 0 130 -33.333 188 -100h8c78 0 208.667 30.667 392 92c46 16 92.667 24 140 24zM740.999 2512h37.999c38.667 -72.667 119.667 -196.334 243 -371c14.667 -22 22 -37 22 -45v-3l-16 -51l-73 -32
c-17.333 0 -56.666 35.333 -117.999 106c-38.667 56.667 -75 102.334 -109 137c-126 -102 -194.333 -184 -205 -246c0 -19.333 -37 -29 -111 -29l-20 -3c-14.667 22.667 -22 46 -22 70v13c0 54.667 55.333 133.667 166 237c32 34.667 71.333 93 118 175c26 28 55 42 87 42z
" />
    <glyph glyph-name="Edieresis" unicode="&#xcb;" horiz-adv-x="1713" 
d="M1226 1816l19.999 0.00390625c55.333 0 95.333 -10.667 120 -32v-32c0 -147.333 -168 -239.333 -504 -276c-194.667 -18.667 -292 -34.667 -292 -48c-29.333 -82.667 -44 -181.334 -44 -296.001v-44c316 80 554.667 120 716 120c120 -4 180 -12 180 -24v-32
c0 -16.667 6.66699 -31.334 20 -44.001c-32.667 -58 -104.667 -104.667 -216 -140c-80 -18.667 -250.667 -44 -512 -76c-53.333 -13.333 -108 -30.666 -164 -51.999c48 -210.667 102.667 -394.667 164 -552l44 -96l20 -4c84.667 0 240.667 54.667 468 164
c238.667 104 428 156 568 156c98.667 -5.33301 148 -13.333 148 -24v-132c0 -6 -53.333 -16.667 -160 -32c-292 -72.667 -557.333 -203.334 -796 -392.001c-93.333 -58.667 -174.666 -88 -243.999 -88h-44c-102 0 -186 96 -252 288
c-48 119.333 -110.667 320.666 -188 603.999c-46.667 0 -96 20 -148 60v12c0 49.333 32 110.666 96 183.999c10.667 12 16 21.333 16 28l-4 44l12 280l4 4l-48 -4h-36c-80 0 -120 21.333 -120 64v40c0 104.667 94.667 178 284 220c5.33301 0 29.333 24 72 72
c6.66699 0 34.667 21.333 84 64h8c67.333 0 130 -33.333 188 -100h8c78 0 208.667 30.667 392 92c46 16 92.667 24 140 24zM517.999 2166h11c54 -12.667 81 -36 81 -70v-5c0 -53.333 -37 -96 -111 -128l-28 -3c-36.667 0 -62.667 21.333 -78 64l-3 19v12
c0 42.667 22.333 76 67 100zM867.999 2166h11c54 -12.667 81 -36 81 -70v-5c0 -53.333 -37 -96 -111 -128l-28 -3c-36.667 0 -62.667 21.333 -78 64l-3 19v12c0 42.667 22.333 76 67 100z" />
    <glyph glyph-name="Igrave" unicode="&#xcc;" horiz-adv-x="662" 
d="M288 1982h20.001c79.333 0 134 -44 164 -132v-16l-36 -132c-8 -65.333 -12 -132 -12 -200v-100c0 -192 -14.667 -578.667 -44 -1160l32 -328c-32 -42.667 -81.333 -64 -148 -64c-72 6.66699 -108 22.667 -108 48c8 758 12 1254 12 1488
c-4.66699 0 -7.33398 82.667 -8.00098 248v188c0 58 6.66699 95.333 20 112c34 32 70 48 108 48zM246.001 2526c58.667 -78 108 -133 148 -165c138.667 -97.333 208 -171.666 208 -223v-12c0 -22.667 -9.33301 -44.667 -28 -66l-24 3c-93.333 0 -140 9 -140 27
c-12.667 58.667 -98 136 -256 232c-49.333 17.333 -84 68.333 -104 153l88 90c40 0 76 -13 108 -39z" />
    <glyph glyph-name="Iacute" unicode="&#xcd;" horiz-adv-x="652" 
d="M278 1982h20.001c79.333 0 134 -44 164 -132v-16l-36 -132c-8 -65.333 -12 -132 -12 -200v-100c0 -192 -14.667 -578.667 -44 -1160l32 -328c-32 -42.667 -81.333 -64 -148 -64c-72 6.66699 -108 22.667 -108 48c8 758 12 1254 12 1488
c-4.66699 0 -7.33398 82.667 -8.00098 248v188c0 58 6.66699 95.333 20 112c34 32 70 48 108 48zM514.001 2605l88 -90c-20 -84.667 -54.667 -135.667 -104 -153c-158 -96 -243.333 -173.333 -256 -232c0 -18 -46.667 -27 -140 -27l-24 -3c-18.667 21.333 -28 43.333 -28 66
v12c0 51.333 69.333 125.666 208 223c40 32 89.333 87 148 165c32 26 68 39 108 39z" />
    <glyph glyph-name="Icircumflex" unicode="&#xce;" horiz-adv-x="774" 
d="M348 1982h20.001c79.333 0 134 -44 164 -132v-16l-36 -132c-8 -65.333 -12 -132 -12 -200v-100c0 -192 -14.667 -578.667 -44 -1160l32 -328c-32 -42.667 -81.333 -64 -148 -64c-72 6.66699 -108 22.667 -108 48c8 758 12 1254 12 1488
c-4.66699 0 -7.33398 82.667 -8.00098 248v188c0 58 6.66699 95.333 20 112c34 32 70 48 108 48zM421.001 2612h37.999c38.667 -72.667 119.667 -196.334 243 -371c14.667 -22 22 -37 22 -45v-3l-16 -51l7 -25l-3 -4h-4c0 4.66699 -7.33301 9 -22 13l-51 -16
c-17.333 0 -56.666 35.333 -117.999 106c-38.667 56.667 -75 102.334 -109 137c-126 -102 -194 -184 -204 -246c0 -19.333 -37.333 -29 -112 -29l-19 -3c-15.333 22.667 -23 46 -23 70v13c0 54.667 55.667 133.667 167 237c31.333 34.667 70.333 93 117 175
c26 28 55 42 87 42z" />
    <glyph glyph-name="Idieresis" unicode="&#xcf;" horiz-adv-x="672" 
d="M298 1982h20.001c79.333 0 134 -44 164 -132v-16l-36 -132c-8 -65.333 -12 -132 -12 -200v-100c0 -192 -8 -578.667 -24 -1160l32 -328c-32 -42.667 -81.333 -64 -148 -64c-72 6.66699 -108 22.667 -108 48c-5.33301 758 -8 1254 -8 1488
c-4.66699 0 -7.33398 82.667 -8.00098 248v188c0 58 6.66699 95.333 20 112c34 32 70 48 108 48zM178.001 2346h11c54 -12.667 81 -36 81 -70v-5c0 -53.333 -37 -96 -111 -128l-28 -3c-36 0 -62 21.333 -78 64l-3 19v12c0 42.667 22.333 76 67 100zM528.001 2346h11
c54 -12.667 81 -36 81 -70v-5c0 -53.333 -37 -96 -111 -128l-28 -3c-36.667 0 -62.667 21.333 -78 64l-3 19v12c0 42.667 22.333 76 67 100z" />
    <glyph glyph-name="Eth" unicode="&#xd0;" horiz-adv-x="2190" 
d="M108 799c11.333 12 24.666 23.665 39.999 34.998c37.333 13.333 86.666 20 147.999 20h48c40.667 0 93.667 -1.66699 159 -5l-19 127c-13.333 104 -20 204 -20 300c-36 28.667 -70.667 46.667 -104 54c-106.667 24.667 -160 66 -160 124v32c0 30 41.333 68.667 124 116
c24.667 -22.667 63.334 -34 116.001 -34v8c0 46 44 80.667 132 104l32 4h20c74 0 111.333 -50.667 112 -152c74.667 -51.333 233.334 -110 476.001 -176l632 -312c197.333 -103.333 296 -215.333 296 -336v-20c0 -231.333 -272 -428.666 -816 -591.999l-348 -80v-16l4 -36
c0 -14.667 -44 -34.667 -132 -60l-36 -4c-21.333 0 -58.666 16 -111.999 48l-188 -6c-56.667 13.333 -95.334 36 -116.001 68l-12 28c20 74.667 49.333 124 88 148l40 28c12.667 -4 32.667 -6 60 -6h20l-54 396l-168 8l-200 -12h-32c-58.667 0 -88 22.667 -88 68v12
c0 42.667 19.333 82.334 58 119.001zM746 823.998c94 -6 200.666 -14.0029 319.999 -24.0029c16 -23.333 24 -48.666 24 -75.999v-4c0 -53.333 -26.667 -100 -80 -140l-224 11c21.333 -109.333 47.333 -225 78 -347h4c207.333 34 378 75.333 512 124
c236 91.333 368 155.333 396 192c37.333 38 56 71.333 56 100v16c0 86.667 -142.667 198.334 -428 335.001s-510.666 205 -675.999 205h-12v-4c0 -115.333 10 -244.666 30 -387.999z" />
    <glyph glyph-name="Ntilde" unicode="&#xd1;" horiz-adv-x="1400" 
d="M1190 1986l15.998 -0.00195312c68 0 114.667 -37.333 140 -112l4 -28c-21.333 -61.333 -32 -108 -32 -140l-16 -920c0 -252 16 -497.333 48 -736v-52c0 -120 -22.667 -180 -68 -180l-72 -8h-8c-137.333 0 -273.333 114.667 -408 344c-46 67.333 -139.333 230 -280 488
l-92 132h-4c-37.333 -116 -65.333 -318.667 -84 -608c-3.33301 -138.667 -11.333 -208 -24 -208c-31.333 -21.333 -72.666 -32 -123.999 -32h-20c-44.667 0 -70 12 -76 36c-26.667 64 -40 132 -40 204v44c0 90 29.333 315.333 88 676c7.33301 72.667 14 215.334 20 428.001
c14.667 107.333 37.334 182 68.001 224l4 4l4 -4h92l60 4c74 -140.667 178 -394 312 -760c102 -235.333 199.333 -404.666 292 -507.999l60 -64h4l24 1728c34.667 32 72 48 112 48zM828.998 2313h17.998c36 0 96.333 -23.667 181 -71c42 -14 73.333 -21 94 -21h18
c8 0 14 -12.333 18 -37c-3.33301 -32.667 -8.33301 -49 -15 -49c-22 0 -33 -9.66699 -33 -29l3 -7l-3 -3h-15c-154.667 0 -232 18.667 -232 56h-9c-55.333 0 -106.666 -45.333 -153.999 -136c-22.667 -30.667 -45 -46 -67 -46h-21c-101.333 0 -193.666 25 -276.999 75
c-10 30.667 -15 52.667 -15 66v20c0 37.333 11 57.333 33 60l24 3c22.667 0 76 -15.333 160 -46l45 -5h18l82 104c46 44 95 66 147 66z" />
    <glyph glyph-name="Ograve" unicode="&#xd2;" horiz-adv-x="1324" 
d="M642 1878l16 0.000976562c255.333 0 451.333 -292 588 -876c18.667 -106 28 -207.333 28 -304v-16c0 -226 -49.333 -414 -148 -564c-122.667 -138.667 -256 -208 -400 -208h-44c-170 0 -322 100 -456 300c-117.333 202 -176 431.333 -176 688v60
c0 317.333 60 577.333 180 780c61.333 65.333 124 102.666 188 111.999c92 18.667 166.667 28 224 28zM514 1510l-63.998 12.001h-16c-16.667 -4 -42 -61.333 -76 -172c-34.667 -138 -52 -268.667 -52 -392c12 -408.667 114.667 -667.334 308 -776.001
c44 -18.667 81.333 -28 112 -28h16c104 0 189.333 77.333 256 232c26.667 84.667 40 172.667 40 264v48c0 237.333 -60 480 -180 728c-90.667 141.333 -165.334 212 -224.001 212h-12c-42.667 0 -77.334 -42.667 -104.001 -128h-4zM506.002 2446
c58.667 -78 108 -133 148 -165c138.667 -97.333 208 -171.666 208 -223v-12c0 -22.667 -9.33301 -44.667 -28 -66l-24 3c-93.333 0 -140 9 -140 27c-12.667 58.667 -98 136 -256 232c-49.333 17.333 -84 68.333 -104 153l88 90c40 0 76 -13 108 -39z" />
    <glyph glyph-name="Oacute" unicode="&#xd3;" horiz-adv-x="1324" 
d="M642 1878l16 0.000976562c255.333 0 451.333 -292 588 -876c18.667 -106 28 -207.333 28 -304v-16c0 -226 -49.333 -414 -148 -564c-122.667 -138.667 -256 -208 -400 -208h-44c-170 0 -322 100 -456 300c-117.333 202 -176 431.333 -176 688v60
c0 317.333 60 577.333 180 780c61.333 65.333 124 102.666 188 111.999c92 18.667 166.667 28 224 28zM514 1510l-63.998 12.001h-16c-16.667 -4 -42 -61.333 -76 -172c-34.667 -138 -52 -268.667 -52 -392c12 -408.667 114.667 -667.334 308 -776.001
c44 -18.667 81.333 -28 112 -28h16c104 0 189.333 77.333 256 232c26.667 84.667 40 172.667 40 264v48c0 237.333 -60 480 -180 728c-90.667 141.333 -165.334 212 -224.001 212h-12c-42.667 0 -77.334 -42.667 -104.001 -128h-4zM704.002 2535l88 -90
c-20 -84.667 -54.667 -135.667 -104 -153c-158 -96 -243.333 -173.333 -256 -232c0 -18 -46.667 -27 -140 -27l-24 -3c-18.667 21.333 -28 43.333 -28 66v12c0 51.333 69.333 125.666 208 223c40 32 89.333 87 148 165c32 26 68 39 108 39z" />
    <glyph glyph-name="Ocircumflex" unicode="&#xd4;" horiz-adv-x="1324" 
d="M642 1878l16 0.000976562c255.333 0 451.333 -292 588 -876c18.667 -106 28 -207.333 28 -304v-16c0 -226 -49.333 -414 -148 -564c-122.667 -138.667 -256 -208 -400 -208h-44c-170 0 -322 100 -456 300c-117.333 202 -176 431.333 -176 688v60
c0 317.333 60 577.333 180 780c61.333 65.333 124 102.666 188 111.999c92 18.667 166.667 28 224 28zM514 1510l-63.998 12.001h-16c-16.667 -4 -42 -61.333 -76 -172c-34.667 -138 -52 -268.667 -52 -392c12 -408.667 114.667 -667.334 308 -776.001
c44 -18.667 81.333 -28 112 -28h16c104 0 189.333 77.333 256 232c26.667 84.667 40 172.667 40 264v48c0 237.333 -60 480 -180 728c-90.667 141.333 -165.334 212 -224.001 212h-12c-42.667 0 -77.334 -42.667 -104.001 -128h-4zM581.002 2542h37.999
c38.667 -72.667 119.667 -196.334 243 -371c14.667 -22 22 -37 22 -45v-3l-16 -51l7 -25l-3 -4h-4c0 4.66699 -7.33301 9 -22 13l-51 -16c-17.333 0 -56.666 35.333 -117.999 106c-38.667 56.667 -75 102.334 -109 137c-126 -102 -194.333 -184 -205 -246
c0 -19.333 -37 -29 -111 -29l-20 -3c-14.667 22.667 -22 46 -22 70v13c0 54.667 55.333 133.667 166 237c32 34.667 71.333 93 118 175c26 28 55 42 87 42z" />
    <glyph glyph-name="Otilde" unicode="&#xd5;" horiz-adv-x="1324" 
d="M642 1878l16 0.000976562c255.333 0 451.333 -292 588 -876c18.667 -106 28 -207.333 28 -304v-16c0 -226 -49.333 -414 -148 -564c-122.667 -138.667 -256 -208 -400 -208h-44c-170 0 -322 100 -456 300c-117.333 202 -176 431.333 -176 688v60
c0 317.333 60 577.333 180 780c61.333 65.333 124 102.666 188 111.999c92 18.667 166.667 28 224 28zM514 1510l-63.998 12.001h-16c-16.667 -4 -42 -61.333 -76 -172c-34.667 -138 -52 -268.667 -52 -392c12 -408.667 114.667 -667.334 308 -776.001
c44 -18.667 81.333 -28 112 -28h16c104 0 189.333 77.333 256 232c26.667 84.667 40 172.667 40 264v48c0 237.333 -60 480 -180 728c-90.667 141.333 -165.334 212 -224.001 212h-12c-42.667 0 -77.334 -42.667 -104.001 -128h-4zM589.002 2313h17.998
c36 0 96.333 -23.667 181 -71c42 -14 73.333 -21 94 -21h18c8 0 14 -12.333 18 -37c-3.33301 -32.667 -8.33301 -49 -15 -49c-22 0 -33 -9.66699 -33 -29l3 -7l-3 -3h-15c-154.667 0 -232 18.667 -232 56h-9c-55.333 0 -106.666 -45.333 -153.999 -136
c-22.667 -30.667 -45 -46 -67 -46h-21c-101.333 0 -193.666 25 -276.999 75c-10 30.667 -15 52.667 -15 66v20c0 37.333 11 57.333 33 60l24 3c22.667 0 76 -15.333 160 -46l45 -5h18l82 104c46 44 95 66 147 66z" />
    <glyph glyph-name="Odieresis" unicode="&#xd6;" horiz-adv-x="1324" 
d="M642 1878l16 0.000976562c255.333 0 451.333 -292 588 -876c18.667 -106 28 -207.333 28 -304v-16c0 -226 -49.333 -414 -148 -564c-122.667 -138.667 -256 -208 -400 -208h-44c-170 0 -322 100 -456 300c-117.333 202 -176 431.333 -176 688v60
c0 317.333 60 577.333 180 780c61.333 65.333 124 102.666 188 111.999c92 18.667 166.667 28 224 28zM514 1510l-63.998 12.001h-16c-16.667 -4 -42 -61.333 -76 -172c-34.667 -138 -52 -268.667 -52 -392c12 -408.667 114.667 -667.334 308 -776.001
c44 -18.667 81.333 -28 112 -28h16c104 0 189.333 77.333 256 232c26.667 84.667 40 172.667 40 264v48c0 237.333 -60 480 -180 728c-90.667 141.333 -165.334 212 -224.001 212h-12c-42.667 0 -77.334 -42.667 -104.001 -128h-4zM408.002 2196h11
c54 -12.667 81 -36 81 -70v-5c0 -53.333 -37 -96 -111 -128l-28 -3c-36.667 0 -62.667 21.333 -78 64l-3 19v12c0 42.667 22.333 76 67 100zM758.002 2196h11c54 -12.667 81 -36 81 -70v-5c0 -53.333 -37 -96 -111 -128l-28 -3c-36.667 0 -62.667 21.333 -78 64l-3 19v12
c0 42.667 22.333 76 67 100z" />
    <glyph glyph-name="multiply" unicode="&#xd7;" horiz-adv-x="1192" 
d="M996 1095h18.001c58.667 0 99 -32.333 121 -97l7 -32c-107.333 -116.667 -195.333 -196.667 -264 -240l-160 -108c76.667 -64.667 180 -145.667 310 -243l-7 -45l7 -49c-50.667 -36.667 -96 -55 -136 -55c-68.667 0 -166 54.333 -292 163l-87 52
c-39.333 -4.66699 -104.333 -48.667 -195 -132c-66.667 -62.667 -130.334 -94 -191.001 -94c-5.33301 -23.333 -11.333 -35 -18 -35h-7c-22 0 -39.333 27 -52 81v17c0 53.333 58 134.333 174 243c42 46 63 76 63 90c-18 29.333 -54 76 -108 140c-28 40 -42 78 -42 114
c0 58 18.667 93 56 105l87 45h17c44.667 0 99.334 -65 164.001 -195c22 -28 40.333 -42 55 -42c31.333 0 145 84.667 341 254c47.333 42 93.666 63 138.999 63z" />
    <glyph glyph-name="Oslash" unicode="&#xd8;" horiz-adv-x="1410" 
d="M915 1298c-17.333 42.667 -36.3311 85.333 -56.998 128c-90.667 141.333 -165.334 212 -224.001 212h-12c-42.667 0 -77.334 -42.667 -104.001 -128h-4l-64 12h-16c-16.667 -4 -42 -61.333 -76 -172c-34.667 -138 -52 -268.667 -52 -392
c4.66699 -154 22 -286.667 52 -398l46 68l509 668zM1000 1027l-476 -635.002l-54 -80c40.667 -55.333 88.667 -98.666 144 -129.999c44 -18.667 81.333 -28 112 -28h16c104 0 189.333 77.333 256 232c26.667 84.667 40 172.667 40 264v48
c0 108.667 -12.667 218.334 -38 329.001zM185.002 286.997c-90 182.667 -134.999 386.334 -134.999 611.001v60c0 317.333 60 577.333 180 780c61.333 65.333 124 102.666 188 111.999c92 18.667 166.667 28 224 28h16c162 0 300 -117.333 414 -352
c47.333 72.667 81.333 130.667 102 174c36.667 50.667 70.667 76 102 76h12c26 0 50 -18.667 72 -56c0 -84.667 -30 -186 -90 -304c-32.667 -36 -66.334 -81.333 -101.001 -136c27.333 -84 53 -176.667 77 -278c18.667 -106 28 -207.333 28 -304v-16
c0 -226 -49.333 -414 -148 -564c-122.667 -138.667 -256 -208 -400 -208h-44c-129.333 0 -248 57.667 -356 173c-30.667 -52 -56.667 -99.667 -78 -143c-67.333 -40 -105.333 -60 -114 -60h-6c-8 4.66699 -12 14 -12 28v8l6 32l-36 -8c-14 8 -21 20 -21 36l3 4
c-8 0 -14 5.33301 -18 16v8c18.667 68 63.667 162.333 135 283z" />
    <glyph glyph-name="Ugrave" unicode="&#xd9;" 
d="M1022 2038c26 -33.333 60.667 -119.999 104 -259.999c77.333 -277.333 116 -548 116 -812c0 -413.333 -89.333 -712 -268 -896c-115.333 -93.333 -232.666 -140 -351.999 -140c-178.667 0 -314.667 105.333 -408 316c-109.333 212 -164 480 -164 804v64
c0 259.333 36 488.666 108 687.999c7.33301 5.33301 48.666 12 123.999 20c69.333 0 104 -33.333 104 -100l-44 -224c-14.667 -114.667 -22.667 -229.334 -24 -344.001c0 -507.333 101.333 -830 304 -968l48 -12c67.333 0 138 66.667 212 200c56 134 84 307.333 84 520v36
c0 408 -49.333 729.333 -148 964c-5.33301 10.667 -8 25.334 -8 44.001v16c0 48 30.667 76 92 84h120zM346 2546c58.667 -78 108 -133.001 148 -165.001c138.667 -97.333 208 -171.666 208 -222.999v-12c0 -22.667 -9.33301 -44.667 -28 -66l-24 3c-93.333 0 -140 9 -140 27
c-12.667 58.667 -98 136 -256 232c-49.333 17.333 -84 68.333 -104 153l88 90c40 0 76 -13 108 -39z" />
    <glyph glyph-name="Uacute" unicode="&#xda;" 
d="M1022 2038c26 -33.333 60.667 -119.999 104 -259.999c77.333 -277.333 116 -548 116 -812c0 -413.333 -89.333 -712 -268 -896c-115.333 -93.333 -232.666 -140 -351.999 -140c-178.667 0 -314.667 105.333 -408 316c-109.333 212 -164 480 -164 804v64
c0 259.333 36 488.666 108 687.999c7.33301 5.33301 48.666 12 123.999 20c69.333 0 104 -33.333 104 -100l-44 -224c-14.667 -114.667 -22.667 -229.334 -24 -344.001c0 -507.333 101.333 -830 304 -968l48 -12c67.333 0 138 66.667 212 200c56 134 84 307.333 84 520v36
c0 408 -49.333 729.333 -148 964c-5.33301 10.667 -8 25.334 -8 44.001v16c0 48 30.667 76 92 84h120zM724 2565l88 -89.999c-20 -84.667 -54.667 -135.667 -104 -153c-158 -96 -243.333 -173.333 -256 -232c0 -18 -46.667 -27 -140 -27l-24 -3
c-18.667 21.333 -28 43.333 -28 66v12c0 51.333 69.333 125.666 208 222.999c40 32 89.333 87 148 165c32 26 68 39 108 39z" />
    <glyph glyph-name="Ucircumflex" unicode="&#xdb;" 
d="M1022 2038c26 -33.333 60.667 -119.999 104 -259.999c77.333 -277.333 116 -548 116 -812c0 -413.333 -89.333 -712 -268 -896c-115.333 -93.333 -232.666 -140 -351.999 -140c-178.667 0 -314.667 105.333 -408 316c-109.333 212 -164 480 -164 804v64
c0 259.333 36 488.666 108 687.999c7.33301 5.33301 48.666 12 123.999 20c69.333 0 104 -33.333 104 -100l-44 -224c-14.667 -114.667 -22.667 -229.334 -24 -344.001c0 -507.333 101.333 -830 304 -968l48 -12c67.333 0 138 66.667 212 200c56 134 84 307.333 84 520v36
c0 408 -49.333 729.333 -148 964c-5.33301 10.667 -8 25.334 -8 44.001v16c0 48 30.667 76 92 84h120zM521 2652l37.999 -0.000976562c38.667 -72.667 119.667 -196.334 243 -371c14.667 -22 22 -37 22 -45v-3l-16 -51l7 -25l-3 -4h-4c0 4.66699 -7.33301 9 -22 13l-51 -16
c-17.333 0 -56.666 35.333 -117.999 106c-38.667 56.667 -75 102.334 -109 137.001c-126 -102 -194.333 -184 -205 -246c0 -19.333 -37 -29 -111 -29l-20 -3c-14.667 22.667 -22 46 -22 70v13c0 54.667 55.333 133.667 166 237c32 34.667 71.333 93 118 175
c26 28 55 42 87 42z" />
    <glyph glyph-name="Udieresis" unicode="&#xdc;" 
d="M1022 2038c26 -33.333 60.667 -119.999 104 -259.999c77.333 -277.333 116 -548 116 -812c0 -413.333 -89.333 -712 -268 -896c-115.333 -93.333 -232.666 -140 -351.999 -140c-178.667 0 -314.667 105.333 -408 316c-109.333 212 -164 480 -164 804v64
c0 259.333 36 488.666 108 687.999c7.33301 5.33301 48.666 12 123.999 20c69.333 0 104 -33.333 104 -100l-44 -224c-14.667 -114.667 -22.667 -229.334 -24 -344.001c0 -507.333 101.333 -830 304 -968l48 -12c67.333 0 138 66.667 212 200c56 134 84 307.333 84 520v36
c0 408 -49.333 729.333 -148 964c-5.33301 10.667 -8 25.334 -8 44.001v16c0 48 30.667 76 92 84h120zM268 2196h11c54 -12.667 81 -36 81 -70v-5c0 -53.333 -37 -96 -111 -128l-28 -3c-36.667 0 -62.667 21.333 -78 64l-3 19v12c0 42.667 22.333 76 67 100zM618 2196h11
c54 -12.667 81 -36 81 -70v-5c0 -53.333 -37 -96 -111 -128l-28 -3c-36.667 0 -62.667 21.333 -78 64l-3 19v12c0 42.667 22.333 76 67 100z" />
    <glyph glyph-name="Yacute" unicode="&#xdd;" horiz-adv-x="1635" 
d="M1170 2040l8 -0.00488281l41 -15h60c49.333 0 74 -25 74 -75c42.667 -195.333 91.334 -514 146.001 -956c57.333 -340.667 86 -661.667 86 -963v-60c0 -258 -83.333 -500.667 -250 -728c-118 -139.333 -258.667 -209 -422 -209h-11c-276 0 -516.333 175.667 -721 527
c-87.333 158.667 -131 311.334 -131 458.001v27c0 124.667 46 214.334 138 269.001l26 3c10 0 20 -10 30 -30h19c14 0 31.333 -75.667 52 -227c34.667 -170.667 72 -295 112 -373c164.667 -291.333 315.334 -437 452.001 -437c69.333 0 151.666 53.333 246.999 160
c126.667 168.667 190 417.667 190 747c-11.333 308 -31.333 476 -60 504c-20 82 -44.667 245 -74 489c-4 0 -46.333 -73.333 -127 -220c-166 -284 -364 -426 -594 -426c-150.667 0 -246.667 59.667 -288 179c-12 51.333 -18 112.333 -18 183
c0 179.333 64.667 413.333 194 702c56.667 94.667 115 142 175 142h23c54 0 96.333 -23.667 127 -71l7 -44c0 -34 -26 -92.667 -78 -176c-80 -180.667 -120 -350 -120 -508c5.33301 -94.667 10.333 -142 15 -142c111.333 32.667 228.333 158.334 351 377.001
c53.333 100.667 105.666 240.334 156.999 419.001c27.333 100.667 52.333 236.334 75 407.001c6.66699 7.33301 16.667 11 30 11zM496 1856v-12l-12 4v4zM1024 2542l88 -119.999c-20 -112.667 -54.667 -180.667 -104 -204c-158 -127.333 -243.333 -230 -256 -308
c0 -24 -46.667 -36 -140 -36l-24 -4c-18.667 28 -28 57.333 -28 88v16c0 68 69.333 166.667 208 296c40 43.333 89.333 116.666 148 219.999c32 34.667 68 52 108 52z" />
    <glyph glyph-name="Thorn" unicode="&#xde;" horiz-adv-x="1183" 
d="M366 1047l3 -34l-8 -206c9.33301 -118 40.333 -177 93 -177c144 26.667 250 74 318 142c36.667 58.667 55 116 55 172v16c0 86.667 -49.333 159 -148 217c-127.333 0 -215 -30.333 -263 -91c-25.333 -23.333 -42 -36.333 -50 -39zM337 367
c0 -63.333 13.6689 -144.335 41.002 -243.002v-57c0 -68.667 -15 -107.667 -45 -117c-22.667 0 -64.334 -10 -125.001 -30c-18 18.667 -45.667 40.334 -83 65.001c-74.667 348.667 -112 680.667 -112 996v152c0 213.333 9.66699 365 29 455l-33 26c16.667 0 32 65 46 195
c47.333 37.333 90 56 128 56h17c52.667 0 79 -23 79 -69c19.333 -106.667 29 -222.334 29 -347.001l-17 -120c8.66699 8.66699 17.667 18.334 27 29.001c57.333 30.667 191.666 46 402.999 46h5c181.333 0 307.333 -90.667 378 -272c19.333 -47.333 29 -100.666 29 -159.999
v-39c0 -206 -95 -372 -285 -498c-104 -50.667 -232 -76 -384 -76h-19c-48 0 -84 2.66699 -108 8z" />
    <glyph glyph-name="germandbls" unicode="&#xdf;" horiz-adv-x="1505" 
d="M738 2081l136.001 0.00195312c142 0 247 -100.667 315 -302l-2 -106c-38 -180.667 -165 -353 -381 -517l-37 -62v-24c0 -62.667 177 -159.334 531 -290.001c102.667 -55.333 154 -162.333 154 -321c0 -16.667 -0.666992 -34 -2 -52c-12 -187.333 -118 -303.333 -318 -348
c-52.667 -12 -102.334 -18 -149.001 -18c-128.667 0 -231.667 46 -309 138l-8 49c0 54 29.333 100.667 88 140h9c68.667 -52 147 -78 235 -78c58 7.33301 97.333 55.666 118 144.999c1.33301 5.33301 2 11.333 2 18c0 87.333 -134.333 205.333 -403 354
c-146.667 124.667 -220 223 -220 295c0 60 103 193.667 309 401c34.667 49.333 52 90.333 52 123v33c0 67.333 -56 111 -168 131c-80 -25.333 -155.667 -101.666 -227 -228.999c-94 -202 -141 -365.667 -141 -491v-155c0 -356 53.667 -716.333 161 -1081v-41
c0 -48.667 -35.667 -76.334 -107 -83.001h-131c-96.667 87.333 -158.334 412.333 -185.001 975l-10 148v180c18.667 561.333 197.334 909.333 536.001 1044z" />
    <glyph glyph-name="agrave" unicode="&#xe0;" horiz-adv-x="1228" 
d="M894 1090h19.998c52.667 0 87.334 -44 104.001 -132c0 -48.667 28 -198 84 -448c40 -142 97.333 -260.667 172 -356c45.333 -66.667 68 -118.667 68 -156v-24c0 -32 -20 -48 -60 -48c-39.333 -24 -64.666 -36 -75.999 -36c-74 26 -140.667 84.667 -200 176
c-34 64.667 -88.667 190 -164 376l-24 32c-98 -152.667 -182 -268.667 -252 -348c-88.667 -90.667 -188.667 -136 -300 -136c-108 0 -178.667 56 -212 168l-4 52v16c0 151.333 97.333 338 292 560c120.667 98.667 260.667 182.667 420 252c45.333 34.667 89.333 52 132 52z
M333.998 266l4 -4h4c64.667 0 130 56 196 168c120 149.333 180 265.333 180 348l-4 4h-8c-46 -14 -131.333 -84.667 -256 -212c-77.333 -96 -116 -197.333 -116 -304zM615.998 1666c58.667 -78 108 -133.001 148 -165.001c138.667 -97.333 208 -171.666 208 -222.999v-12
c0 -22.667 -9.33301 -44.667 -28 -66l-24 3c-93.333 0 -140 9 -140 27c-12.667 58.667 -98 136 -256 232c-49.333 17.333 -84 68.333 -104 153l88 90c40 0 76 -13 108 -39z" />
    <glyph glyph-name="aacute" unicode="&#xe1;" horiz-adv-x="1209" 
d="M894 1090h19.998c52.667 0 87.334 -44 104.001 -132c0 -48.667 28 -198 84 -448c40 -142 97.333 -260.667 172 -356c45.333 -66.667 68 -118.667 68 -156v-24c0 -32 -20 -48 -60 -48c-39.333 -24 -64.666 -36 -75.999 -36c-74 26 -140.667 84.667 -200 176
c-34 64.667 -88.667 190 -164 376l-24 32c-98 -152.667 -182 -268.667 -252 -348c-88.667 -90.667 -188.667 -136 -300 -136c-108 0 -178.667 56 -212 168l-4 52v16c0 151.333 97.333 338 292 560c120.667 98.667 260.667 182.667 420 252c45.333 34.667 89.333 52 132 52z
M333.998 266l4 -4h4c64.667 0 130 56 196 168c120 149.333 180 265.333 180 348l-4 4h-8c-46 -14 -131.333 -84.667 -256 -212c-77.333 -96 -116 -197.333 -116 -304zM843.998 1672l88 -119.999c-20 -112.667 -54.667 -180.667 -104 -204
c-158 -127.333 -243.333 -230 -256 -308c0 -24 -46.667 -36 -140 -36l-24 -4c-18.667 28 -28 57.333 -28 88v16c0 68 69.333 166.667 208 296c40 43.333 89.333 116.666 148 219.999c32 34.667 68 52 108 52z" />
    <glyph glyph-name="acircumflex" unicode="&#xe2;" horiz-adv-x="1209" 
d="M894 1090h19.998c52.667 0 87.334 -44 104.001 -132c0 -48.667 28 -198 84 -448c40 -142 97.333 -260.667 172 -356c45.333 -66.667 68 -118.667 68 -156v-24c0 -32 -20 -48 -60 -48c-39.333 -24 -64.666 -36 -75.999 -36c-74 26 -140.667 84.667 -200 176
c-34 64.667 -88.667 190 -164 376l-24 32c-98 -152.667 -182 -268.667 -252 -348c-88.667 -90.667 -188.667 -136 -300 -136c-108 0 -178.667 56 -212 168l-4 52v16c0 151.333 97.333 338 292 560c120.667 98.667 260.667 182.667 420 252c45.333 34.667 89.333 52 132 52z
M333.998 266l4 -4h4c64.667 0 130 56 196 168c120 149.333 180 265.333 180 348l-4 4h-8c-46 -14 -131.333 -84.667 -256 -212c-77.333 -96 -116 -197.333 -116 -304zM684.998 1727h37.999c38.667 -72.667 119.667 -196.334 243 -371.001c14.667 -22 22 -37 22 -45v-3
l-16 -51l-22 -16l-51 -16c-17.333 0 -56.666 35.333 -117.999 106c-38.667 56.667 -75 102.334 -109 137.001c-126 -102 -194.333 -184 -205 -246c0 -19.333 -37 -29 -111 -29l-20 -3c-14.667 22.667 -22 46 -22 70v13c0 54.667 55.333 133.667 166 237
c32 34.667 71.333 93 118 175c26 28 55 42 87 42z" />
    <glyph glyph-name="atilde" unicode="&#xe3;" horiz-adv-x="1261" 
d="M894 1090h19.998c52.667 0 87.334 -44 104.001 -132c0 -48.667 28 -198 84 -448c40 -142 97.333 -260.667 172 -356c45.333 -66.667 68 -118.667 68 -156v-24c0 -32 -20 -48 -60 -48c-39.333 -24 -64.666 -36 -75.999 -36c-74 26 -140.667 84.667 -200 176
c-34 64.667 -88.667 190 -164 376l-24 32c-98 -152.667 -182 -268.667 -252 -348c-88.667 -90.667 -188.667 -136 -300 -136c-108 0 -178.667 56 -212 168l-4 52v16c0 151.333 97.333 338 292 560c120.667 98.667 260.667 182.667 420 252c45.333 34.667 89.333 52 132 52z
M333.998 266l4 -4h4c64.667 0 130 56 196 168c120 149.333 180 265.333 180 348l-4 4h-8c-46 -14 -131.333 -84.667 -256 -212c-77.333 -96 -116 -197.333 -116 -304zM788.998 1483h17.998c36 0 96.333 -23.667 181 -71c42 -14 73.333 -21 94 -21h18c8 0 14 -12.333 18 -37
c-3.33301 -32.667 -8.33301 -49 -15 -49c-22 0 -33 -9.66699 -33 -29l3 -7l-3 -3h-15c-154.667 0 -232 18.667 -232 56h-9c-55.333 0 -106.666 -45.333 -153.999 -136c-22.667 -30.667 -45 -46 -67 -46h-21c-101.333 0 -193.666 25 -276.999 75
c-10 30.667 -15 52.667 -15 66v20c0 37.333 11 57.333 33 60l24 3c22.667 0 76 -15.333 160 -46l45 -5h18l82 104c46 44 95 66 147 66z" />
    <glyph glyph-name="adieresis" unicode="&#xe4;" horiz-adv-x="1233" 
d="M894 1090h19.998c52.667 0 87.334 -44 104.001 -132c0 -48.667 28 -198 84 -448c40 -142 97.333 -260.667 172 -356c45.333 -66.667 68 -118.667 68 -156v-24c0 -32 -20 -48 -60 -48c-39.333 -24 -64.666 -36 -75.999 -36c-74 26 -140.667 84.667 -200 176
c-34 64.667 -88.667 190 -164 376l-24 32c-98 -152.667 -182 -268.667 -252 -348c-88.667 -90.667 -188.667 -136 -300 -136c-108 0 -178.667 56 -212 168l-4 52v16c0 151.333 97.333 338 292 560c120.667 98.667 260.667 182.667 420 252c45.333 34.667 89.333 52 132 52z
M333.998 266l4 -4h4c64.667 0 130 56 196 168c120 149.333 180 265.333 180 348l-4 4h-8c-46 -14 -131.333 -84.667 -256 -212c-77.333 -96 -116 -197.333 -116 -304zM507.998 1406h11c54 -12.667 81 -36 81 -70v-5c0 -53.333 -37 -96 -111 -128l-28 -3
c-36.667 0 -62.667 21.333 -78 64l-3 19v12c0 42.667 22.333 76 67 100zM857.998 1406h11c54 -12.667 81 -36 81 -70v-5c0 -53.333 -37 -96 -111 -128l-28 -3c-36.667 0 -62.667 21.333 -78 64l-3 19v12c0 42.667 22.333 76 67 100z" />
    <glyph glyph-name="aring" unicode="&#xe5;" horiz-adv-x="1188" 
d="M859 1090h19.998c52.667 0 87.334 -44 104.001 -132c0 -48.667 28 -198 84 -448c40 -142 97.333 -260.667 172 -356c45.333 -66.667 68 -118.667 68 -156v-24c0 -32 -20 -48 -60 -48c-39.333 -24 -64.666 -36 -75.999 -36c-74 26 -140.667 84.667 -200 176
c-34 64.667 -88.667 190 -164 376l-24 32c-98 -152.667 -182 -268.667 -252 -348c-88.667 -90.667 -188.667 -136 -300 -136c-108 0 -178.667 56 -212 168l-4 52v16c0 151.333 97.333 338 292 560c120.667 98.667 260.667 182.667 420 252c45.333 34.667 89.333 52 132 52z
M298.998 266l4 -4h4c64.667 0 130 56 196 168c120 149.333 180 265.333 180 348l-4 4h-8c-46 -14 -131.333 -84.667 -256 -212c-77.333 -96 -116 -197.333 -116 -304zM666.998 1725h49.999c12 0 40.667 -28.667 86 -86c56 -56 84 -109.333 84 -160v-10
c0 -80 -26.667 -158.667 -80 -236c-43.333 -35.333 -94.333 -53 -153 -53h-17c-108.667 0 -185 47.667 -229 143c-6.66699 14 -10 31.667 -10 53v13c0 16 11 78 33 186v37c76.667 75.333 155.334 113 236.001 113zM566.997 1451c13.333 -78 49 -117 107 -117h15
c20.667 12.667 31 33 31 61c-4 91.333 -14.333 137 -31 137h-40c-54.667 0 -82 -27 -82 -81z" />
    <glyph glyph-name="ae" unicode="&#xe6;" horiz-adv-x="1943" 
d="M314 328l4 -3h4c64.667 0 130 46 196 138c120 122.667 180 218 180 286l-4 3h-8c-46 -11.333 -131.333 -69.333 -256 -174c-77.333 -78.667 -116 -162 -116 -250zM1088 702c0 -80 22.667 -136.001 68 -168.001c31.333 0 78 24 140 72c10.667 30.667 16 57.334 16 80.001
c0 82 -36 138 -108 168l-32 4c-40 0 -60 -13.333 -60 -40c-16 -27.333 -24 -66 -24 -116zM858 448.999c-5.33301 10 -10.667 20.6689 -16 32.002l-24 26c-98 -123.333 -182 -217 -252 -281c-88.667 -73.333 -188.667 -110 -300 -110c-108 0 -178.667 45.333 -212 136l-4 42
v13c0 122 97.333 272.667 292 452c120.667 80 260.667 148 420 204c45.333 28 89.333 42 132 42h20c8 0 15.667 -1 23 -3c9.33301 6.66699 19.666 12 30.999 16c92.667 50.667 174 76 244 76c138.667 0 252 -90.667 340 -272c16 -57.333 24 -101.333 24 -132
c0 -134 -104 -242 -312 -324v-4c54.667 -93.333 126.667 -140 216 -140c120 0 249.333 97.333 388 292c82.667 93.333 146.667 140 192 140h8l8 -8v-40l-4 -16c2.66699 -8.66699 8 -14 16 -16c16.667 0 28.667 14.667 36 44h8v-4c0 -45.333 -40 -120 -120 -224
c-12 -22.667 -21.333 -49.334 -28 -80.001c-37.333 -7.33301 -56 -22 -56 -44c-73.333 -122 -184 -208.667 -332 -260c-44 -10.667 -82.667 -16 -116 -16h-40c-68.667 0 -137.334 17.667 -206.001 53c-12.667 -5.33301 -22 -8 -28 -8
c-74 21.333 -140.667 68.666 -200 141.999c-21.333 32.667 -50.666 84.667 -87.999 156c-19.333 25.333 -38.666 52.333 -57.999 81v8z" />
    <glyph glyph-name="ccedilla" unicode="&#xe7;" horiz-adv-x="1034" 
d="M401 -39c-170 10 -284.334 99.001 -343.001 267.001l-8 92v40c0 203.333 84 378 252 524c68 42.667 132 64 192 64h12c54.667 0 105.334 -14.667 152.001 -44c-5.33301 -10.667 -8 -25.334 -8 -44.001l20 -52v-24c-23.333 -47.333 -72.666 -83.333 -147.999 -108
c-78.667 -24 -129.334 -56 -152.001 -96c-29.333 -62.667 -44 -113.334 -44 -152.001v-24c0 -79.333 45.333 -126 136 -140h56c89.333 0 244 49.333 464 148c92.667 40 154 60 184 60h8c44.667 -46 68.667 -80.667 72 -104c-3.33301 -14 -43.333 -58 -120 -132
c-20 -37.333 -40 -56 -60 -56c-156 -92.667 -298 -156 -426 -190c-4 -88 -33 -132 -87 -132v-6c0 -36.667 71.667 -71 215 -103c48 -15.333 72 -30 72 -44v-14c0 -68 -39.333 -130 -118 -186c-48 -6.66699 -82.667 -10 -104 -10h-30c-58.667 0 -90.667 7.33301 -96 22l-4 16
c0 15.333 24.333 51 73 107l8 30v12l-165 55c-69.333 30.667 -104 63.667 -104 99v12c0 22.667 33.667 60.334 101 113.001z" />
    <glyph glyph-name="egrave" unicode="&#xe8;" horiz-adv-x="1124" 
d="M422 1064c138.667 0 251.999 -90.666 339.999 -271.999c16 -57.333 24 -101.333 24 -132c0 -134 -104 -242 -312 -324v-4c54.667 -93.333 126.667 -140 216 -140c120 0 249.333 97.333 388 292c82.667 93.333 146.667 140 192 140h8l8 -8v-40l-4 -16
c2.66699 -8.66699 8 -14 16 -16c16.667 0 28.667 14.667 36 44h8v-4c0 -45.333 -40 -120 -120 -224c-12 -22.667 -21.333 -49.334 -28 -80.001c-37.333 -7.33301 -56 -22 -56 -44c-73.333 -122 -184 -208.667 -332 -260c-44 -10.667 -82.667 -16 -116 -16h-40
c-195.333 0 -388.666 141.333 -579.999 424v8l-20 316v32c0 132 42.667 214.667 128 248c92.667 50.667 174 76 244 76zM297.999 672.001c0 -80 22.667 -136.001 68 -168.001c31.333 0 78 24 140 72c10.667 30.667 16 57.334 16 80.001c0 82 -36 138 -108 168l-32 4
c-40 0 -60 -13.333 -60 -40c-16 -27.333 -24 -66 -24 -116zM325.999 1576c58.667 -78 108 -133.001 148 -165.001c138.667 -97.333 208 -171.666 208 -222.999v-12c0 -22.667 -9.33301 -44.667 -28 -66l-24 3c-93.333 0 -140 9 -140 27c-12.667 58.667 -98 136 -256 232
c-49.333 17.333 -84 68.333 -104 153l88 90c40 0 76 -13 108 -39z" />
    <glyph glyph-name="eacute" unicode="&#xe9;" horiz-adv-x="1134" 
d="M422 1064c138.667 0 251.999 -90.666 339.999 -271.999c16 -57.333 24 -101.333 24 -132c0 -134 -104 -242 -312 -324v-4c54.667 -93.333 126.667 -140 216 -140c120 0 249.333 97.333 388 292c82.667 93.333 146.667 140 192 140h8l8 -8v-40l-4 -16
c2.66699 -8.66699 8 -14 16 -16c16.667 0 28.667 14.667 36 44h8v-4c0 -45.333 -40 -120 -120 -224c-12 -22.667 -21.333 -49.334 -28 -80.001c-37.333 -7.33301 -56 -22 -56 -44c-73.333 -122 -184 -208.667 -332 -260c-44 -10.667 -82.667 -16 -116 -16h-40
c-195.333 0 -388.666 141.333 -579.999 424v8l-20 316v32c0 132 42.667 214.667 128 248c92.667 50.667 174 76 244 76zM297.999 672.001c0 -80 22.667 -136.001 68 -168.001c31.333 0 78 24 140 72c10.667 30.667 16 57.334 16 80.001c0 82 -36 138 -108 168l-32 4
c-40 0 -60 -13.333 -60 -40c-16 -27.333 -24 -66 -24 -116zM583.999 1605l88 -89.999c-20 -84.667 -54.667 -135.667 -104 -153c-158 -96 -243.333 -173.333 -256 -232c0 -18 -46.667 -27 -140 -27l-24 -3c-18.667 21.333 -28 43.333 -28 66v12
c0 51.333 69.333 125.666 208 222.999c40 32 89.333 87 148 165c32 26 68 39 108 39z" />
    <glyph glyph-name="ecircumflex" unicode="&#xea;" horiz-adv-x="1117" 
d="M422 1064c138.667 0 251.999 -90.666 339.999 -271.999c16 -57.333 24 -101.333 24 -132c0 -134 -104 -242 -312 -324v-4c54.667 -93.333 126.667 -140 216 -140c120 0 249.333 97.333 388 292c82.667 93.333 146.667 140 192 140h8l8 -8v-40l-4 -16
c2.66699 -8.66699 8 -14 16 -16c16.667 0 28.667 14.667 36 44h8v-4c0 -45.333 -40 -120 -120 -224c-12 -22.667 -21.333 -49.334 -28 -80.001c-37.333 -7.33301 -56 -22 -56 -44c-73.333 -122 -184 -208.667 -332 -260c-44 -10.667 -82.667 -16 -116 -16h-40
c-195.333 0 -388.666 141.333 -579.999 424v8l-20 316v32c0 132 42.667 214.667 128 248c92.667 50.667 174 76 244 76zM297.999 672.001c0 -80 22.667 -136.001 68 -168.001c31.333 0 78 24 140 72c10.667 30.667 16 57.334 16 80.001c0 82 -36 138 -108 168l-32 4
c-40 0 -60 -13.333 -60 -40c-16 -27.333 -24 -66 -24 -116zM460.999 1662h37.999c38.667 -72.667 119.667 -196.334 243 -371.001c14.667 -22 22 -37 22 -45v-3l-16 -51l7 -25l-3 -4h-4c0 4.66699 -7.33301 9 -22 13l-51 -16c-17.333 0 -56.666 35.333 -117.999 106
c-38.667 56.667 -75 102.334 -109 137.001c-126 -102 -194.333 -184 -205 -246c0 -19.333 -37 -29 -111 -29l-20 -3c-14.667 22.667 -22 46 -22 70v13c0 54.667 55.333 133.667 166 237c32 34.667 71.333 93 118 175c26 28 55 42 87 42z" />
    <glyph glyph-name="edieresis" unicode="&#xeb;" horiz-adv-x="1131" 
d="M422 1064c138.667 0 251.999 -90.666 339.999 -271.999c16 -57.333 24 -101.333 24 -132c0 -134 -104 -242 -312 -324v-4c54.667 -93.333 126.667 -140 216 -140c120 0 249.333 97.333 388 292c82.667 93.333 146.667 140 192 140h8l8 -8v-40l-4 -16
c2.66699 -8.66699 8 -14 16 -16c16.667 0 28.667 14.667 36 44h8v-4c0 -45.333 -40 -120 -120 -224c-12 -22.667 -21.333 -49.334 -28 -80.001c-37.333 -7.33301 -56 -22 -56 -44c-73.333 -122 -184 -208.667 -332 -260c-44 -10.667 -82.667 -16 -116 -16h-40
c-195.333 0 -388.666 141.333 -579.999 424v8l-20 316v32c0 132 42.667 214.667 128 248c92.667 50.667 174 76 244 76zM297.999 672.001c0 -80 22.667 -136.001 68 -168.001c31.333 0 78 24 140 72c10.667 30.667 16 57.334 16 80.001c0 82 -36 138 -108 168l-32 4
c-40 0 -60 -13.333 -60 -40c-16 -27.333 -24 -66 -24 -116zM227.999 1366h11c54 -12.667 81 -36 81 -70v-5c0 -53.333 -37 -96 -111 -128l-28 -3c-36.667 0 -62.667 21.333 -78 64l-3 19v12c0 42.667 22.333 76 67 100zM577.999 1366h11c54 -12.667 81 -36 81 -70v-5
c0 -53.333 -37 -96 -111 -128l-28 -3c-36.667 0 -62.667 21.333 -78 64l-3 19v12c0 42.667 22.333 76 67 100z" />
    <glyph glyph-name="igrave" unicode="&#xec;" horiz-adv-x="652" 
d="M304 1116c53.333 0 79.999 -13.332 79.999 -39.999c32 -174 48 -360.667 48 -560v-116l-8 -432c-20.667 -16 -52.667 -28 -96 -36l-32 -32h-4c-23.333 0 -44.666 17.333 -63.999 52c0 -16 -2.66699 -24 -8 -24c-40 35.333 -60 112.666 -60 231.999l36 492
c-5.33301 70 -8 168.667 -8 296c0 112 38.667 168 116 168zM245.999 1606c58.667 -78 108 -133.001 148 -165.001c138.667 -97.333 208 -171.666 208 -222.999v-12c0 -22.667 -9.33301 -44.667 -28 -66l-24 3c-93.333 0 -140 9 -140 27c-12.667 58.667 -98 136 -256 232
c-49.333 17.333 -84 68.333 -104 153l88 90c40 0 76 -13 108 -39z" />
    <glyph glyph-name="iacute" unicode="&#xed;" horiz-adv-x="652" 
d="M304 1116c53.333 0 79.999 -13.332 79.999 -39.999c32 -174 48 -360.667 48 -560v-116l-8 -432c-20.667 -16 -52.667 -28 -96 -36l-32 -32h-4c-23.333 0 -44.666 17.333 -63.999 52c0 -16 -2.66699 -24 -8 -24c-40 35.333 -60 112.666 -60 231.999l36 492
c-5.33301 70 -8 168.667 -8 296c0 112 38.667 168 116 168zM513.999 1645l88 -89.999c-20 -84.667 -54.667 -135.667 -104 -153c-158 -96 -243.333 -173.333 -256 -232c0 -18 -46.667 -27 -140 -27l-24 -3c-18.667 21.333 -28 43.333 -28 66v12
c0 51.333 69.333 125.666 208 222.999c40 32 89.333 87 148 165c32 26 68 39 108 39z" />
    <glyph glyph-name="icircumflex" unicode="&#xee;" horiz-adv-x="774" 
d="M394 1116c53.333 0 79.999 -13.332 79.999 -39.999c32 -174 48 -360.667 48 -560v-116l-8 -432c-20.667 -16 -52.667 -28 -96 -36l-32 -32h-4c-23.333 0 -44.666 17.333 -63.999 52c0 -16 -2.66699 -24 -8 -24c-40 35.333 -60 112.666 -60 231.999l36 492
c-5.33301 70 -8 168.667 -8 296c0 112 38.667 168 116 168zM420.999 1672h37.999c38.667 -72.667 119.667 -196.334 243 -371.001c14.667 -22 22 -37 22 -45v-3l-16 -51l7 -25l-3 -4h-4c0 4.66699 -7.33301 9 -22 13l-51 -16c-17.333 0 -56.666 35.333 -117.999 106
c-38.667 56.667 -75 102.334 -109 137.001c-126 -102 -194.333 -184 -205 -246c0 -19.333 -37 -29 -111 -29l-19 -3c-15.333 22.667 -23 46 -23 70v13c0 54.667 55.333 133.667 166 237c32 34.667 71.333 93 118 175c26 28 55 42 87 42z" />
    <glyph glyph-name="idieresis" unicode="&#xef;" horiz-adv-x="670" 
d="M294 1116c53.333 0 79.999 -13.332 79.999 -39.999c32 -174 48 -360.667 48 -560v-116l-8 -432c-20.667 -16 -52.667 -28 -96 -36l-32 -32h-4c-23.333 0 -44.666 17.333 -63.999 52c0 -16 -2.66699 -24 -8 -24c-40 35.333 -60 112.666 -60 231.999l36 492
c-5.33301 70 -8 168.667 -8 296c0 112 38.667 168 116 168zM177.999 1446h11c54 -12.667 81 -36 81 -70v-5c0 -53.333 -37 -96 -111 -128l-28 -3c-36 0 -62 21.333 -78 64l-3 19v12c0 42.667 22.333 76 67 100zM527.999 1446h11c54 -12.667 81 -36 81 -70v-5
c0 -53.333 -37 -96 -111 -128l-28 -3c-36.667 0 -62.667 21.333 -78 64l-3 19v12c0 42.667 22.333 76 67 100z" />
    <glyph glyph-name="eth" unicode="&#xf0;" horiz-adv-x="1094" 
d="M338 504l-10.999 -191c10 -107.333 54 -161 132 -161c105.333 25.333 189 69 251 131c50 54.667 75 107 75 157v15c0 80 -53.667 146.667 -161 200c-80.667 0 -154.667 -28 -222 -84c-30.667 -20 -53.334 -31.333 -68.001 -34zM1042 511
c1.33301 -14 2.00098 -28.668 2.00098 -44.001v-37c0 -190 -94.667 -343 -284 -459c-104 -47.333 -196.333 -71 -277 -71h-18c-186 0 -318 90.667 -396 272c-17.333 46.667 -26 95 -26 145v21c0 122.667 23 237.334 69 344.001c7.33301 9.33301 50.666 26.333 129.999 51
c19.333 12.667 51.333 42.667 96 90c57.333 27.333 157 41 299 41h25c-45.333 75.333 -103.666 142 -174.999 200l-112 -71l-150 -119c-18.667 -12.667 -35.334 -19 -50.001 -19c-16.667 0 -31 8.33301 -43 25l-5 7c-14.667 20.667 -22 44.667 -22 72
c0 20.667 4.33301 43.334 13 68.001c17.333 26 47.333 54 90 84l33 23l66 44c-72 34.667 -151.667 64 -239 88l-11 43c-3.33301 15.333 -5 29.333 -5 42c0 27.333 9.33301 46 28 56c18 4.66699 54.333 21.667 109 51c18 -8.66699 48 -18.667 90 -30
c96.667 -14.667 186.334 -48.334 269.001 -101.001l209 123c21.333 -7.33301 38.666 -20.666 51.999 -39.999l2 -3c15.333 -21.333 23 -45.333 23 -72c0 -18.667 -3.66699 -38.334 -11 -59.001l-123 -77c124.667 -132.667 229.667 -320 315 -562l27 -114v-12z" />
    <glyph glyph-name="ntilde" unicode="&#xf1;" horiz-adv-x="1116" 
d="M694 1166c85.333 -22 128 -36.665 128 -43.998c38.667 -90 70.667 -191.333 96 -304c56 -380 98.667 -625.333 128 -736c6.66699 0 13.334 -25.333 20.001 -76v-8c0 -45.333 -29.333 -68 -88 -68h-8c-85.333 0 -128 16 -128 48c-38.667 78.667 -70.667 178.667 -96 300
l-88 528h-4c-93.333 -114.667 -204 -336 -332 -664c-52.667 -108.667 -82 -163.334 -88 -164.001c0 8 -13.333 13.333 -40 16h-60c-24 0 -36 12 -36 36l-48 84c37.333 134 56 368.667 56 704c56.667 33.333 86 53.333 88 60c0 13.333 5.33301 20 16 20
c98.667 -14.667 148 -29.334 148 -44.001l-12 -36l4 -4h4c51.333 48 99.333 113.333 144 196c73.333 104 138.666 156 195.999 156zM609 1623h17.998c36 0 96.333 -23.667 181 -71c42 -14 73.333 -21 94 -21h18c8 0 14 -12.333 18 -37
c-3.33301 -32.667 -8.33301 -49 -15 -49c-22 0 -33 -9.66699 -33 -29l3 -7l-3 -3h-15c-154.667 0 -232 18.667 -232 56h-9c-55.333 0 -106.666 -45.333 -153.999 -136c-22.667 -30.667 -45 -46 -67 -46h-21c-101.333 0 -193.666 25 -276.999 75
c-10 30.667 -15 52.667 -15 66v20c0 37.333 11 57.333 33 60l24 3c22.667 0 76 -15.333 160 -46l45 -5h18l82 104c46 44 95 66 147 66z" />
    <glyph glyph-name="ograve" unicode="&#xf2;" horiz-adv-x="864" 
d="M502 865l4.00195 -0.000976562c137.333 0 232.666 -83.667 285.999 -251c14.667 -43.333 22 -92.666 22 -147.999v-36c0 -190 -72 -343 -216 -459c-78.667 -47.333 -149.334 -71 -212.001 -71h-14c-141.333 0 -241.666 90.667 -300.999 272
c-14 49.333 -21 97.666 -21 144.999v21c0 124.667 17.667 239 53 343c7.33301 10 40.333 27.667 99 53c12 8.66699 36.667 38.334 74 89.001c43.333 28 118.666 42 225.999 42zM312.002 535.999l3.00098 -32.001l-7 -190c7.33301 -108.667 31 -163 71 -163
c56.667 24.667 102.667 68.334 138 131.001c28 54 42 107 42 159v14c0 80 -29.333 147 -88 201c-44 0 -84.333 -28 -121 -84c-18.667 -22 -31.334 -34 -38.001 -36zM346.003 1466c58.667 -78 108 -133.001 148 -165.001c138.667 -97.333 208 -171.666 208 -222.999v-12
c0 -22.667 -9.33301 -44.667 -28 -66l-24 3c-93.333 0 -140 9 -140 27c-12.667 58.667 -98 136 -256 232c-49.333 17.333 -84 68.333 -104 153l88 90c40 0 76 -13 108 -39z" />
    <glyph glyph-name="oacute" unicode="&#xf3;" horiz-adv-x="864" 
d="M502 865l4.00195 -0.000976562c137.333 0 232.666 -83.667 285.999 -251c14.667 -43.333 22 -92.666 22 -147.999v-36c0 -190 -72 -343 -216 -459c-78.667 -47.333 -149.334 -71 -212.001 -71h-14c-141.333 0 -241.666 90.667 -300.999 272
c-14 49.333 -21 97.666 -21 144.999v21c0 124.667 17.667 239 53 343c7.33301 10 40.333 27.667 99 53c12 8.66699 36.667 38.334 74 89.001c43.333 28 118.666 42 225.999 42zM312.002 535.999l3.00098 -32.001l-7 -190c7.33301 -108.667 31 -163 71 -163
c56.667 24.667 102.667 68.334 138 131.001c28 54 42 107 42 159v14c0 80 -29.333 147 -88 201c-44 0 -84.333 -28 -121 -84c-18.667 -22 -31.334 -34 -38.001 -36zM614.003 1505l88 -89.999c-20 -84.667 -54.667 -135.667 -104 -153c-158 -96 -243.333 -173.333 -256 -232
c0 -18 -46.667 -27 -140 -27l-24 -3c-18.667 21.333 -28 43.333 -28 66v12c0 51.333 69.333 125.666 208 222.999c40 32 89.333 87 148 165c32 26 68 39 108 39z" />
    <glyph glyph-name="ocircumflex" unicode="&#xf4;" horiz-adv-x="864" 
d="M502 865l4.00195 -0.000976562c137.333 0 232.666 -83.667 285.999 -251c14.667 -43.333 22 -92.666 22 -147.999v-36c0 -190 -72 -343 -216 -459c-78.667 -47.333 -149.334 -71 -212.001 -71h-14c-141.333 0 -241.666 90.667 -300.999 272
c-14 49.333 -21 97.666 -21 144.999v21c0 124.667 17.667 239 53 343c7.33301 10 40.333 27.667 99 53c12 8.66699 36.667 38.334 74 89.001c43.333 28 118.666 42 225.999 42zM312.002 535.999l3.00098 -32.001l-7 -190c7.33301 -108.667 31 -163 71 -163
c56.667 24.667 102.667 68.334 138 131.001c28 54 42 107 42 159v14c0 80 -29.333 147 -88 201c-44 0 -84.333 -28 -121 -84c-18.667 -22 -31.334 -34 -38.001 -36zM451.003 1542h37.999c38.667 -72.667 119.667 -196.334 243 -371.001c14.667 -22 22 -37 22 -45v-3l-16 -51
l7 -25l-3 -4h-4c0 4.66699 -7.33301 9 -22 13l-51 -16c-17.333 0 -56.666 35.333 -117.999 106c-38.667 56.667 -75 102.334 -109 137.001c-126 -102 -194.333 -184 -205 -246c0 -19.333 -37 -29 -111 -29l-20 -3c-14.667 22.667 -22 46 -22 70v13
c0 54.667 55.333 133.667 166 237c32 34.667 71.333 93 118 175c26 28 55 42 87 42z" />
    <glyph glyph-name="otilde" unicode="&#xf5;" horiz-adv-x="938" 
d="M542 865l4.00195 -0.000976562c137.333 0 232.666 -83.667 285.999 -251c14.667 -43.333 22 -92.666 22 -147.999v-36c0 -190 -72 -343 -216 -459c-78.667 -47.333 -149.334 -71 -212.001 -71h-14c-141.333 0 -241.666 90.667 -300.999 272
c-14 49.333 -21 97.666 -21 144.999v21c0 124.667 17.667 239 53 343c7.33301 10 40.333 27.667 99 53c12 8.66699 36.667 38.334 74 89.001c43.333 28 118.666 42 225.999 42zM352.002 535.999l3.00098 -32.001l-7 -190c7.33301 -108.667 31 -163 71 -163
c56.667 24.667 102.667 68.334 138 131.001c28 54 42 107 42 159v14c0 80 -29.333 147 -88 201c-44 0 -84.333 -28 -121 -84c-18.667 -22 -31.334 -34 -38.001 -36zM559.003 1343h17.999c36 0 96.333 -23.667 181 -71c42 -14 73.333 -21 94 -21h18c8 0 14 -12.333 18 -37
c-3.33301 -32.667 -8.33301 -49 -15 -49c-22 0 -33 -9.66699 -33 -29l3 -7l-3 -3h-15c-154.667 0 -232 18.667 -232 56h-9c-55.333 0 -106.666 -45.333 -153.999 -136c-22.667 -30.667 -45 -46 -67 -46h-21c-101.333 0 -193.333 25 -276 75
c-10.667 30.667 -16 52.667 -16 66v20c0 37.333 11 57.333 33 60l24 3c22.667 0 76 -15.333 160 -46l45 -5h18l82 104c46 44 95 66 147 66z" />
    <glyph glyph-name="odieresis" unicode="&#xf6;" horiz-adv-x="864" 
d="M502 865l4.00195 -0.000976562c137.333 0 232.666 -83.667 285.999 -251c14.667 -43.333 22 -92.666 22 -147.999v-36c0 -190 -72 -343 -216 -459c-78.667 -47.333 -149.334 -71 -212.001 -71h-14c-141.333 0 -241.666 90.667 -300.999 272
c-14 49.333 -21 97.666 -21 144.999v21c0 124.667 17.667 239 53 343c7.33301 10 40.333 27.667 99 53c12 8.66699 36.667 38.334 74 89.001c43.333 28 118.666 42 225.999 42zM312.002 535.999l3.00098 -32.001l-7 -190c7.33301 -108.667 31 -163 71 -163
c56.667 24.667 102.667 68.334 138 131.001c28 54 42 107 42 159v14c0 80 -29.333 147 -88 201c-44 0 -84.333 -28 -121 -84c-18.667 -22 -31.334 -34 -38.001 -36zM258.003 1186h11c54 -12.667 81 -36 81 -70v-5c0 -53.333 -37 -96 -111 -128l-28 -3
c-36.667 0 -62.667 21.333 -78 64l-3 19v12c0 42.667 22.333 76 67 100zM608.003 1186h11c54 -12.667 81 -36 81 -70v-5c0 -53.333 -37 -96 -111 -128l-28 -3c-36.667 0 -62.667 21.333 -78 64l-3 19v12c0 42.667 22.333 76 67 100z" />
    <glyph glyph-name="divide" unicode="&#xf7;" horiz-adv-x="1266" 
d="M358 839l34.999 0.000976562c52 0 225.667 -15 521 -45l80 -4c34 0 90.667 6.33301 170 19c56 0 84 -48.667 84 -146c-11.333 -31.333 -42 -64 -92 -98c-12 -10 -34 -17.667 -66 -23c-19.333 2.66699 -31.666 6.66699 -36.999 12c-35.333 -8 -77 -12 -125 -12h-45
c-39.333 0 -197.333 12.667 -474 38h-58c-80 0 -158.333 -11.333 -235 -34l-72 68l-2 3v19c6 20 13.333 30 22 30c-14.667 19.333 -22 35.666 -22 48.999c0 6 2.66699 14.667 8 26l-2 19c0 27.333 78 52.333 234 75zM646.999 461.001l15 0.000976562
c71.333 -16.667 107 -47.334 107 -92.001v-8c0 -69.333 -49 -125.333 -147 -168l-37 -4c-48 0 -82.333 28 -103 84l-3 26v15c0 56 29.333 100 88 132zM669.999 1206l15 0.000976562c74.667 -17.333 112 -49 112 -95v-8c0 -72.667 -51.333 -131.334 -154 -176.001l-38 -4
c-50 0 -85.667 29.333 -107 88l-4 27v15c0 58.667 30.667 104.667 92 138z" />
    <glyph glyph-name="oslash" unicode="&#xf8;" horiz-adv-x="874" 
d="M546 653c-13.333 14.667 -28.668 29.001 -46.001 43.001c-60 0 -115 -33.333 -165 -100c-25.333 -26 -42.666 -40.333 -51.999 -43l5 -38l-10 -215l261 343c2.66699 3.33301 5 6.66602 7 9.99902zM612.998 523.001l-294.001 -393c0 -0.666992 -0.333008 -1 -1 -1
c15.333 -22.667 34.333 -34 57 -34c76.667 29.333 139.334 81.333 188.001 156c38 64 57 127 57 189v17c0 22.667 -2.33301 44.667 -7 66zM124.997 68.001c-16.667 30.667 -31.3291 65.332 -43.9961 103.999c-14 49.333 -21 97.666 -21 144.999v21
c0 124.667 17.667 239 53 343c7.33301 10 40.333 27.667 99 53c12 8.66699 36.667 38.334 74 89.001c43.333 28 118.666 42 225.999 42h4c55.333 0 103.666 -13.667 144.999 -41c11.333 18.667 20 34.667 26 48c20.667 28.667 40 43 58 43h7
c14.667 0 28.334 -10.667 41.001 -32c0 -43.333 -14 -94.666 -42 -153.999c20 -32.667 37 -71 51 -115c14.667 -43.333 22 -92.666 22 -147.999v-36c0 -190 -72 -343 -216 -459c-78.667 -47.333 -149.334 -71 -212.001 -71h-14c-66.667 0 -124.334 20.333 -173.001 61
c-18.667 -31.333 -34.334 -60 -47.001 -86c-38 -23.333 -59.333 -35 -64 -35h-4c-4.66699 2.66699 -7 8 -7 16v5l4 18l-21 -4c-8 4 -12 10.667 -12 20l2 2c-4.66699 0 -8 3 -10 9v5c10.667 37.333 35.667 89.666 75 156.999z" />
    <glyph glyph-name="ugrave" unicode="&#xf9;" horiz-adv-x="992" 
d="M634 794l19.998 0.000976562c50 0 88.667 -21.333 116 -64c23.333 -249.333 62 -452 116 -608c37.333 -43.333 56 -86 56 -128v-32c0 -22.667 -8 -40 -24 -52h-52c-100 0 -182.667 94.667 -248 284l-28 44c-115.333 -130 -202 -212.667 -260 -248h-4l-40 8
c-11.333 0 -47.333 -12 -108 -36l-20 -4c-57.333 0 -92 62.667 -104 188l-4 60v44c0 191.333 41.333 352.666 124 483.999c32 34.667 62.667 52 92 52c36.667 0 75.334 -26.667 116.001 -80c0 -38.667 -22.667 -132 -68 -280c-8 -27.333 -12 -63.333 -12 -108v-16
c60.667 30 115.334 110 164.001 240c64.667 165.333 108.667 248 132 248zM365.998 1426c58.667 -78 108 -133.001 148 -165.001c138.667 -97.333 208 -171.666 208 -222.999v-12c0 -22.667 -9.33301 -44.667 -28 -66l-24 3c-93.333 0 -140 9 -140 27
c-12.667 58.667 -98 136 -256 232c-49.333 17.333 -84 68.333 -104 153l88 90c40 0 76 -13 108 -39z" />
    <glyph glyph-name="uacute" unicode="&#xfa;" horiz-adv-x="992" 
d="M634 794l19.998 0.000976562c50 0 88.667 -21.333 116 -64c23.333 -249.333 62 -452 116 -608c37.333 -43.333 56 -86 56 -128v-32c0 -22.667 -8 -40 -24 -52h-52c-100 0 -182.667 94.667 -248 284l-28 44c-115.333 -130 -202 -212.667 -260 -248h-4l-40 8
c-11.333 0 -47.333 -12 -108 -36l-20 -4c-57.333 0 -92 62.667 -104 188l-4 60v44c0 191.333 41.333 352.666 124 483.999c32 34.667 62.667 52 92 52c36.667 0 75.334 -26.667 116.001 -80c0 -38.667 -22.667 -132 -68 -280c-8 -27.333 -12 -63.333 -12 -108v-16
c60.667 30 115.334 110 164.001 240c64.667 165.333 108.667 248 132 248zM643.998 1465l88 -89.999c-20 -84.667 -54.667 -135.667 -104 -153c-158 -96 -243.333 -173.333 -256 -232c0 -18 -46.667 -27 -140 -27l-24 -3c-18.667 21.333 -28 43.333 -28 66v12
c0 51.333 69.333 125.666 208 222.999c40 32 89.333 87 148 165c32 26 68 39 108 39z" />
    <glyph glyph-name="ucircumflex" unicode="&#xfb;" horiz-adv-x="1002" 
d="M644 794l19.998 0.000976562c50 0 88.667 -21.333 116 -64c23.333 -249.333 62 -452 116 -608c37.333 -43.333 56 -86 56 -128v-32c0 -22.667 -8 -40 -24 -52h-52c-100 0 -182.667 94.667 -248 284l-28 44c-115.333 -130 -202 -212.667 -260 -248h-4l-40 8
c-11.333 0 -47.333 -12 -108 -36l-20 -4c-57.333 0 -92 62.667 -104 188l-4 60v44c0 191.333 41.333 352.666 124 483.999c32 34.667 62.667 52 92 52c36.667 0 75.334 -26.667 116.001 -80c0 -38.667 -22.667 -132 -68 -280c-8 -27.333 -12 -63.333 -12 -108v-16
c60.667 30 115.334 110 164.001 240c64.667 165.333 108.667 248 132 248zM513.998 1612l47.999 0.00390625c48 -90.667 149.333 -245.334 304 -464.001c18.667 -28 28 -46.667 28 -56v-4l-20 -64l8 -32l-4 -4h-4c0 5.33301 -9.33301 10.666 -28 15.999l-64 -20
c-21.333 0 -70.666 44 -147.999 132c-48 71.333 -93.333 128.666 -136 171.999c-158 -127.333 -243.333 -230 -256 -308c0 -24 -46.667 -36 -140 -36l-24 -4c-18.667 28 -28 57.333 -28 88v16c0 68 69.333 166.667 208 296c40 43.333 89.333 116.666 148 219.999
c32 34.667 68 52 108 52z" />
    <glyph glyph-name="udieresis" unicode="&#xfc;" horiz-adv-x="992" 
d="M634 794l19.998 0.000976562c50 0 88.667 -21.333 116 -64c23.333 -249.333 62 -452 116 -608c37.333 -43.333 56 -86 56 -128v-32c0 -22.667 -8 -40 -24 -52h-52c-100 0 -182.667 94.667 -248 284l-28 44c-115.333 -130 -202 -212.667 -260 -248h-4l-40 8
c-11.333 0 -47.333 -12 -108 -36l-20 -4c-57.333 0 -92 62.667 -104 188l-4 60v44c0 191.333 41.333 352.666 124 483.999c32 34.667 62.667 52 92 52c36.667 0 75.334 -26.667 116.001 -80c0 -38.667 -22.667 -132 -68 -280c-8 -27.333 -12 -63.333 -12 -108v-16
c60.667 30 115.334 110 164.001 240c64.667 165.333 108.667 248 132 248zM317.998 1176h11c54 -12.667 81 -36 81 -70v-5c0 -53.333 -37 -96 -111 -128l-28 -3c-36.667 0 -62.667 21.333 -78 64l-3 19v12c0 42.667 22.333 76 67 100zM667.998 1176h11
c54 -12.667 81 -36 81 -70v-5c0 -53.333 -37 -96 -111 -128l-28 -3c-36.667 0 -62.667 21.333 -78 64l-3 19v12c0 42.667 22.333 76 67 100z" />
    <glyph glyph-name="yacute" unicode="&#xfd;" horiz-adv-x="1128" 
d="M902 1328c38 0 68.667 -16.002 92 -48.002c26.667 -503.333 40 -858 40 -1064v-32l40 -568l4 -64c-3.33301 -264 -107.333 -440 -312 -528c-44.667 -16 -90 -24 -136 -24c-169.333 0 -341.333 101.333 -516 304c-42.667 56 -64 108 -64 156
c31.333 32 64.666 48 99.999 48c27.333 0 82 -32 164 -96c9.33301 -8 33.333 -13.333 72 -16l192 -116c26.667 -10.667 49.334 -16 68.001 -16h8c83.333 0 138 74.667 164 224c13.333 78.667 20 186.667 20 324c0 224 -25.333 468 -76 732
c-46 -51.333 -115.333 -152.666 -208 -303.999c-85.333 -90.667 -145.333 -136 -180 -136c-39.333 -18.667 -95.333 -28 -168 -28h-16c-42.667 0 -82.667 56 -120 168c-13.333 64.667 -20 130 -20 196c0 167.333 32 363.333 96 588c32 64 66.667 96 104 96h28
c29.333 0 64 -17.333 104 -52v-12c0 -64 -26.667 -201.333 -80 -412c-16 -60.667 -24 -130 -24 -208l4 -68h12c35.333 0 87.333 42.667 156 128c11.333 0 27.333 29.333 48 88c146.667 272 220 441.333 220 508c10.667 36.667 16 79.334 16 128.001v8
c31.333 27.333 58 59.333 80 96h88zM824 1972l88 -119.999c-20 -112.667 -54.667 -180.667 -104 -204c-158 -127.333 -243.333 -230 -256 -308c0 -24 -46.667 -36 -140 -36l-24 -4c-18.667 28 -28 57.333 -28 88v16c0 68 69.333 166.667 208 296
c40 43.333 89.333 116.666 148 219.999c32 34.667 68 52 108 52z" />
    <glyph glyph-name="thorn" unicode="&#xfe;" horiz-adv-x="1083" 
d="M394 961l3 -32.001l-8 -190c9.33301 -108.667 39.333 -163 90 -163c72 24.667 130.667 68.334 176 131.001c35.333 54 53 107 53 159v14c0 80 -37.333 147 -112 201c-56 0 -107.333 -28 -154 -84c-24 -22 -40 -34 -48 -36zM343 341.999
c15.333 -131.333 36.333 -276 63 -434v-52c0 -63.333 -14.667 -99.333 -44 -108c-22 0 -62 -9.33301 -120 -28c-17.333 17.333 -44 37.333 -80 60c-72 455.333 -108 828.666 -108 1120v140c0 197.333 9.33301 437.333 28 720l12 204c46 34.667 87.333 52 124 52h16
c50.667 0 76 -21.333 76 -64c18.667 -98 28 -204.667 28 -320l-16 -411l26 27c55.333 28 151.333 42 288 42h5c174.667 0 296 -83.667 364 -251c18.667 -43.333 28 -92.666 28 -147.999v-36c0 -190 -91.667 -343 -275 -459c-100 -47.333 -190 -71 -270 -71h-18
c-46 0 -88.333 5.66699 -127 17z" />
    <glyph glyph-name="ydieresis" unicode="&#xff;" horiz-adv-x="1128" 
d="M902 1328c38 0 68.667 -16.002 92 -48.002c26.667 -503.333 40 -858 40 -1064v-32l40 -568l4 -64c-3.33301 -264 -107.333 -440 -312 -528c-44.667 -16 -90 -24 -136 -24c-169.333 0 -341.333 101.333 -516 304c-42.667 56 -64 108 -64 156
c31.333 32 64.666 48 99.999 48c27.333 0 82 -32 164 -96c9.33301 -8 33.333 -13.333 72 -16l192 -116c26.667 -10.667 49.334 -16 68.001 -16h8c83.333 0 138 74.667 164 224c13.333 78.667 20 186.667 20 324c0 224 -25.333 468 -76 732
c-46 -51.333 -115.333 -152.666 -208 -303.999c-85.333 -90.667 -145.333 -136 -180 -136c-39.333 -18.667 -95.333 -28 -168 -28h-16c-42.667 0 -82.667 56 -120 168c-13.333 64.667 -20 130 -20 196c0 167.333 32 363.333 96 588c32 64 66.667 96 104 96h28
c29.333 0 64 -17.333 104 -52v-12c0 -64 -26.667 -201.333 -80 -412c-16 -60.667 -24 -130 -24 -208l4 -68h12c35.333 0 87.333 42.667 156 128c11.333 0 27.333 29.333 48 88c146.667 272 220 441.333 220 508c10.667 36.667 16 79.334 16 128.001v8
c31.333 27.333 58 59.333 80 96h88zM368 1686h11c54 -12.667 81 -36 81 -70v-5c0 -53.333 -37 -96 -111 -128l-28 -3c-36.667 0 -62.667 21.333 -78 64l-3 19v12c0 42.667 22.333 76 67 100zM718 1686h11c54 -12.667 81 -36 81 -70v-5c0 -53.333 -37 -96 -111 -128l-28 -3
c-36.667 0 -62.667 21.333 -78 64l-3 19v12c0 42.667 22.333 76 67 100z" />
    <glyph glyph-name="Amacron" unicode="&#x100;" horiz-adv-x="1714" 
d="M943 1828l12 -0.00195312c70.667 0 153.334 -48 248.001 -144v-40c0 -174 60 -435.333 180 -784l44 -4l160 8c50.667 0 76 -14.667 76 -44c10.667 -1.33301 16 -5.33301 16 -12c0 -67.333 -44 -112.666 -132 -135.999l-84 -20c114 -289.333 216.667 -485.333 308 -588
c69.333 -66 104 -128.667 104 -188c0 -35.333 -16 -59.333 -48 -72c0 -8.66699 -20 -16.667 -60 -24h-24c-86.667 0 -193.334 144 -320.001 432c-69.333 122.667 -136 262.667 -200 420l-124 8c-360 -22.667 -540 -56 -540 -100c-20 -16.667 -70.667 -114 -152 -292
c-49.333 -72 -104 -108 -164 -108h-24c-57.333 0 -90.666 14.667 -99.999 44l-8 64c0 27.333 12 91.333 36 192c0 12.667 -66.667 30 -200 52c-40 19.333 -60 40.666 -60 63.999c17.333 38 54.666 70 111.999 96l284 84c21.333 6.66699 53.333 45.334 96 116.001
c146.667 230.667 254.667 426.667 324 588c32 72.667 66.667 167.334 104 284.001c32.667 69.333 78 104 136 104zM963 1252c-101.333 -160 -180.001 -300 -236.001 -420v-4h4c38.667 0 145.334 20 320.001 60l52 4h4c-46.667 180.667 -84 290 -112 328zM737.999 2282h30
c80 0 234.333 -10 463 -30c10 -15.333 15 -32.333 15 -51v-3c0 -36 -17 -67.333 -51 -94l-404 22l-126 -9h-20c-37.333 0 -56 15.333 -56 46v8c0 36 18.667 68.667 56 98c23.333 8.66699 54.333 13 93 13z" />
    <glyph glyph-name="amacron" unicode="&#x101;" horiz-adv-x="1192" 
d="M859 1090c52 0 87 -43.998 105 -131.998c0 -46 28 -195.333 84 -448c39.333 -140.667 96.666 -259.334 171.999 -356.001c44.667 -67.333 67 -119.333 67 -156v-25c0 -31.333 -19.667 -47 -59 -47c-38 -24.667 -64 -37 -78 -37c-74 27.333 -140.333 86.333 -199 177
c-30 57.333 -84.333 182.666 -163 375.999l-25 31c-96.667 -148.667 -180.667 -264 -252 -346c-87.333 -91.333 -187.666 -137 -300.999 -137c-108 0 -178.333 56 -211 168l-4 67c0 150.667 97.667 337.667 293 561c121.333 98.667 261.333 182.667 420 252
c43.333 34.667 87 52 131 52h20zM284 262.002h3.99902c64 0 128.667 56 194 168c120.667 148.667 181 264.667 181 348l-4 4h-9c-47.333 -14.667 -132.666 -85.667 -255.999 -213c-76 -96.667 -114 -197.667 -114 -303zM325.999 1468h30c80 0 234.333 -10 463 -30
c10 -15.333 15 -32.333 15 -51v-3c0 -36 -17 -67.333 -51 -94l-404 22l-126 -9h-20c-37.333 0 -56 15.333 -56 46v8c0 36 18.667 68.667 56 98c23.333 8.66699 54.333 13 93 13z" />
    <glyph glyph-name="Abreve" unicode="&#x102;" horiz-adv-x="1628" 
d="M881 1828l12 -0.00195312c70.667 0 153.334 -48 248.001 -144v-40c0 -174 60 -435.333 180 -784l44 -4l160 8c50.667 0 76 -14.667 76 -44c10.667 -1.33301 16 -5.33301 16 -12c0 -67.333 -44 -112.666 -132 -135.999l-84 -20c114 -289.333 216.667 -485.333 308 -588
c69.333 -66 104 -128.667 104 -188c0 -35.333 -16 -59.333 -48 -72c0 -8.66699 -20 -16.667 -60 -24h-24c-86.667 0 -193.334 144 -320.001 432c-69.333 122.667 -136 262.667 -200 420l-124 8c-360 -22.667 -540 -56 -540 -100c-20 -16.667 -70.667 -114 -152 -292
c-49.333 -72 -104 -108 -164 -108h-24c-57.333 0 -90.666 14.667 -99.999 44l-8 64c0 27.333 12 91.333 36 192c0 12.667 -66.667 30 -200 52c-40 19.333 -60 40.666 -60 63.999c17.333 38 54.666 70 111.999 96l284 84c21.333 6.66699 53.333 45.334 96 116.001
c146.667 230.667 254.667 426.667 324 588c32 72.667 66.667 167.334 104 284.001c32.667 69.333 78 104 136 104zM901 1252c-101.333 -160 -180.001 -300 -236.001 -420v-4h4c38.667 0 145.334 20 320.001 60l52 4h4c-46.667 180.667 -84 290 -112 328zM535.999 2302
l-1.00195 14v4c0 34 23 52 69 54h5c52.667 0 100.334 -38 143.001 -114c14.667 -22 27 -33 37 -33c50 -21.333 79.333 -32 88 -32h9c50 2 107.667 64.667 173 188l35 2h6c52 0 86.333 -25 103 -75l2 -21v-5c0 -46.667 -36.333 -101.667 -109 -165
c-56 -60.667 -119 -92.667 -189 -96h-22c-74 0 -153 30.667 -237 92c-71.333 60 -108.666 122.333 -111.999 187z" />
    <glyph glyph-name="abreve" unicode="&#x103;" horiz-adv-x="1192" 
d="M859 1090c52 0 87 -43.998 105 -131.998c0 -46 28 -195.333 84 -448c39.333 -140.667 96.666 -259.334 171.999 -356.001c44.667 -67.333 67 -119.333 67 -156v-25c0 -31.333 -19.667 -47 -59 -47c-38 -24.667 -64 -37 -78 -37c-74 27.333 -140.333 86.333 -199 177
c-30 57.333 -84.333 182.666 -163 375.999l-25 31c-96.667 -148.667 -180.667 -264 -252 -346c-87.333 -91.333 -187.666 -137 -300.999 -137c-108 0 -178.333 56 -211 168l-4 67c0 150.667 97.667 337.667 293 561c121.333 98.667 261.333 182.667 420 252
c43.333 34.667 87 52 131 52h20zM284 262.002h3.99902c64 0 128.667 56 194 168c120.667 148.667 181 264.667 181 348l-4 4h-9c-47.333 -14.667 -132.666 -85.667 -255.999 -213c-76 -96.667 -114 -197.667 -114 -303zM250.999 1530l-0.999023 14v4c0 34 23 52 69 54h5
c52 0 99.333 -38 142 -114c15.333 -22 28 -33 38 -33c49.333 -21.333 78.666 -32 87.999 -32h9c50 2 107.667 64.667 173 188l35 2h6c51.333 0 85.666 -25 102.999 -75l2 -21v-5c0 -46.667 -36.333 -101.667 -109 -165c-56.667 -60.667 -119.667 -92.667 -189 -96h-23
c-74 0 -152.667 30.667 -236 92c-71.333 60 -108.666 122.333 -111.999 187z" />
    <glyph glyph-name="Aogonek" unicode="&#x104;" horiz-adv-x="1785" 
d="M949 1252c-101.333 -160 -180.001 -300 -236.001 -420v-4h4c38.667 0 145.334 20 320.001 60l52 4h4c-46.667 180.667 -84 290 -112 328zM1608 -143c-59.333 70 -125.669 188.33 -199.002 354.997c-69.333 122.667 -136 262.667 -200 420l-124 8
c-360 -22.667 -540 -56 -540 -100c-20 -16.667 -70.667 -114 -152 -292c-49.333 -72 -104 -108 -164 -108h-24c-57.333 0 -90.666 14.667 -99.999 44l-8 64c0 27.333 12 91.333 36 192c0 12.667 -66.667 30 -200 52c-40 19.333 -60 40.666 -60 63.999
c17.333 38 54.666 70 111.999 96l284 84c21.333 6.66699 53.333 45.334 96 116.001c146.667 230.667 254.667 426.667 324 588c32 72.667 66.667 167.334 104 284.001c32.667 69.333 78 104 136 104h12c70.667 0 153.334 -48 248.001 -144v-40c0 -174 60 -435.333 180 -784
l44 -4l160 8c50.667 0 76 -14.667 76 -44c10.667 -1.33301 16 -5.33301 16 -12c0 -67.333 -44 -112.666 -132 -135.999l-84 -20c114 -289.333 216.667 -485.333 308 -588c69.333 -66 104 -128.667 104 -188c0 -35.333 -16 -59.333 -48 -72c0 -8.66699 -20 -16.667 -60 -24
h-13c-6.66699 -2.66699 -13.667 -5 -21 -7c-22.667 -8 -34 -15.333 -34 -22c-23.333 -30 -35 -47.333 -35 -52v-5c1.33301 -30 62.666 -65.333 183.999 -106v-24c0 -31.333 -25.667 -51.666 -77 -60.999l-21 -1h-2c-47.333 0 -102.333 22.667 -165 68
c-59.333 34.667 -89.666 72.667 -90.999 114v10c0 45.333 32.667 93 98 143c10.667 7.33301 21.334 14 32.001 20z" />
    <glyph glyph-name="aogonek" unicode="&#x105;" horiz-adv-x="1192" 
d="M284 262h3.99902c64 0 128.667 56 194 168c120.667 148.667 181 264.667 181 348l-4 4h-9c-47.333 -14.667 -132.666 -85.667 -255.999 -213c-76 -96.667 -114 -197.667 -114 -303zM1025 -28c-26 26 -50.667 57.335 -74 94.002c-30 57.333 -84.333 182.666 -163 375.999
l-25 31c-96.667 -148.667 -180.667 -264 -252 -346c-87.333 -91.333 -187.666 -137 -300.999 -137c-108 0 -178.333 56 -211 168l-4 67c0 150.667 97.667 337.667 293 561c121.333 98.667 261.333 182.667 420 252c43.333 34.667 87 52 131 52h20c52 0 87 -44 105 -132
c0 -46 28 -195.333 84 -448c39.333 -140.667 96.666 -259.334 171.999 -356.001c44.667 -67.333 67 -119.333 67 -156v-25c0 -31.333 -19.667 -47 -59 -47c-38 -24.667 -64 -37 -78 -37l-6 2c-2 0 -3.66699 -0.333008 -5 -1c-22.667 -8 -34 -15.333 -34 -22
c-23.333 -30 -35 -47.333 -35 -52v-5c1.33301 -30 62.666 -65.333 183.999 -106l1 -21v-1c0 -32.667 -26 -53.667 -78 -63l-21 -1h-2c-47.333 0 -102.333 22.667 -165 68c-59.333 34.667 -89.666 72.667 -90.999 114v10c0 45.333 32.667 93 98 143
c10 6.66699 19.667 12.667 29 18z" />
    <glyph glyph-name="Cacute" unicode="&#x106;" horiz-adv-x="2156" 
d="M1199 1829c124 -9.33301 185.998 -51.001 185.998 -125.001v-8c0 -86 -127.667 -157.667 -383 -215c-129.333 -54.667 -282.666 -162 -459.999 -322c-135.333 -148.667 -203 -292.667 -203 -432v-35c0 -195.333 137 -325 411 -389c72.667 -14.667 148.667 -22 228 -22
c289.333 0 535 94 737 282c40.667 27.333 133.667 114 279 260c133.333 117.333 248 176 344 176l8 -12v-6c0 -104 -57.333 -211.333 -172 -322c0 -14.667 -69 -93 -207 -235c-300.667 -282.667 -644.667 -424 -1032 -424c-385.333 0 -645.666 127 -780.999 381
c-69.333 110.667 -104 227.334 -104 350.001v29c0 285.333 209.667 576 629 872c215.333 131.333 379 197 491 197h29zM1060 2651l88 -119.999c-20 -112.667 -54.667 -180.667 -104 -204c-158 -127.333 -243.333 -230 -256 -308c0 -24 -46.667 -36 -140 -36l-24 -4
c-18.667 28 -28 57.333 -28 88v16c0 68 69.333 166.667 208 296c40 43.333 89.333 116.666 148 219.999c32 34.667 68 52 108 52z" />
    <glyph glyph-name="cacute" unicode="&#x107;" horiz-adv-x="1105" 
d="M507 948c54.667 0 104.999 -15.0029 150.999 -45.0029c-5.33301 -9.33301 -8 -23.666 -8 -42.999l21 -51v-25c-23.333 -47.333 -73.333 -83.333 -150 -108c-78 -23.333 -128.667 -55.333 -152 -96c-28.667 -63.333 -43 -114 -43 -152v-25
c0 -77.333 45.333 -123.666 136 -138.999h57c90 0 244.333 49.333 463 148c94 39.333 155.333 59 184 59h8c46.667 -45.333 70.667 -79.333 72 -102c-2.66699 -15.333 -43 -59.666 -121 -132.999c-17.333 -37.333 -37 -56 -59 -56
c-247.333 -147.333 -457.666 -221 -630.999 -221c-187.333 0 -313 89.333 -377 268l-8 92v41c0 205.333 84 380.333 252 525c66.667 42 130.667 63 192 63h13zM708.999 1777l88 -119.999c-20 -112.667 -54.667 -180.667 -104 -204c-158 -127.333 -243.333 -230 -256 -308
c0 -24 -46.667 -36 -140 -36l-24 -4c-18.667 28 -28 57.333 -28 88v16c0 68 69.333 166.667 208 296c40 43.333 89.333 116.666 148 219.999c32 34.667 68 52 108 52z" />
    <glyph glyph-name="Ccircumflex" unicode="&#x108;" horiz-adv-x="2156" 
d="M1199 1829c124 -9.33301 185.998 -51.001 185.998 -125.001v-8c0 -86 -127.667 -157.667 -383 -215c-129.333 -54.667 -282.666 -162 -459.999 -322c-135.333 -148.667 -203 -292.667 -203 -432v-35c0 -195.333 137 -325 411 -389c72.667 -14.667 148.667 -22 228 -22
c289.333 0 535 94 737 282c40.667 27.333 133.667 114 279 260c133.333 117.333 248 176 344 176l8 -12v-6c0 -104 -57.333 -211.333 -172 -322c0 -14.667 -69 -93 -207 -235c-300.667 -282.667 -644.667 -424 -1032 -424c-385.333 0 -645.666 127 -780.999 381
c-69.333 110.667 -104 227.334 -104 350.001v29c0 285.333 209.667 576 629 872c215.333 131.333 379 197 491 197h29zM805.998 2615l47.999 0.00292969c48 -90.667 149.333 -245.334 304 -464.001c18.667 -28 28 -46.667 28 -56v-4l-20 -64l8 -32l-4 -4h-4
c0 5.33301 -9.33301 10.666 -28 15.999l-64 -20c-21.333 0 -70.666 44 -147.999 132c-48 71.333 -93.333 128.666 -136 172c-158 -127.333 -243.333 -230 -256 -308c0 -24 -46.667 -36 -140 -36l-24 -4c-18.667 28 -28 57.333 -28 88v16c0 68 69.333 166.667 208 296
c40 43.333 89.333 116.666 148 219.999c32 34.667 68 52 108 52z" />
    <glyph glyph-name="ccircumflex" unicode="&#x109;" horiz-adv-x="1105" 
d="M507 948c54.667 0 104.999 -15.0029 150.999 -45.0029c-5.33301 -9.33301 -8 -23.666 -8 -42.999l21 -51v-25c-23.333 -47.333 -73.333 -83.333 -150 -108c-78 -23.333 -128.667 -55.333 -152 -96c-28.667 -63.333 -43 -114 -43 -152v-25
c0 -77.333 45.333 -123.666 136 -138.999h57c90 0 244.333 49.333 463 148c94 39.333 155.333 59 184 59h8c46.667 -45.333 70.667 -79.333 72 -102c-2.66699 -15.333 -43 -59.666 -121 -132.999c-17.333 -37.333 -37 -56 -59 -56
c-247.333 -147.333 -457.666 -221 -630.999 -221c-187.333 0 -313 89.333 -377 268l-8 92v41c0 205.333 84 380.333 252 525c66.667 42 130.667 63 192 63h13zM562.999 1827l47.999 0.00390625c48 -90.667 149.333 -245.334 304 -464.001c18.667 -28 28 -46.667 28 -56v-4
l-20 -64l8 -32l-4 -4h-4c0 5.33301 -9.33301 10.666 -28 15.999l-64 -20c-21.333 0 -70.666 44 -147.999 132c-48 71.333 -93.333 128.666 -136 171.999c-158 -127.333 -243.333 -230 -256 -308c0 -24 -46.667 -36 -140 -36l-24 -4c-18.667 28 -28 57.333 -28 88v16
c0 68 69.333 166.667 208 296c40 43.333 89.333 116.666 148 219.999c32 34.667 68 52 108 52z" />
    <glyph glyph-name="Cdotaccent" unicode="&#x10a;" horiz-adv-x="2156" 
d="M1199 1829c124 -9.33301 185.998 -51.001 185.998 -125.001v-8c0 -86 -127.667 -157.667 -383 -215c-129.333 -54.667 -282.666 -162 -459.999 -322c-135.333 -148.667 -203 -292.667 -203 -432v-35c0 -195.333 137 -325 411 -389c72.667 -14.667 148.667 -22 228 -22
c289.333 0 535 94 737 282c40.667 27.333 133.667 114 279 260c133.333 117.333 248 176 344 176l8 -12v-6c0 -104 -57.333 -211.333 -172 -322c0 -14.667 -69 -93 -207 -235c-300.667 -282.667 -644.667 -424 -1032 -424c-385.333 0 -645.666 127 -780.999 381
c-69.333 110.667 -104 227.334 -104 350.001v29c0 285.333 209.667 576 629 872c215.333 131.333 379 197 491 197h29zM1108 2443h16c77.333 -18 116 -51.333 116 -100v-8c0 -76 -53.333 -137.333 -160 -184l-40 -4c-52 0 -89.333 30.667 -112 92l-4 28v16
c0 61.333 32 109.333 96 144z" />
    <glyph glyph-name="cdotaccent" unicode="&#x10b;" horiz-adv-x="1105" 
d="M507 948c54.667 0 104.999 -15.0029 150.999 -45.0029c-5.33301 -9.33301 -8 -23.666 -8 -42.999l21 -51v-25c-23.333 -47.333 -73.333 -83.333 -150 -108c-78 -23.333 -128.667 -55.333 -152 -96c-28.667 -63.333 -43 -114 -43 -152v-25
c0 -77.333 45.333 -123.666 136 -138.999h57c90 0 244.333 49.333 463 148c94 39.333 155.333 59 184 59h8c46.667 -45.333 70.667 -79.333 72 -102c-2.66699 -15.333 -43 -59.666 -121 -132.999c-17.333 -37.333 -37 -56 -59 -56
c-247.333 -147.333 -457.666 -221 -630.999 -221c-187.333 0 -313 89.333 -377 268l-8 92v41c0 205.333 84 380.333 252 525c66.667 42 130.667 63 192 63h13zM549.999 1533h16c77.333 -18 116 -51.333 116 -100v-8c0 -76 -53.333 -137.333 -160 -184l-40 -4
c-52 0 -89.333 30.667 -112 92l-4 28v16c0 61.333 32 109.333 96 144z" />
    <glyph glyph-name="Ccaron" unicode="&#x10c;" horiz-adv-x="2156" 
d="M1199 1829c124 -9.33301 185.998 -51.001 185.998 -125.001v-8c0 -86 -127.667 -157.667 -383 -215c-129.333 -54.667 -282.666 -162 -459.999 -322c-135.333 -148.667 -203 -292.667 -203 -432v-35c0 -195.333 137 -325 411 -389c72.667 -14.667 148.667 -22 228 -22
c289.333 0 535 94 737 282c40.667 27.333 133.667 114 279 260c133.333 117.333 248 176 344 176l8 -12v-6c0 -104 -57.333 -211.333 -172 -322c0 -14.667 -69 -93 -207 -235c-300.667 -282.667 -644.667 -424 -1032 -424c-385.333 0 -645.666 127 -780.999 381
c-69.333 110.667 -104 227.334 -104 350.001v29c0 285.333 209.667 576 629 872c215.333 131.333 379 197 491 197h29zM816.998 1959l-48 4.00098c-40.667 94 -130 255.667 -268 485c-16 28 -24 47 -24 57v5l25 62l30 18l65 15c21.333 -1.33301 67.333 -48.666 138 -142
c42 -74.667 82.667 -135.334 122 -182.001c167.333 115.333 260.333 211.333 279 288c1.33301 18.667 29.333 28 84 28c16.667 0 36 -1 58 -3l24 3c14.667 -25.333 22 -51 22 -77c0 -4.66699 -0.333008 -9 -1 -13l-1 -16c-4.66699 -68 -81 -161.333 -229 -280
c-43.333 -40 -98 -109.333 -164 -208c-32 -29.333 -66.333 -44 -103 -44h-9z" />
    <glyph glyph-name="ccaron" unicode="&#x10d;" horiz-adv-x="1105" 
d="M507 948c54.667 0 104.999 -15.0029 150.999 -45.0029c-5.33301 -9.33301 -8 -23.666 -8 -42.999l21 -51v-25c-23.333 -47.333 -73.333 -83.333 -150 -108c-78 -23.333 -128.667 -55.333 -152 -96c-28.667 -63.333 -43 -114 -43 -152v-25
c0 -77.333 45.333 -123.666 136 -138.999h57c90 0 244.333 49.333 463 148c94 39.333 155.333 59 184 59h8c46.667 -45.333 70.667 -79.333 72 -102c-2.66699 -15.333 -43 -59.666 -121 -132.999c-17.333 -37.333 -37 -56 -59 -56
c-247.333 -147.333 -457.666 -221 -630.999 -221c-187.333 0 -313 89.333 -377 268l-8 92v41c0 205.333 84 380.333 252 525c66.667 42 130.667 63 192 63h13zM476.999 1170l-48 4c-40.667 94 -130 255.667 -268 485c-16 28 -24 47 -24 57v5l25 62l30 18l65 15
c21.333 -1.33301 67.333 -48.666 138 -141.999c42 -74.667 82.667 -135.334 122 -182.001c167.333 115.333 260.333 211.333 279 288c1.33301 18.667 29.333 28 84 28c16.667 0 36 -1 58 -3l24 3c14.667 -25.333 22 -51 22 -77c0 -4.66699 -0.333008 -9 -1 -13l-1 -16
c-4.66699 -68 -81 -161.333 -229 -280c-43.333 -40 -98 -109.333 -164 -208c-32 -29.333 -66.333 -44 -103 -44h-9z" />
    <glyph glyph-name="Dcaron" unicode="&#x10e;" horiz-adv-x="1979" 
d="M462 1763c73.333 0 116.333 -43.667 129 -131v-16c0 -20.667 -5.66699 -48.667 -17 -84c78 -53.333 236.333 -112 475 -176l633 -312c196.667 -103.333 295 -215 295 -335v-21c0 -230.667 -271.667 -428 -815 -592l-348 -80l4 -53c0 -13.333 -43.667 -33 -131 -59l-37 -4
c-22 0 -59.667 16.333 -113 49c-30 8 -132.333 15.333 -307 22c-57.333 15.333 -96.333 38.666 -117 69.999l-12 27c20.667 76 50 125 88 147l41 29c95.333 -23.333 155.333 -35 180 -35h21c-38.667 294.667 -75 550.667 -109 768c-13.333 99.333 -20 199 -20 299
c-35.333 28.667 -163 56.667 -383 84c-108 24.667 -162 66.334 -162 125.001v31c0 31.333 41.667 70 125 116l16 17c200.667 -53.333 327 -80 379 -80v8c0 98 44.333 158.667 133 182zM554 1212c0 -256.667 48.999 -579.332 146.999 -967.999h4
c213.333 35.333 384 77 512 125c236.667 92.667 369.334 156 398.001 190c36.667 39.333 55 72.666 55 99.999v17c0 86 -142.667 198 -428 336c-282.667 136.667 -508 205 -676 205h-12v-5zM854.999 1621l-48 4c-40.667 94 -130 255.667 -268 485c-16 28 -24 47 -24 57v5
l25 62l30 18l65 15c21.333 -1.33301 67.333 -48.666 138 -141.999c42 -74.667 82.667 -135.334 122 -182.001c167.333 115.333 260.333 211.333 279 288c1.33301 18.667 29.333 28 84 28c16.667 0 36 -1 58 -3l24 3c14.667 -25.333 22 -51 22 -77
c0 -4.66699 -0.333008 -9 -1 -13l-1 -16c-4.66699 -68 -81 -161.333 -229 -280c-43.333 -40 -98 -109.333 -164 -208c-32 -29.333 -66.333 -44 -103 -44h-9z" />
    <glyph glyph-name="dcaron" unicode="&#x10f;" horiz-adv-x="1321" 
d="M892 1688c0 -20.667 16.999 -38.001 50.999 -52.001c24.667 -17.333 40.334 -122.333 47.001 -315l-2 -397c0 -191.333 66.333 -416.666 199 -675.999c53.333 -61.333 80 -106.333 80 -135l4 -29c0 -16.667 -22.667 -57 -68 -121h-63c-92 0 -157.667 61.333 -197 184
c-18 48 -48.667 95.333 -92 142c-34 -88.667 -108.333 -170.667 -223 -246c-134 -68 -286.333 -102 -457 -102c-67.333 48.667 -101 75 -101 79c-13.333 67.333 -20 114 -20 140v24c0 76.667 82 199.667 246 369c155.333 131.333 280.333 203 375 215
c32.667 15.333 49 38 49 68c-30 314 -45 523.333 -45 628v113l133 98c14.667 8.66699 27.667 13 39 13h45zM397.999 183.999c116 0 211 92.334 285 277.001c13.333 27.333 20 48.333 20 63c-126.667 -40.667 -218.667 -110.334 -276 -209.001
c-42.667 -70.667 -64 -113 -64 -127zM1236 1818c43.333 0 65 -16 65 -48l3 -193c0 -176.667 -36.667 -289 -110 -337c-29.333 -11.333 -53.333 -17 -72 -17c-8 11.333 -13.667 75 -17 191l4 85c-1.33301 98 -6.33301 177.333 -15 238c28 54 71.667 81 131 81h11z" />
    <glyph glyph-name="Dcroat" unicode="&#x110;" horiz-adv-x="2190" 
d="M108 799c11.333 12 24.666 23.665 39.999 34.998c37.333 13.333 86.666 20 147.999 20h48c40.667 0 93.667 -1.66699 159 -5l-19 127c-13.333 104 -20 204 -20 300c-36 28.667 -70.667 46.667 -104 54c-106.667 24.667 -160 66 -160 124v32c0 30 41.333 68.667 124 116
c24.667 -22.667 63.334 -34 116.001 -34v8c0 46 44 80.667 132 104l32 4h20c74 0 111.333 -50.667 112 -152c74.667 -51.333 233.334 -110 476.001 -176l632 -312c197.333 -103.333 296 -215.333 296 -336v-20c0 -231.333 -272 -428.666 -816 -591.999l-348 -80v-16l4 -36
c0 -14.667 -44 -34.667 -132 -60l-36 -4c-21.333 0 -58.666 16 -111.999 48l-188 -6c-56.667 13.333 -95.334 36 -116.001 68l-12 28c20 74.667 49.333 124 88 148l40 28c12.667 -4 32.667 -6 60 -6h20l-54 396l-168 8l-200 -12h-32c-58.667 0 -88 22.667 -88 68v12
c0 42.667 19.333 82.334 58 119.001zM746 823.998c94 -6 200.666 -14.0029 319.999 -24.0029c16 -23.333 24 -48.666 24 -75.999v-4c0 -53.333 -26.667 -100 -80 -140l-224 11c21.333 -109.333 47.333 -225 78 -347h4c207.333 34 378 75.333 512 124
c236 91.333 368 155.333 396 192c37.333 38 56 71.333 56 100v16c0 86.667 -142.667 198.334 -428 335.001s-510.666 205 -675.999 205h-12v-4c0 -115.333 10 -244.666 30 -387.999z" />
    <glyph glyph-name="dcroat" unicode="&#x111;" horiz-adv-x="1321" 
d="M398 184c116 0 211 92.334 285 277.001c13.333 27.333 20 48.333 20 63c-126.667 -40.667 -218.667 -110.334 -276 -209.001c-42.667 -70.667 -64 -113 -64 -127zM677 1394c-1.33301 27.333 -1.99902 50.6631 -1.99902 69.9961v113l133 98
c14.667 8.66699 27.667 13 39 13h45c0 -20.667 17 -38 51 -52c22 -16 37 -103.333 45 -262c70.667 -5.33301 147.667 -11.666 231 -18.999c16 -22 24 -47.333 24 -76v-4c0 -53.333 -26.333 -99.666 -79 -138.999l-175 8l-1 -220c0 -191.333 66.333 -416.666 199 -675.999
c53.333 -61.333 80 -106.333 80 -135l4 -29c0 -16.667 -22.667 -57 -68 -121h-63c-92 0 -157.667 61.333 -197 184c-18 48 -48.667 95.333 -92 142c-34 -88.667 -108.333 -170.667 -223 -246c-134 -68 -286.333 -102 -457 -102c-67.333 48.667 -101 75 -101 79
c-13.333 67.333 -20 114 -20 140v24c0 76.667 82 199.667 246 369c155.333 131.333 280.333 203 375 215c32.667 15.333 49 38 49 68c-12 124 -21.667 231.667 -29 323l-169 8l-231 -13c-58.667 0 -88 23.333 -88 70v10c0 54.667 29.333 103.334 88 146.001
c35.333 13.333 84.666 20 147.999 20h49c48 0 111 -2 189 -6z" />
    <glyph glyph-name="Emacron" unicode="&#x112;" horiz-adv-x="1620" 
d="M1185 1817c54.667 0 94.998 -11.001 120.998 -33.001v-33c0 -146 -168.667 -237.333 -506 -274c-194 -18 -291 -34.667 -291 -50c-30 -80 -45 -178 -45 -294v-46c319.333 80.667 558.333 121 717 121c120 -4 180 -12 180 -24v-31c0 -18 7 -33 21 -45
c-33.333 -58.667 -105.666 -105 -216.999 -139c-93.333 -22 -264 -47.333 -512 -76c-66 -18 -120.667 -35.667 -164 -53c-4 -50.667 -6 -99.334 -6 -146.001c0 -151.333 23 -286.333 69 -405l45 -96l21 -5c82 0 237.667 54.667 467 164c237.333 104 426.333 156 567 156
c99.333 -5.33301 149 -13.666 149 -24.999v-131c0 -6.66699 -53 -17.667 -159 -33c-289.333 -70.667 -555 -201 -797 -391c-91.333 -58.667 -172.666 -88 -243.999 -88h-45c-99.333 0 -183.333 96.333 -252 289c-48.667 122.667 -78 323.334 -88 602.001
c-46 0 -95 20.667 -147 62v12c0 49.333 32 110 96 182c11.333 14 17 23.667 17 29l-5 45l13 278l4 4l-49 -4h-35c-80.667 0 -121 22 -121 66v39c0 105.333 95 179 285 221c4 0 27.667 24 71 72c8.66699 0 36.667 21 84 63h9c66.667 0 128.667 -33.333 186 -100h8
c80.667 0 211.667 30.667 393 92c45.333 16.667 92 25 140 25h20zM495.998 2218h30c80 0 234.333 -10 463 -30c10 -15.333 15 -32.333 15 -51v-3c0 -36 -17 -67.333 -51 -94l-404 22l-126 -9h-20c-37.333 0 -56 15.333 -56 46v8c0 36 18.667 68.667 56 98
c23.333 8.66699 54.333 13 93 13z" />
    <glyph glyph-name="emacron" unicode="&#x113;" horiz-adv-x="1188" 
d="M763 793c16 -57.333 24.002 -102 24.002 -134c0 -133.333 -103.667 -241 -311 -323v-4c56 -92.667 127.667 -139 215 -139c121.333 0 250.333 96.667 387 290c84.667 94.667 149 142 193 142h8l8 -9v-41l-4 -16c1.33301 -6.66699 6.66602 -11.334 15.999 -14.001
c18 0 29.667 14.333 35 43h8v-4c0 -45.333 -39.333 -120 -118 -224c-14 -24 -23.667 -50.333 -29 -79c-36.667 -8.66699 -55 -23.667 -55 -45c-75.333 -123.333 -186 -210.333 -332 -261c-48 -10.667 -87 -16 -117 -16h-41c-196.667 0 -390 142 -580 426l-20 324v30
c0 132.667 43 215.334 129 248.001c92.667 52 174 78 244 78c139.333 0 252.666 -90.667 339.999 -272zM367.002 504c30 0 76.667 23.668 140 71.001c10.667 33.333 16 60 16 80c0 80.667 -36 136.667 -108 168l-31 4c-41.333 0 -62 -13 -62 -39
c-14.667 -26.667 -22 -65.334 -22 -116.001c0 -79.333 22.333 -135.333 67 -168zM231.002 1428h30c80 0 234.333 -10 463 -30c10 -15.333 15 -32.333 15 -51v-3c0 -36 -17 -67.333 -51 -94l-404 22l-126 -9h-20c-37.333 0 -56 15.333 -56 46v8c0 36 18.667 68.667 56 98
c23.333 8.66699 54.333 13 93 13z" />
    <glyph glyph-name="Ebreve" unicode="&#x114;" horiz-adv-x="1620" 
d="M1185 1817c54.667 0 94.998 -11.001 120.998 -33.001v-33c0 -146 -168.667 -237.333 -506 -274c-194 -18 -291 -34.667 -291 -50c-30 -80 -45 -178 -45 -294v-46c319.333 80.667 558.333 121 717 121c120 -4 180 -12 180 -24v-31c0 -18 7 -33 21 -45
c-33.333 -58.667 -105.666 -105 -216.999 -139c-93.333 -22 -264 -47.333 -512 -76c-66 -18 -120.667 -35.667 -164 -53c-4 -50.667 -6 -99.334 -6 -146.001c0 -151.333 23 -286.333 69 -405l45 -96l21 -5c82 0 237.667 54.667 467 164c237.333 104 426.333 156 567 156
c99.333 -5.33301 149 -13.666 149 -24.999v-131c0 -6.66699 -53 -17.667 -159 -33c-289.333 -70.667 -555 -201 -797 -391c-91.333 -58.667 -172.666 -88 -243.999 -88h-45c-99.333 0 -183.333 96.333 -252 289c-48.667 122.667 -78 323.334 -88 602.001
c-46 0 -95 20.667 -147 62v12c0 49.333 32 110 96 182c11.333 14 17 23.667 17 29l-5 45l13 278l4 4l-49 -4h-35c-80.667 0 -121 22 -121 66v39c0 105.333 95 179 285 221c4 0 27.667 24 71 72c8.66699 0 36.667 21 84 63h9c66.667 0 128.667 -33.333 186 -100h8
c80.667 0 211.667 30.667 393 92c45.333 16.667 92 25 140 25h20zM401.998 2290l-1.00195 14v4c0 34 23 52 69 54h5c52.667 0 100.334 -38 143.001 -114c14.667 -22 27 -33 37 -33c50 -21.333 79.333 -32 88 -32h9c50 2 107.667 64.667 173 188l35 2h6
c52 0 86.333 -25 103 -75l2 -21v-5c0 -46.667 -36.333 -101.667 -109 -165c-56 -60.667 -119 -92.667 -189 -96h-22c-74 0 -153 30.667 -237 92c-71.333 60 -108.666 122.333 -111.999 187z" />
    <glyph glyph-name="ebreve" unicode="&#x115;" horiz-adv-x="1188" 
d="M763 793c16 -57.333 24.002 -102 24.002 -134c0 -133.333 -103.667 -241 -311 -323v-4c56 -92.667 127.667 -139 215 -139c121.333 0 250.333 96.667 387 290c84.667 94.667 149 142 193 142h8l8 -9v-41l-4 -16c1.33301 -6.66699 6.66602 -11.334 15.999 -14.001
c18 0 29.667 14.333 35 43h8v-4c0 -45.333 -39.333 -120 -118 -224c-14 -24 -23.667 -50.333 -29 -79c-36.667 -8.66699 -55 -23.667 -55 -45c-75.333 -123.333 -186 -210.333 -332 -261c-48 -10.667 -87 -16 -117 -16h-41c-196.667 0 -390 142 -580 426l-20 324v30
c0 132.667 43 215.334 129 248.001c92.667 52 174 78 244 78c139.333 0 252.666 -90.667 339.999 -272zM367.002 504c30 0 76.667 23.668 140 71.001c10.667 33.333 16 60 16 80c0 80.667 -36 136.667 -108 168l-31 4c-41.333 0 -62 -13 -62 -39
c-14.667 -26.667 -22 -65.334 -22 -116.001c0 -79.333 22.333 -135.333 67 -168zM172.002 1611l-1.00195 14v4c0 34 23 52 69 54h5c52.667 0 100.334 -38 143.001 -114c14.667 -22 27 -33 37 -33c50 -21.333 79.333 -32 88 -32h9c50 2 107.667 64.667 173 188l35 2h6
c52 0 86.333 -25 103 -75l2 -21v-5c0 -46.667 -36.333 -101.667 -109 -165c-56 -60.667 -119 -92.667 -189 -96h-22c-74 0 -153 30.667 -237 92c-71.333 60 -108.666 122.333 -111.999 187z" />
    <glyph glyph-name="Edotaccent" unicode="&#x116;" horiz-adv-x="1620" 
d="M1185 1817c54.667 0 94.998 -11.001 120.998 -33.001v-33c0 -146 -168.667 -237.333 -506 -274c-194 -18 -291 -34.667 -291 -50c-30 -80 -45 -178 -45 -294v-46c319.333 80.667 558.333 121 717 121c120 -4 180 -12 180 -24v-31c0 -18 7 -33 21 -45
c-33.333 -58.667 -105.666 -105 -216.999 -139c-93.333 -22 -264 -47.333 -512 -76c-66 -18 -120.667 -35.667 -164 -53c-4 -50.667 -6 -99.334 -6 -146.001c0 -151.333 23 -286.333 69 -405l45 -96l21 -5c82 0 237.667 54.667 467 164c237.333 104 426.333 156 567 156
c99.333 -5.33301 149 -13.666 149 -24.999v-131c0 -6.66699 -53 -17.667 -159 -33c-289.333 -70.667 -555 -201 -797 -391c-91.333 -58.667 -172.666 -88 -243.999 -88h-45c-99.333 0 -183.333 96.333 -252 289c-48.667 122.667 -78 323.334 -88 602.001
c-46 0 -95 20.667 -147 62v12c0 49.333 32 110 96 182c11.333 14 17 23.667 17 29l-5 45l13 278l4 4l-49 -4h-35c-80.667 0 -121 22 -121 66v39c0 105.333 95 179 285 221c4 0 27.667 24 71 72c8.66699 0 36.667 21 84 63h9c66.667 0 128.667 -33.333 186 -100h8
c80.667 0 211.667 30.667 393 92c45.333 16.667 92 25 140 25h20zM777.998 2343h16c77.333 -18 116 -51.333 116 -100v-8c0 -76 -53.333 -137.333 -160 -184l-40 -4c-52 0 -89.333 30.667 -112 92l-4 28v16c0 61.333 32 109.333 96 144z" />
    <glyph glyph-name="edotaccent" unicode="&#x117;" horiz-adv-x="1188" 
d="M763 793c16 -57.333 24.002 -102 24.002 -134c0 -133.333 -103.667 -241 -311 -323v-4c56 -92.667 127.667 -139 215 -139c121.333 0 250.333 96.667 387 290c84.667 94.667 149 142 193 142h8l8 -9v-41l-4 -16c1.33301 -6.66699 6.66602 -11.334 15.999 -14.001
c18 0 29.667 14.333 35 43h8v-4c0 -45.333 -39.333 -120 -118 -224c-14 -24 -23.667 -50.333 -29 -79c-36.667 -8.66699 -55 -23.667 -55 -45c-75.333 -123.333 -186 -210.333 -332 -261c-48 -10.667 -87 -16 -117 -16h-41c-196.667 0 -390 142 -580 426l-20 324v30
c0 132.667 43 215.334 129 248.001c92.667 52 174 78 244 78c139.333 0 252.666 -90.667 339.999 -272zM367.002 504c30 0 76.667 23.668 140 71.001c10.667 33.333 16 60 16 80c0 80.667 -36 136.667 -108 168l-31 4c-41.333 0 -62 -13 -62 -39
c-14.667 -26.667 -22 -65.334 -22 -116.001c0 -79.333 22.333 -135.333 67 -168zM414.002 1712h16c77.333 -18 116 -51.333 116 -100v-8c0 -76 -53.333 -137.333 -160 -184l-40 -4c-52 0 -89.333 30.667 -112 92l-4 28v16c0 61.333 32 109.333 96 144z" />
    </font>
</defs>
</svg>
